G04 #@! TF.GenerationSoftware,KiCad,Pcbnew,5.0.2+dfsg1-1~bpo9+1*
G04 #@! TF.CreationDate,2022-10-20T11:28:44+02:00*
G04 #@! TF.ProjectId,nanosynth,6e616e6f-7379-46e7-9468-2e6b69636164,V.01*
G04 #@! TF.SameCoordinates,Original*
G04 #@! TF.FileFunction,Legend,Bot*
G04 #@! TF.FilePolarity,Positive*
%FSLAX46Y46*%
G04 Gerber Fmt 4.6, Leading zero omitted, Abs format (unit mm)*
G04 Created by KiCad (PCBNEW 5.0.2+dfsg1-1~bpo9+1) date Do 20 Okt 2022 11:28:44 CEST*
%MOMM*%
%LPD*%
G01*
G04 APERTURE LIST*
%ADD10O,1.700000X1.700000*%
%ADD11R,1.700000X1.700000*%
%ADD12C,1.440000*%
%ADD13C,1.600000*%
%ADD14R,1.600000X1.600000*%
%ADD15O,1.600000X1.600000*%
%ADD16O,1.524000X2.199640*%
%ADD17O,1.524000X2.197100*%
%ADD18O,1.800000X2.800000*%
%ADD19R,3.500000X3.500000*%
%ADD20C,0.100000*%
%ADD21C,3.000000*%
%ADD22C,3.500000*%
%ADD23R,2.400000X1.600000*%
%ADD24O,2.400000X1.600000*%
%ADD25C,0.900000*%
%ADD26C,8.000000*%
G04 APERTURE END LIST*
%LPC*%
D10*
G04 #@! TO.C,J3*
X135890000Y-82042000D03*
X138430000Y-82042000D03*
X140970000Y-82042000D03*
X143510000Y-82042000D03*
D11*
X146050000Y-82042000D03*
G04 #@! TD*
G04 #@! TO.C,J4*
X101473000Y-73914000D03*
D10*
X104013000Y-73914000D03*
X106553000Y-73914000D03*
X109093000Y-73914000D03*
X111633000Y-73914000D03*
G04 #@! TD*
D12*
G04 #@! TO.C,RV5*
X80264000Y-115824000D03*
X82804000Y-115824000D03*
X85344000Y-115824000D03*
G04 #@! TD*
G04 #@! TO.C,RV4*
X122428000Y-115824000D03*
X119888000Y-115824000D03*
X117348000Y-115824000D03*
G04 #@! TD*
G04 #@! TO.C,RV3*
X89916000Y-115824000D03*
X92456000Y-115824000D03*
X94996000Y-115824000D03*
G04 #@! TD*
G04 #@! TO.C,RV1*
X113157000Y-115824000D03*
X110617000Y-115824000D03*
X108077000Y-115824000D03*
G04 #@! TD*
G04 #@! TO.C,RV2*
X99187000Y-115824000D03*
X101727000Y-115824000D03*
X104267000Y-115824000D03*
G04 #@! TD*
D13*
G04 #@! TO.C,C1*
X79375000Y-81026000D03*
X84375000Y-81026000D03*
G04 #@! TD*
D14*
G04 #@! TO.C,C2*
X68580000Y-93472000D03*
D13*
X73580000Y-93472000D03*
G04 #@! TD*
D14*
G04 #@! TO.C,D1*
X117602000Y-72390000D03*
D15*
X117602000Y-80010000D03*
G04 #@! TD*
D16*
G04 #@! TO.C,J1*
X127762000Y-89408000D03*
X125222000Y-89408000D03*
X122682000Y-89408000D03*
X120142000Y-89408000D03*
X117602000Y-89408000D03*
X115062000Y-89408000D03*
X112522000Y-89408000D03*
X109982000Y-89408000D03*
X107442000Y-89408000D03*
X104902000Y-89408000D03*
X102362000Y-89408000D03*
X99822000Y-89408000D03*
X97282000Y-89408000D03*
X94742000Y-89408000D03*
X92202000Y-89408000D03*
X92202000Y-104648000D03*
X94742000Y-104648000D03*
X97282000Y-104648000D03*
X99822000Y-104648000D03*
D17*
X102362000Y-104648000D03*
X104902000Y-104648000D03*
X107442000Y-104648000D03*
X109982000Y-104648000D03*
X112522000Y-104648000D03*
X115062000Y-104648000D03*
X117602000Y-104648000D03*
X120142000Y-104648000D03*
X122682000Y-104648000D03*
X125222000Y-104648000D03*
X127762000Y-104648000D03*
G04 #@! TD*
D18*
G04 #@! TO.C,J2*
X69088000Y-103632000D03*
X71488000Y-101632000D03*
X76988000Y-101632000D03*
G04 #@! TD*
D19*
G04 #@! TO.C,J5*
X139446000Y-117348000D03*
D20*
G36*
X140519513Y-109851611D02*
X140592318Y-109862411D01*
X140663714Y-109880295D01*
X140733013Y-109905090D01*
X140799548Y-109936559D01*
X140862678Y-109974398D01*
X140921795Y-110018242D01*
X140976330Y-110067670D01*
X141025758Y-110122205D01*
X141069602Y-110181322D01*
X141107441Y-110244452D01*
X141138910Y-110310987D01*
X141163705Y-110380286D01*
X141181589Y-110451682D01*
X141192389Y-110524487D01*
X141196000Y-110598000D01*
X141196000Y-112098000D01*
X141192389Y-112171513D01*
X141181589Y-112244318D01*
X141163705Y-112315714D01*
X141138910Y-112385013D01*
X141107441Y-112451548D01*
X141069602Y-112514678D01*
X141025758Y-112573795D01*
X140976330Y-112628330D01*
X140921795Y-112677758D01*
X140862678Y-112721602D01*
X140799548Y-112759441D01*
X140733013Y-112790910D01*
X140663714Y-112815705D01*
X140592318Y-112833589D01*
X140519513Y-112844389D01*
X140446000Y-112848000D01*
X138446000Y-112848000D01*
X138372487Y-112844389D01*
X138299682Y-112833589D01*
X138228286Y-112815705D01*
X138158987Y-112790910D01*
X138092452Y-112759441D01*
X138029322Y-112721602D01*
X137970205Y-112677758D01*
X137915670Y-112628330D01*
X137866242Y-112573795D01*
X137822398Y-112514678D01*
X137784559Y-112451548D01*
X137753090Y-112385013D01*
X137728295Y-112315714D01*
X137710411Y-112244318D01*
X137699611Y-112171513D01*
X137696000Y-112098000D01*
X137696000Y-110598000D01*
X137699611Y-110524487D01*
X137710411Y-110451682D01*
X137728295Y-110380286D01*
X137753090Y-110310987D01*
X137784559Y-110244452D01*
X137822398Y-110181322D01*
X137866242Y-110122205D01*
X137915670Y-110067670D01*
X137970205Y-110018242D01*
X138029322Y-109974398D01*
X138092452Y-109936559D01*
X138158987Y-109905090D01*
X138228286Y-109880295D01*
X138299682Y-109862411D01*
X138372487Y-109851611D01*
X138446000Y-109848000D01*
X140446000Y-109848000D01*
X140519513Y-109851611D01*
X140519513Y-109851611D01*
G37*
D21*
X139446000Y-111348000D03*
D20*
G36*
X135706765Y-112602213D02*
X135791704Y-112614813D01*
X135874999Y-112635677D01*
X135955848Y-112664605D01*
X136033472Y-112701319D01*
X136107124Y-112745464D01*
X136176094Y-112796616D01*
X136239718Y-112854282D01*
X136297384Y-112917906D01*
X136348536Y-112986876D01*
X136392681Y-113060528D01*
X136429395Y-113138152D01*
X136458323Y-113219001D01*
X136479187Y-113302296D01*
X136491787Y-113387235D01*
X136496000Y-113473000D01*
X136496000Y-115223000D01*
X136491787Y-115308765D01*
X136479187Y-115393704D01*
X136458323Y-115476999D01*
X136429395Y-115557848D01*
X136392681Y-115635472D01*
X136348536Y-115709124D01*
X136297384Y-115778094D01*
X136239718Y-115841718D01*
X136176094Y-115899384D01*
X136107124Y-115950536D01*
X136033472Y-115994681D01*
X135955848Y-116031395D01*
X135874999Y-116060323D01*
X135791704Y-116081187D01*
X135706765Y-116093787D01*
X135621000Y-116098000D01*
X133871000Y-116098000D01*
X133785235Y-116093787D01*
X133700296Y-116081187D01*
X133617001Y-116060323D01*
X133536152Y-116031395D01*
X133458528Y-115994681D01*
X133384876Y-115950536D01*
X133315906Y-115899384D01*
X133252282Y-115841718D01*
X133194616Y-115778094D01*
X133143464Y-115709124D01*
X133099319Y-115635472D01*
X133062605Y-115557848D01*
X133033677Y-115476999D01*
X133012813Y-115393704D01*
X133000213Y-115308765D01*
X132996000Y-115223000D01*
X132996000Y-113473000D01*
X133000213Y-113387235D01*
X133012813Y-113302296D01*
X133033677Y-113219001D01*
X133062605Y-113138152D01*
X133099319Y-113060528D01*
X133143464Y-112986876D01*
X133194616Y-112917906D01*
X133252282Y-112854282D01*
X133315906Y-112796616D01*
X133384876Y-112745464D01*
X133458528Y-112701319D01*
X133536152Y-112664605D01*
X133617001Y-112635677D01*
X133700296Y-112614813D01*
X133785235Y-112602213D01*
X133871000Y-112598000D01*
X135621000Y-112598000D01*
X135706765Y-112602213D01*
X135706765Y-112602213D01*
G37*
D22*
X134746000Y-114348000D03*
G04 #@! TD*
D13*
G04 #@! TO.C,R1*
X137922000Y-87503000D03*
D15*
X143002000Y-87503000D03*
G04 #@! TD*
D13*
G04 #@! TO.C,R2*
X137922000Y-92837000D03*
D15*
X143002000Y-92837000D03*
G04 #@! TD*
G04 #@! TO.C,R3*
X143002000Y-98171000D03*
D13*
X137922000Y-98171000D03*
G04 #@! TD*
D15*
G04 #@! TO.C,R4*
X124714000Y-85471000D03*
D13*
X129794000Y-85471000D03*
G04 #@! TD*
G04 #@! TO.C,R5*
X95504000Y-73914000D03*
D15*
X90424000Y-73914000D03*
G04 #@! TD*
G04 #@! TO.C,R6*
X73660000Y-84836000D03*
D13*
X68580000Y-84836000D03*
G04 #@! TD*
D11*
G04 #@! TO.C,SW1*
X154178000Y-91567000D03*
D10*
X154178000Y-94107000D03*
G04 #@! TD*
D23*
G04 #@! TO.C,U2*
X121666000Y-72771000D03*
D24*
X129286000Y-80391000D03*
X121666000Y-75311000D03*
X129286000Y-77851000D03*
X121666000Y-77851000D03*
X129286000Y-75311000D03*
X121666000Y-80391000D03*
X129286000Y-72771000D03*
G04 #@! TD*
D25*
G04 #@! TO.C,REF\002A\002A*
X73121320Y-113878680D03*
X71000000Y-113000000D03*
X68878680Y-113878680D03*
X68000000Y-116000000D03*
X68878680Y-118121320D03*
X71000000Y-119000000D03*
X73121320Y-118121320D03*
X74000000Y-116000000D03*
D26*
X71000000Y-116000000D03*
G04 #@! TD*
D25*
G04 #@! TO.C,REF\002A\002A*
X73121320Y-73878680D03*
X71000000Y-73000000D03*
X68878680Y-73878680D03*
X68000000Y-76000000D03*
X68878680Y-78121320D03*
X71000000Y-79000000D03*
X73121320Y-78121320D03*
X74000000Y-76000000D03*
D26*
X71000000Y-76000000D03*
G04 #@! TD*
D25*
G04 #@! TO.C,REF\002A\002A*
X154121320Y-113878680D03*
X152000000Y-113000000D03*
X149878680Y-113878680D03*
X149000000Y-116000000D03*
X149878680Y-118121320D03*
X152000000Y-119000000D03*
X154121320Y-118121320D03*
X155000000Y-116000000D03*
D26*
X152000000Y-116000000D03*
G04 #@! TD*
D25*
G04 #@! TO.C,REF\002A\002A*
X154121320Y-73878680D03*
X152000000Y-73000000D03*
X149878680Y-73878680D03*
X149000000Y-76000000D03*
X149878680Y-78121320D03*
X152000000Y-79000000D03*
X154121320Y-78121320D03*
X155000000Y-76000000D03*
D26*
X152000000Y-76000000D03*
G04 #@! TD*
D11*
G04 #@! TO.C,J6*
X118491000Y-109474000D03*
D10*
X115951000Y-109474000D03*
X113411000Y-109474000D03*
X110871000Y-109474000D03*
X108331000Y-109474000D03*
X105791000Y-109474000D03*
X103251000Y-109474000D03*
X100711000Y-109474000D03*
X98171000Y-109474000D03*
G04 #@! TD*
D11*
G04 #@! TO.C,J7*
X88519000Y-82042000D03*
D10*
X91059000Y-82042000D03*
X93599000Y-82042000D03*
X96139000Y-82042000D03*
X98679000Y-82042000D03*
X101219000Y-82042000D03*
X103759000Y-82042000D03*
X106299000Y-82042000D03*
X108839000Y-82042000D03*
X111379000Y-82042000D03*
G04 #@! TD*
D13*
G04 #@! TO.C,R7*
X84806001Y-96744001D03*
D15*
X89886001Y-96744001D03*
G04 #@! TD*
G04 #@! TO.C,R8*
X89886001Y-100494001D03*
D13*
X84806001Y-100494001D03*
G04 #@! TD*
D11*
G04 #@! TO.C,SW2*
X81384477Y-87745645D03*
D10*
X78844477Y-87745645D03*
G04 #@! TD*
G04 #@! TO.C,SW3*
X78844477Y-91395645D03*
D11*
X81384477Y-91395645D03*
G04 #@! TD*
G04 #@! TO.C,J8*
X151892000Y-101473000D03*
D10*
X151892000Y-104013000D03*
G04 #@! TD*
M02*
