G04 #@! TF.GenerationSoftware,KiCad,Pcbnew,5.0.2+dfsg1-1~bpo9+1*
G04 #@! TF.CreationDate,2022-10-20T11:28:44+02:00*
G04 #@! TF.ProjectId,nanosynth,6e616e6f-7379-46e7-9468-2e6b69636164,V.01*
G04 #@! TF.SameCoordinates,Original*
G04 #@! TF.FileFunction,Copper,L1,Top*
G04 #@! TF.FilePolarity,Positive*
%FSLAX46Y46*%
G04 Gerber Fmt 4.6, Leading zero omitted, Abs format (unit mm)*
G04 Created by KiCad (PCBNEW 5.0.2+dfsg1-1~bpo9+1) date Do 20 Okt 2022 11:28:44 CEST*
%MOMM*%
%LPD*%
G01*
G04 APERTURE LIST*
G04 #@! TA.AperFunction,ComponentPad*
%ADD10O,1.700000X1.700000*%
G04 #@! TD*
G04 #@! TA.AperFunction,ComponentPad*
%ADD11R,1.700000X1.700000*%
G04 #@! TD*
G04 #@! TA.AperFunction,ComponentPad*
%ADD12C,1.440000*%
G04 #@! TD*
G04 #@! TA.AperFunction,ComponentPad*
%ADD13C,1.600000*%
G04 #@! TD*
G04 #@! TA.AperFunction,ComponentPad*
%ADD14R,1.600000X1.600000*%
G04 #@! TD*
G04 #@! TA.AperFunction,ComponentPad*
%ADD15O,1.600000X1.600000*%
G04 #@! TD*
G04 #@! TA.AperFunction,ComponentPad*
%ADD16O,1.524000X2.199640*%
G04 #@! TD*
G04 #@! TA.AperFunction,ComponentPad*
%ADD17O,1.524000X2.197100*%
G04 #@! TD*
G04 #@! TA.AperFunction,ComponentPad*
%ADD18O,1.800000X2.800000*%
G04 #@! TD*
G04 #@! TA.AperFunction,ComponentPad*
%ADD19R,3.500000X3.500000*%
G04 #@! TD*
G04 #@! TA.AperFunction,Conductor*
%ADD20C,0.100000*%
G04 #@! TD*
G04 #@! TA.AperFunction,ComponentPad*
%ADD21C,3.000000*%
G04 #@! TD*
G04 #@! TA.AperFunction,ComponentPad*
%ADD22C,3.500000*%
G04 #@! TD*
G04 #@! TA.AperFunction,ComponentPad*
%ADD23R,2.400000X1.600000*%
G04 #@! TD*
G04 #@! TA.AperFunction,ComponentPad*
%ADD24O,2.400000X1.600000*%
G04 #@! TD*
G04 #@! TA.AperFunction,ComponentPad*
%ADD25C,0.900000*%
G04 #@! TD*
G04 #@! TA.AperFunction,ComponentPad*
%ADD26C,8.000000*%
G04 #@! TD*
G04 #@! TA.AperFunction,ViaPad*
%ADD27C,0.800000*%
G04 #@! TD*
G04 #@! TA.AperFunction,Conductor*
%ADD28C,0.250000*%
G04 #@! TD*
G04 APERTURE END LIST*
D10*
G04 #@! TO.P,J3,5*
G04 #@! TO.N,Net-(D1-Pad2)*
X135890000Y-82042000D03*
G04 #@! TO.P,J3,4*
G04 #@! TO.N,Net-(J3-Pad4)*
X138430000Y-82042000D03*
G04 #@! TO.P,J3,3*
G04 #@! TO.N,Net-(J3-Pad3)*
X140970000Y-82042000D03*
G04 #@! TO.P,J3,2*
G04 #@! TO.N,GND*
X143510000Y-82042000D03*
D11*
G04 #@! TO.P,J3,1*
G04 #@! TO.N,Net-(J3-Pad1)*
X146050000Y-82042000D03*
G04 #@! TD*
G04 #@! TO.P,J4,1*
G04 #@! TO.N,Net-(J4-Pad1)*
X101473000Y-73914000D03*
D10*
G04 #@! TO.P,J4,2*
G04 #@! TO.N,GND*
X104013000Y-73914000D03*
G04 #@! TO.P,J4,3*
G04 #@! TO.N,Net-(J4-Pad3)*
X106553000Y-73914000D03*
G04 #@! TO.P,J4,4*
G04 #@! TO.N,Net-(J4-Pad4)*
X109093000Y-73914000D03*
G04 #@! TO.P,J4,5*
G04 #@! TO.N,Net-(J4-Pad5)*
X111633000Y-73914000D03*
G04 #@! TD*
D12*
G04 #@! TO.P,RV5,3*
G04 #@! TO.N,GND*
X80264000Y-115824000D03*
G04 #@! TO.P,RV5,2*
G04 #@! TO.N,Net-(J1-Pad25)*
X82804000Y-115824000D03*
G04 #@! TO.P,RV5,1*
G04 #@! TO.N,+5V*
X85344000Y-115824000D03*
G04 #@! TD*
G04 #@! TO.P,RV4,1*
G04 #@! TO.N,+5V*
X122428000Y-115824000D03*
G04 #@! TO.P,RV4,2*
G04 #@! TO.N,Net-(J1-Pad22)*
X119888000Y-115824000D03*
G04 #@! TO.P,RV4,3*
G04 #@! TO.N,GND*
X117348000Y-115824000D03*
G04 #@! TD*
G04 #@! TO.P,RV3,3*
G04 #@! TO.N,GND*
X89916000Y-115824000D03*
G04 #@! TO.P,RV3,2*
G04 #@! TO.N,Net-(J1-Pad21)*
X92456000Y-115824000D03*
G04 #@! TO.P,RV3,1*
G04 #@! TO.N,+5V*
X94996000Y-115824000D03*
G04 #@! TD*
G04 #@! TO.P,RV1,1*
G04 #@! TO.N,+5V*
X113157000Y-115824000D03*
G04 #@! TO.P,RV1,2*
G04 #@! TO.N,Net-(J1-Pad19)*
X110617000Y-115824000D03*
G04 #@! TO.P,RV1,3*
G04 #@! TO.N,GND*
X108077000Y-115824000D03*
G04 #@! TD*
G04 #@! TO.P,RV2,3*
G04 #@! TO.N,GND*
X99187000Y-115824000D03*
G04 #@! TO.P,RV2,2*
G04 #@! TO.N,Net-(J1-Pad20)*
X101727000Y-115824000D03*
G04 #@! TO.P,RV2,1*
G04 #@! TO.N,+5V*
X104267000Y-115824000D03*
G04 #@! TD*
D13*
G04 #@! TO.P,C1,1*
G04 #@! TO.N,Net-(C1-Pad1)*
X79375000Y-81026000D03*
G04 #@! TO.P,C1,2*
G04 #@! TO.N,GND*
X84375000Y-81026000D03*
G04 #@! TD*
D14*
G04 #@! TO.P,C2,1*
G04 #@! TO.N,Net-(C1-Pad1)*
X68580000Y-93472000D03*
D13*
G04 #@! TO.P,C2,2*
G04 #@! TO.N,Net-(C2-Pad2)*
X73580000Y-93472000D03*
G04 #@! TD*
D14*
G04 #@! TO.P,D1,1*
G04 #@! TO.N,Net-(D1-Pad1)*
X117602000Y-72390000D03*
D15*
G04 #@! TO.P,D1,2*
G04 #@! TO.N,Net-(D1-Pad2)*
X117602000Y-80010000D03*
G04 #@! TD*
D16*
G04 #@! TO.P,J1,1*
G04 #@! TO.N,Net-(J1-Pad1)*
X127762000Y-89408000D03*
G04 #@! TO.P,J1,2*
G04 #@! TO.N,Net-(J1-Pad2)*
X125222000Y-89408000D03*
G04 #@! TO.P,J1,3*
G04 #@! TO.N,Net-(J1-Pad3)*
X122682000Y-89408000D03*
G04 #@! TO.P,J1,4*
G04 #@! TO.N,GND*
X120142000Y-89408000D03*
G04 #@! TO.P,J1,5*
G04 #@! TO.N,Net-(J1-Pad5)*
X117602000Y-89408000D03*
G04 #@! TO.P,J1,6*
G04 #@! TO.N,Net-(J1-Pad6)*
X115062000Y-89408000D03*
G04 #@! TO.P,J1,7*
G04 #@! TO.N,Net-(J1-Pad7)*
X112522000Y-89408000D03*
G04 #@! TO.P,J1,8*
G04 #@! TO.N,Net-(J1-Pad8)*
X109982000Y-89408000D03*
G04 #@! TO.P,J1,9*
G04 #@! TO.N,Net-(J1-Pad9)*
X107442000Y-89408000D03*
G04 #@! TO.P,J1,10*
G04 #@! TO.N,Net-(J1-Pad10)*
X104902000Y-89408000D03*
G04 #@! TO.P,J1,11*
G04 #@! TO.N,Net-(J1-Pad11)*
X102362000Y-89408000D03*
G04 #@! TO.P,J1,12*
G04 #@! TO.N,Net-(J1-Pad12)*
X99822000Y-89408000D03*
G04 #@! TO.P,J1,13*
G04 #@! TO.N,Net-(J1-Pad13)*
X97282000Y-89408000D03*
G04 #@! TO.P,J1,14*
G04 #@! TO.N,Net-(J1-Pad14)*
X94742000Y-89408000D03*
G04 #@! TO.P,J1,15*
G04 #@! TO.N,Net-(J1-Pad15)*
X92202000Y-89408000D03*
G04 #@! TO.P,J1,16*
G04 #@! TO.N,Net-(J1-Pad16)*
X92202000Y-104648000D03*
G04 #@! TO.P,J1,17*
G04 #@! TO.N,Net-(J1-Pad17)*
X94742000Y-104648000D03*
G04 #@! TO.P,J1,18*
G04 #@! TO.N,Net-(J1-Pad18)*
X97282000Y-104648000D03*
G04 #@! TO.P,J1,19*
G04 #@! TO.N,Net-(J1-Pad19)*
X99822000Y-104648000D03*
D17*
G04 #@! TO.P,J1,20*
G04 #@! TO.N,Net-(J1-Pad20)*
X102362000Y-104648000D03*
G04 #@! TO.P,J1,21*
G04 #@! TO.N,Net-(J1-Pad21)*
X104902000Y-104648000D03*
G04 #@! TO.P,J1,22*
G04 #@! TO.N,Net-(J1-Pad22)*
X107442000Y-104648000D03*
G04 #@! TO.P,J1,23*
G04 #@! TO.N,Net-(J1-Pad23)*
X109982000Y-104648000D03*
G04 #@! TO.P,J1,24*
G04 #@! TO.N,Net-(J1-Pad24)*
X112522000Y-104648000D03*
G04 #@! TO.P,J1,25*
G04 #@! TO.N,Net-(J1-Pad25)*
X115062000Y-104648000D03*
G04 #@! TO.P,J1,26*
G04 #@! TO.N,Net-(J1-Pad26)*
X117602000Y-104648000D03*
G04 #@! TO.P,J1,27*
G04 #@! TO.N,+5V*
X120142000Y-104648000D03*
G04 #@! TO.P,J1,28*
G04 #@! TO.N,Net-(J1-Pad28)*
X122682000Y-104648000D03*
G04 #@! TO.P,J1,29*
G04 #@! TO.N,GND*
X125222000Y-104648000D03*
G04 #@! TO.P,J1,30*
G04 #@! TO.N,Net-(J1-Pad30)*
X127762000Y-104648000D03*
G04 #@! TD*
D18*
G04 #@! TO.P,J2,S*
G04 #@! TO.N,GND*
X69088000Y-103632000D03*
G04 #@! TO.P,J2,T*
G04 #@! TO.N,Net-(C2-Pad2)*
X71488000Y-101632000D03*
G04 #@! TO.P,J2,R*
G04 #@! TO.N,N/C*
X76988000Y-101632000D03*
G04 #@! TD*
D19*
G04 #@! TO.P,J5,1*
G04 #@! TO.N,GND*
X139446000Y-117348000D03*
D20*
G04 #@! TD*
G04 #@! TO.N,Net-(J1-Pad30)*
G04 #@! TO.C,J5*
G36*
X140519513Y-109851611D02*
X140592318Y-109862411D01*
X140663714Y-109880295D01*
X140733013Y-109905090D01*
X140799548Y-109936559D01*
X140862678Y-109974398D01*
X140921795Y-110018242D01*
X140976330Y-110067670D01*
X141025758Y-110122205D01*
X141069602Y-110181322D01*
X141107441Y-110244452D01*
X141138910Y-110310987D01*
X141163705Y-110380286D01*
X141181589Y-110451682D01*
X141192389Y-110524487D01*
X141196000Y-110598000D01*
X141196000Y-112098000D01*
X141192389Y-112171513D01*
X141181589Y-112244318D01*
X141163705Y-112315714D01*
X141138910Y-112385013D01*
X141107441Y-112451548D01*
X141069602Y-112514678D01*
X141025758Y-112573795D01*
X140976330Y-112628330D01*
X140921795Y-112677758D01*
X140862678Y-112721602D01*
X140799548Y-112759441D01*
X140733013Y-112790910D01*
X140663714Y-112815705D01*
X140592318Y-112833589D01*
X140519513Y-112844389D01*
X140446000Y-112848000D01*
X138446000Y-112848000D01*
X138372487Y-112844389D01*
X138299682Y-112833589D01*
X138228286Y-112815705D01*
X138158987Y-112790910D01*
X138092452Y-112759441D01*
X138029322Y-112721602D01*
X137970205Y-112677758D01*
X137915670Y-112628330D01*
X137866242Y-112573795D01*
X137822398Y-112514678D01*
X137784559Y-112451548D01*
X137753090Y-112385013D01*
X137728295Y-112315714D01*
X137710411Y-112244318D01*
X137699611Y-112171513D01*
X137696000Y-112098000D01*
X137696000Y-110598000D01*
X137699611Y-110524487D01*
X137710411Y-110451682D01*
X137728295Y-110380286D01*
X137753090Y-110310987D01*
X137784559Y-110244452D01*
X137822398Y-110181322D01*
X137866242Y-110122205D01*
X137915670Y-110067670D01*
X137970205Y-110018242D01*
X138029322Y-109974398D01*
X138092452Y-109936559D01*
X138158987Y-109905090D01*
X138228286Y-109880295D01*
X138299682Y-109862411D01*
X138372487Y-109851611D01*
X138446000Y-109848000D01*
X140446000Y-109848000D01*
X140519513Y-109851611D01*
X140519513Y-109851611D01*
G37*
D21*
G04 #@! TO.P,J5,2*
G04 #@! TO.N,Net-(J1-Pad30)*
X139446000Y-111348000D03*
D20*
G04 #@! TD*
G04 #@! TO.N,N/C*
G04 #@! TO.C,J5*
G36*
X135706765Y-112602213D02*
X135791704Y-112614813D01*
X135874999Y-112635677D01*
X135955848Y-112664605D01*
X136033472Y-112701319D01*
X136107124Y-112745464D01*
X136176094Y-112796616D01*
X136239718Y-112854282D01*
X136297384Y-112917906D01*
X136348536Y-112986876D01*
X136392681Y-113060528D01*
X136429395Y-113138152D01*
X136458323Y-113219001D01*
X136479187Y-113302296D01*
X136491787Y-113387235D01*
X136496000Y-113473000D01*
X136496000Y-115223000D01*
X136491787Y-115308765D01*
X136479187Y-115393704D01*
X136458323Y-115476999D01*
X136429395Y-115557848D01*
X136392681Y-115635472D01*
X136348536Y-115709124D01*
X136297384Y-115778094D01*
X136239718Y-115841718D01*
X136176094Y-115899384D01*
X136107124Y-115950536D01*
X136033472Y-115994681D01*
X135955848Y-116031395D01*
X135874999Y-116060323D01*
X135791704Y-116081187D01*
X135706765Y-116093787D01*
X135621000Y-116098000D01*
X133871000Y-116098000D01*
X133785235Y-116093787D01*
X133700296Y-116081187D01*
X133617001Y-116060323D01*
X133536152Y-116031395D01*
X133458528Y-115994681D01*
X133384876Y-115950536D01*
X133315906Y-115899384D01*
X133252282Y-115841718D01*
X133194616Y-115778094D01*
X133143464Y-115709124D01*
X133099319Y-115635472D01*
X133062605Y-115557848D01*
X133033677Y-115476999D01*
X133012813Y-115393704D01*
X133000213Y-115308765D01*
X132996000Y-115223000D01*
X132996000Y-113473000D01*
X133000213Y-113387235D01*
X133012813Y-113302296D01*
X133033677Y-113219001D01*
X133062605Y-113138152D01*
X133099319Y-113060528D01*
X133143464Y-112986876D01*
X133194616Y-112917906D01*
X133252282Y-112854282D01*
X133315906Y-112796616D01*
X133384876Y-112745464D01*
X133458528Y-112701319D01*
X133536152Y-112664605D01*
X133617001Y-112635677D01*
X133700296Y-112614813D01*
X133785235Y-112602213D01*
X133871000Y-112598000D01*
X135621000Y-112598000D01*
X135706765Y-112602213D01*
X135706765Y-112602213D01*
G37*
D22*
G04 #@! TO.P,J5,3*
G04 #@! TO.N,N/C*
X134746000Y-114348000D03*
G04 #@! TD*
D13*
G04 #@! TO.P,R1,1*
G04 #@! TO.N,Net-(D1-Pad1)*
X137922000Y-87503000D03*
D15*
G04 #@! TO.P,R1,2*
G04 #@! TO.N,Net-(J3-Pad4)*
X143002000Y-87503000D03*
G04 #@! TD*
D13*
G04 #@! TO.P,R2,1*
G04 #@! TO.N,+5V*
X137922000Y-92837000D03*
D15*
G04 #@! TO.P,R2,2*
G04 #@! TO.N,Net-(R2-Pad2)*
X143002000Y-92837000D03*
G04 #@! TD*
G04 #@! TO.P,R3,2*
G04 #@! TO.N,GND*
X143002000Y-98171000D03*
D13*
G04 #@! TO.P,R3,1*
G04 #@! TO.N,Net-(R3-Pad1)*
X137922000Y-98171000D03*
G04 #@! TD*
D15*
G04 #@! TO.P,R4,2*
G04 #@! TO.N,Net-(J4-Pad5)*
X124714000Y-85471000D03*
D13*
G04 #@! TO.P,R4,1*
G04 #@! TO.N,Net-(J1-Pad1)*
X129794000Y-85471000D03*
G04 #@! TD*
G04 #@! TO.P,R5,1*
G04 #@! TO.N,Net-(J4-Pad4)*
X95504000Y-73914000D03*
D15*
G04 #@! TO.P,R5,2*
G04 #@! TO.N,+5V*
X90424000Y-73914000D03*
G04 #@! TD*
G04 #@! TO.P,R6,2*
G04 #@! TO.N,Net-(J1-Pad6)*
X73660000Y-84836000D03*
D13*
G04 #@! TO.P,R6,1*
G04 #@! TO.N,Net-(C1-Pad1)*
X68580000Y-84836000D03*
G04 #@! TD*
D11*
G04 #@! TO.P,SW1,1*
G04 #@! TO.N,Net-(R2-Pad2)*
X154178000Y-91567000D03*
D10*
G04 #@! TO.P,SW1,2*
G04 #@! TO.N,Net-(J1-Pad2)*
X154178000Y-94107000D03*
G04 #@! TD*
D23*
G04 #@! TO.P,U2,1*
G04 #@! TO.N,Net-(U2-Pad1)*
X121666000Y-72771000D03*
D24*
G04 #@! TO.P,U2,5*
G04 #@! TO.N,GND*
X129286000Y-80391000D03*
G04 #@! TO.P,U2,2*
G04 #@! TO.N,Net-(D1-Pad1)*
X121666000Y-75311000D03*
G04 #@! TO.P,U2,6*
G04 #@! TO.N,Net-(R2-Pad2)*
X129286000Y-77851000D03*
G04 #@! TO.P,U2,3*
G04 #@! TO.N,Net-(D1-Pad2)*
X121666000Y-77851000D03*
G04 #@! TO.P,U2,7*
G04 #@! TO.N,Net-(R3-Pad1)*
X129286000Y-75311000D03*
G04 #@! TO.P,U2,4*
G04 #@! TO.N,Net-(U2-Pad4)*
X121666000Y-80391000D03*
G04 #@! TO.P,U2,8*
G04 #@! TO.N,+5V*
X129286000Y-72771000D03*
G04 #@! TD*
D25*
G04 #@! TO.P,REF\002A\002A,1*
G04 #@! TO.N,N/C*
X73121320Y-113878680D03*
X71000000Y-113000000D03*
X68878680Y-113878680D03*
X68000000Y-116000000D03*
X68878680Y-118121320D03*
X71000000Y-119000000D03*
X73121320Y-118121320D03*
X74000000Y-116000000D03*
D26*
X71000000Y-116000000D03*
G04 #@! TD*
D25*
G04 #@! TO.P,REF\002A\002A,1*
G04 #@! TO.N,N/C*
X73121320Y-73878680D03*
X71000000Y-73000000D03*
X68878680Y-73878680D03*
X68000000Y-76000000D03*
X68878680Y-78121320D03*
X71000000Y-79000000D03*
X73121320Y-78121320D03*
X74000000Y-76000000D03*
D26*
X71000000Y-76000000D03*
G04 #@! TD*
D25*
G04 #@! TO.P,REF\002A\002A,1*
G04 #@! TO.N,N/C*
X154121320Y-113878680D03*
X152000000Y-113000000D03*
X149878680Y-113878680D03*
X149000000Y-116000000D03*
X149878680Y-118121320D03*
X152000000Y-119000000D03*
X154121320Y-118121320D03*
X155000000Y-116000000D03*
D26*
X152000000Y-116000000D03*
G04 #@! TD*
D25*
G04 #@! TO.P,REF\002A\002A,1*
G04 #@! TO.N,N/C*
X154121320Y-73878680D03*
X152000000Y-73000000D03*
X149878680Y-73878680D03*
X149000000Y-76000000D03*
X149878680Y-78121320D03*
X152000000Y-79000000D03*
X154121320Y-78121320D03*
X155000000Y-76000000D03*
D26*
X152000000Y-76000000D03*
G04 #@! TD*
D11*
G04 #@! TO.P,J6,1*
G04 #@! TO.N,Net-(J1-Pad26)*
X118491000Y-109474000D03*
D10*
G04 #@! TO.P,J6,2*
G04 #@! TO.N,Net-(J1-Pad25)*
X115951000Y-109474000D03*
G04 #@! TO.P,J6,3*
G04 #@! TO.N,Net-(J1-Pad24)*
X113411000Y-109474000D03*
G04 #@! TO.P,J6,4*
G04 #@! TO.N,Net-(J1-Pad23)*
X110871000Y-109474000D03*
G04 #@! TO.P,J6,5*
G04 #@! TO.N,Net-(J1-Pad22)*
X108331000Y-109474000D03*
G04 #@! TO.P,J6,6*
G04 #@! TO.N,Net-(J1-Pad21)*
X105791000Y-109474000D03*
G04 #@! TO.P,J6,7*
G04 #@! TO.N,Net-(J1-Pad20)*
X103251000Y-109474000D03*
G04 #@! TO.P,J6,8*
G04 #@! TO.N,Net-(J1-Pad19)*
X100711000Y-109474000D03*
G04 #@! TO.P,J6,9*
G04 #@! TO.N,Net-(J1-Pad16)*
X98171000Y-109474000D03*
G04 #@! TD*
D11*
G04 #@! TO.P,J7,1*
G04 #@! TO.N,Net-(J1-Pad15)*
X88519000Y-82042000D03*
D10*
G04 #@! TO.P,J7,2*
G04 #@! TO.N,Net-(J1-Pad14)*
X91059000Y-82042000D03*
G04 #@! TO.P,J7,3*
G04 #@! TO.N,Net-(J1-Pad13)*
X93599000Y-82042000D03*
G04 #@! TO.P,J7,4*
G04 #@! TO.N,Net-(J1-Pad12)*
X96139000Y-82042000D03*
G04 #@! TO.P,J7,5*
G04 #@! TO.N,Net-(J1-Pad11)*
X98679000Y-82042000D03*
G04 #@! TO.P,J7,6*
G04 #@! TO.N,Net-(J1-Pad10)*
X101219000Y-82042000D03*
G04 #@! TO.P,J7,7*
G04 #@! TO.N,Net-(J1-Pad9)*
X103759000Y-82042000D03*
G04 #@! TO.P,J7,8*
G04 #@! TO.N,Net-(J1-Pad8)*
X106299000Y-82042000D03*
G04 #@! TO.P,J7,9*
G04 #@! TO.N,Net-(J1-Pad7)*
X108839000Y-82042000D03*
G04 #@! TO.P,J7,10*
G04 #@! TO.N,Net-(J1-Pad5)*
X111379000Y-82042000D03*
G04 #@! TD*
D13*
G04 #@! TO.P,R7,1*
G04 #@! TO.N,Net-(J1-Pad15)*
X84806001Y-96744001D03*
D15*
G04 #@! TO.P,R7,2*
G04 #@! TO.N,GND*
X89886001Y-96744001D03*
G04 #@! TD*
G04 #@! TO.P,R8,2*
G04 #@! TO.N,GND*
X89886001Y-100494001D03*
D13*
G04 #@! TO.P,R8,1*
G04 #@! TO.N,Net-(J1-Pad14)*
X84806001Y-100494001D03*
G04 #@! TD*
D11*
G04 #@! TO.P,SW2,1*
G04 #@! TO.N,Net-(J1-Pad15)*
X81384477Y-87745645D03*
D10*
G04 #@! TO.P,SW2,2*
G04 #@! TO.N,+5V*
X78844477Y-87745645D03*
G04 #@! TD*
G04 #@! TO.P,SW3,2*
G04 #@! TO.N,+5V*
X78844477Y-91395645D03*
D11*
G04 #@! TO.P,SW3,1*
G04 #@! TO.N,Net-(J1-Pad14)*
X81384477Y-91395645D03*
G04 #@! TD*
G04 #@! TO.P,J8,1*
G04 #@! TO.N,+5V*
X151892000Y-101473000D03*
D10*
G04 #@! TO.P,J8,2*
G04 #@! TO.N,GND*
X151892000Y-104013000D03*
G04 #@! TD*
D27*
G04 #@! TO.N,Net-(J1-Pad2)*
X144780000Y-94996000D03*
G04 #@! TO.N,Net-(J1-Pad14)*
X91059000Y-85725000D03*
G04 #@! TO.N,Net-(J1-Pad15)*
X88519000Y-86737000D03*
G04 #@! TO.N,+5V*
X86498630Y-76708000D03*
G04 #@! TO.N,Net-(R3-Pad1)*
X133223000Y-96139000D03*
X133223000Y-88519000D03*
X131826000Y-81661000D03*
G04 #@! TO.N,Net-(J1-Pad21)*
X94488000Y-111633000D03*
G04 #@! TD*
D28*
G04 #@! TO.N,Net-(C1-Pad1)*
X68326000Y-84582000D02*
X68580000Y-84836000D01*
X68580000Y-92422000D02*
X68580000Y-84836000D01*
X68580000Y-93472000D02*
X68580000Y-92422000D01*
X79375000Y-81026000D02*
X74803000Y-81026000D01*
X74803000Y-81026000D02*
X72136000Y-83693000D01*
X69723000Y-83693000D02*
X68580000Y-84836000D01*
X72136000Y-83693000D02*
X69723000Y-83693000D01*
G04 #@! TO.N,GND*
X120142000Y-89408000D02*
X120142000Y-89745820D01*
X143002000Y-98171000D02*
X144133370Y-98171000D01*
X104013000Y-73914000D02*
X104013000Y-75565000D01*
X104013000Y-75565000D02*
X104394000Y-75946000D01*
X104394000Y-75946000D02*
X108966000Y-75946000D01*
X108966000Y-75946000D02*
X109855000Y-76835000D01*
X103632000Y-118364000D02*
X104650233Y-118364000D01*
X102362000Y-75565000D02*
X104013000Y-75565000D01*
X98933000Y-78994000D02*
X102362000Y-75565000D01*
X84640630Y-78994000D02*
X98933000Y-78994000D01*
X84375000Y-79894630D02*
X84201000Y-79720630D01*
X84375000Y-81026000D02*
X84375000Y-79894630D01*
X84201000Y-79433630D02*
X84640630Y-78994000D01*
X84201000Y-79720630D02*
X84201000Y-79433630D01*
X109855000Y-77771180D02*
X109855000Y-76835000D01*
X120142000Y-89408000D02*
X120142000Y-88058180D01*
G04 #@! TO.N,Net-(C2-Pad2)*
X72638000Y-101632000D02*
X71488000Y-101632000D01*
X73580000Y-100690000D02*
X72638000Y-101632000D01*
X73580000Y-93472000D02*
X73580000Y-100690000D01*
G04 #@! TO.N,Net-(J1-Pad2)*
X125222000Y-89745820D02*
X130472180Y-94996000D01*
X125222000Y-89408000D02*
X125222000Y-89745820D01*
X130472180Y-94996000D02*
X144780000Y-94996000D01*
X144780000Y-94996000D02*
X144780000Y-94996000D01*
G04 #@! TO.N,Net-(J1-Pad6)*
X73660000Y-84836000D02*
X113919000Y-84836000D01*
X115062000Y-85979000D02*
X115062000Y-89408000D01*
X113919000Y-84836000D02*
X115062000Y-85979000D01*
G04 #@! TO.N,GND*
X125222000Y-104648000D02*
X125222000Y-104984550D01*
X125222000Y-105996550D02*
X127508000Y-108282550D01*
X125222000Y-104648000D02*
X125222000Y-105996550D01*
X127508000Y-114808000D02*
X123952000Y-118364000D01*
X127508000Y-108282550D02*
X127508000Y-114808000D01*
X130048000Y-117348000D02*
X127508000Y-114808000D01*
X139446000Y-117348000D02*
X130048000Y-117348000D01*
X125222000Y-104648000D02*
X125222000Y-103299450D01*
X140970000Y-101854000D02*
X143002000Y-99822000D01*
X125222000Y-103299450D02*
X126667450Y-101854000D01*
X126667450Y-101854000D02*
X140970000Y-101854000D01*
X126667450Y-101013450D02*
X120142000Y-94488000D01*
X126667450Y-101854000D02*
X126667450Y-101013450D01*
X123952000Y-118364000D02*
X122936000Y-118364000D01*
X108077000Y-116842233D02*
X108712000Y-117477233D01*
X108712000Y-117477233D02*
X108712000Y-118364000D01*
X108077000Y-115824000D02*
X108077000Y-116842233D01*
X108712000Y-118364000D02*
X113792000Y-118364000D01*
X104650233Y-118364000D02*
X108712000Y-118364000D01*
X100076000Y-117731233D02*
X100076000Y-118364000D01*
X99187000Y-116842233D02*
X100076000Y-117731233D01*
X99187000Y-115824000D02*
X99187000Y-116842233D01*
X93472000Y-118364000D02*
X100076000Y-118364000D01*
X100076000Y-118364000D02*
X103632000Y-118364000D01*
X90678000Y-117604233D02*
X90678000Y-118364000D01*
X89916000Y-116842233D02*
X90678000Y-117604233D01*
X89916000Y-115824000D02*
X89916000Y-116842233D01*
X90678000Y-118364000D02*
X93472000Y-118364000D01*
X82170000Y-117730000D02*
X80264000Y-115824000D01*
X82170000Y-118364000D02*
X82170000Y-117730000D01*
X90678000Y-118364000D02*
X82170000Y-118364000D01*
X69088000Y-104648000D02*
X79544001Y-115104001D01*
X79544001Y-115104001D02*
X80264000Y-115824000D01*
X69088000Y-103632000D02*
X69088000Y-104648000D01*
X117348000Y-116842233D02*
X118237000Y-117731233D01*
X118237000Y-117731233D02*
X118237000Y-118364000D01*
X117348000Y-115824000D02*
X117348000Y-116842233D01*
X122936000Y-118364000D02*
X118237000Y-118364000D01*
X118237000Y-118364000D02*
X113792000Y-118364000D01*
X93146372Y-94361000D02*
X120142000Y-94361000D01*
X92541371Y-94966001D02*
X93146372Y-94361000D01*
X91410001Y-94966001D02*
X92541371Y-94966001D01*
X120142000Y-94488000D02*
X120142000Y-94361000D01*
X120142000Y-94361000D02*
X120142000Y-89408000D01*
X89886001Y-99362631D02*
X89886001Y-96744001D01*
X89886001Y-100494001D02*
X89886001Y-99362631D01*
X90686000Y-95690002D02*
X91410001Y-94966001D01*
X90686000Y-95944002D02*
X90686000Y-95690002D01*
X89886001Y-96744001D02*
X90686000Y-95944002D01*
X150689919Y-104013000D02*
X146117919Y-99441000D01*
X151892000Y-104013000D02*
X150689919Y-104013000D01*
X143002000Y-99822000D02*
X143002000Y-99441000D01*
X146117919Y-99441000D02*
X143002000Y-99441000D01*
X143002000Y-99441000D02*
X143002000Y-98171000D01*
X147955000Y-94349370D02*
X147574000Y-94730370D01*
X147955000Y-86487000D02*
X147955000Y-94349370D01*
X143510000Y-82042000D02*
X147955000Y-86487000D01*
X144133370Y-98171000D02*
X147574000Y-94730370D01*
X147574000Y-94730370D02*
X147828000Y-94476370D01*
X127836000Y-80391000D02*
X126873000Y-81354000D01*
X129286000Y-80391000D02*
X127836000Y-80391000D01*
X120142000Y-88058180D02*
X120015000Y-87931180D01*
X120015000Y-87931180D02*
X109855000Y-77771180D01*
X120142000Y-88058180D02*
X121237820Y-88058180D01*
X121237820Y-88058180D02*
X122047000Y-87249000D01*
X122047000Y-87249000D02*
X125603000Y-87249000D01*
X126873000Y-85979000D02*
X126873000Y-84709000D01*
X125603000Y-87249000D02*
X126873000Y-85979000D01*
X126873000Y-84709000D02*
X126873000Y-84977002D01*
X126873000Y-81354000D02*
X126873000Y-84709000D01*
G04 #@! TO.N,Net-(D1-Pad1)*
X119473000Y-75311000D02*
X120216000Y-75311000D01*
X117602000Y-73440000D02*
X119473000Y-75311000D01*
X120216000Y-75311000D02*
X121666000Y-75311000D01*
X117602000Y-72390000D02*
X117602000Y-73440000D01*
G04 #@! TO.N,Net-(D1-Pad2)*
X120216000Y-78901000D02*
X121266000Y-77851000D01*
X121266000Y-77851000D02*
X121666000Y-77851000D01*
X120216000Y-79301000D02*
X120216000Y-78901000D01*
X119507000Y-80010000D02*
X120216000Y-79301000D01*
X117602000Y-80010000D02*
X119507000Y-80010000D01*
X122066000Y-77851000D02*
X121666000Y-77851000D01*
X135890000Y-82042000D02*
X136739999Y-81192001D01*
X136739999Y-81192001D02*
X136739999Y-71588999D01*
X136739999Y-71588999D02*
X136652000Y-71501000D01*
X123116000Y-77851000D02*
X125095000Y-75872000D01*
X121666000Y-77851000D02*
X123116000Y-77851000D01*
X125095000Y-75872000D02*
X125095000Y-73152000D01*
X125095000Y-73152000D02*
X126746000Y-71501000D01*
X126746000Y-71501000D02*
X128651000Y-71501000D01*
X128651000Y-71501000D02*
X128416000Y-71501000D01*
X136652000Y-71501000D02*
X128651000Y-71501000D01*
G04 #@! TO.N,Net-(J1-Pad1)*
X127762000Y-87503000D02*
X127762000Y-89408000D01*
X129794000Y-85471000D02*
X127762000Y-87503000D01*
G04 #@! TO.N,Net-(J1-Pad14)*
X84599122Y-89281000D02*
X87503000Y-89281000D01*
X82484477Y-91395645D02*
X84599122Y-89281000D01*
X87503000Y-89281000D02*
X91059000Y-85725000D01*
X81384477Y-91395645D02*
X82484477Y-91395645D01*
G04 #@! TO.N,Net-(J1-Pad15)*
X87510355Y-87745645D02*
X88519000Y-86737000D01*
X81384477Y-87745645D02*
X87510355Y-87745645D01*
G04 #@! TO.N,Net-(J1-Pad19)*
X110617000Y-115824000D02*
X106680000Y-111887000D01*
X103124000Y-111887000D02*
X100711000Y-109474000D01*
X106680000Y-111887000D02*
X103124000Y-111887000D01*
G04 #@! TO.N,Net-(J1-Pad26)*
X118491000Y-105537000D02*
X117602000Y-104648000D01*
X118491000Y-109474000D02*
X118491000Y-105537000D01*
G04 #@! TO.N,Net-(J1-Pad30)*
X128774000Y-104648000D02*
X131314000Y-107188000D01*
X127762000Y-104648000D02*
X128774000Y-104648000D01*
X131314000Y-107188000D02*
X137795000Y-107188000D01*
X139446000Y-108839000D02*
X139446000Y-111348000D01*
X137795000Y-107188000D02*
X139446000Y-108839000D01*
G04 #@! TO.N,Net-(J3-Pad4)*
X143002000Y-86614000D02*
X143002000Y-87503000D01*
X138430000Y-82042000D02*
X143002000Y-86614000D01*
G04 #@! TO.N,+5V*
X89292630Y-73914000D02*
X86498630Y-76708000D01*
X90424000Y-73914000D02*
X89292630Y-73914000D01*
X86498630Y-76708000D02*
X86498630Y-76708000D01*
G04 #@! TO.N,Net-(R2-Pad2)*
X129686000Y-77851000D02*
X129286000Y-77851000D01*
X133096000Y-86360000D02*
X133096000Y-81261000D01*
X133096000Y-81261000D02*
X129686000Y-77851000D01*
X134874000Y-88138000D02*
X133096000Y-86360000D01*
X143002000Y-92837000D02*
X142202001Y-92037001D01*
X142202001Y-92037001D02*
X140790999Y-92037001D01*
X140790999Y-92037001D02*
X136891998Y-88138000D01*
X136891998Y-88138000D02*
X134874000Y-88138000D01*
G04 #@! TO.N,Net-(R3-Pad1)*
X136790630Y-98171000D02*
X134758630Y-96139000D01*
X137922000Y-98171000D02*
X136790630Y-98171000D01*
X134758630Y-96139000D02*
X133223000Y-96139000D01*
X133223000Y-96139000D02*
X133096000Y-96139000D01*
X133223000Y-87953315D02*
X132334000Y-87064315D01*
X133223000Y-88519000D02*
X133223000Y-87953315D01*
X132334000Y-87064315D02*
X132334000Y-82423000D01*
X132334000Y-82423000D02*
X131826000Y-81661000D01*
X132334000Y-82169000D02*
X131826000Y-81661000D01*
X131826000Y-81661000D02*
X132334000Y-82169000D01*
G04 #@! TO.N,Net-(J4-Pad5)*
X111633000Y-73914000D02*
X112835081Y-73914000D01*
X111633000Y-73914000D02*
X111633000Y-76200000D01*
X123582630Y-85471000D02*
X122947630Y-84836000D01*
X124714000Y-85471000D02*
X123582630Y-85471000D01*
X122947630Y-84836000D02*
X120269000Y-84836000D01*
X118110000Y-82677000D02*
X118364000Y-82931000D01*
X120269000Y-84836000D02*
X118110000Y-82677000D01*
X111633000Y-76200000D02*
X118110000Y-82677000D01*
G04 #@! TO.N,Net-(J4-Pad4)*
X109093000Y-72711919D02*
X108771081Y-72390000D01*
X109093000Y-73914000D02*
X109093000Y-72711919D01*
X97028000Y-72390000D02*
X95504000Y-73914000D01*
X108771081Y-72390000D02*
X97028000Y-72390000D01*
G04 #@! TO.N,Net-(J1-Pad20)*
X101007001Y-115104001D02*
X100626001Y-115104001D01*
X101727000Y-115824000D02*
X101007001Y-115104001D01*
X100626001Y-115104001D02*
X96393000Y-110871000D01*
X96393000Y-110871000D02*
X96393000Y-110236000D01*
X96393000Y-110236000D02*
X95504000Y-109347000D01*
X95504000Y-109347000D02*
X95504000Y-108331000D01*
X95504000Y-108331000D02*
X96139000Y-107696000D01*
X101473000Y-107696000D02*
X103251000Y-109474000D01*
X96139000Y-107696000D02*
X101473000Y-107696000D01*
G04 #@! TO.N,Net-(J1-Pad21)*
X93175999Y-115104001D02*
X93175999Y-112945001D01*
X92456000Y-115824000D02*
X93175999Y-115104001D01*
X93175999Y-112945001D02*
X94488000Y-111633000D01*
X94488000Y-111633000D02*
X94488000Y-111633000D01*
G04 #@! TO.N,Net-(J1-Pad22)*
X119888000Y-115824000D02*
X115951000Y-111887000D01*
X110744000Y-111887000D02*
X108331000Y-109474000D01*
X115951000Y-111887000D02*
X110744000Y-111887000D01*
G04 #@! TO.N,Net-(J1-Pad25)*
X82804000Y-114805767D02*
X90675767Y-106934000D01*
X82804000Y-115824000D02*
X82804000Y-114805767D01*
X115062000Y-104984550D02*
X115062000Y-104648000D01*
X113112550Y-106934000D02*
X115062000Y-104984550D01*
X90675767Y-106934000D02*
X113112550Y-106934000D01*
X115951000Y-105537000D02*
X115062000Y-104648000D01*
X115951000Y-109474000D02*
X115951000Y-105537000D01*
G04 #@! TD*
M02*
