M48
;DRILL file {KiCad 5.0.2+dfsg1-1~bpo9+1} date Do 20 Okt 2022 11:31:02 CEST
;FORMAT={-:-/ absolute / metric / decimal}
FMAT,2
METRIC,TZ
T1C0.400
T2C0.600
T3C0.800
T4C0.998
T5C1.000
T6C1.001
T7C4.000
%
G90
G05
T1
X86.499Y-76.708
X88.519Y-86.737
X91.059Y-85.725
X94.488Y-111.633
X131.826Y-81.661
X133.223Y-88.519
X133.223Y-96.139
X144.78Y-94.996
T2
X68.Y-116.
X68.879Y-113.879
X68.879Y-118.121
X71.Y-113.
X71.Y-119.
X73.121Y-113.879
X73.121Y-118.121
X74.Y-116.
X68.Y-76.
X68.879Y-73.879
X68.879Y-78.121
X71.Y-73.
X71.Y-79.
X73.121Y-73.879
X73.121Y-78.121
X74.Y-76.
X149.Y-76.
X149.879Y-73.879
X149.879Y-78.121
X152.Y-73.
X152.Y-79.
X154.121Y-73.879
X154.121Y-78.121
X155.Y-76.
X149.Y-116.
X149.879Y-113.879
X149.879Y-118.121
X152.Y-113.
X152.Y-119.
X154.121Y-113.879
X154.121Y-118.121
X155.Y-116.
T3
X68.58Y-93.472
X73.58Y-93.472
X84.806Y-100.494
X89.886Y-100.494
X90.424Y-73.914
X95.504Y-73.914
X68.58Y-84.836
X73.66Y-84.836
X137.922Y-92.837
X143.002Y-92.837
X80.264Y-115.824
X82.804Y-115.824
X85.344Y-115.824
X99.187Y-115.824
X101.727Y-115.824
X104.267Y-115.824
X89.916Y-115.824
X92.456Y-115.824
X94.996Y-115.824
X117.602Y-72.39
X117.602Y-80.01
X84.806Y-96.744
X89.886Y-96.744
X124.714Y-85.471
X129.794Y-85.471
X137.922Y-98.171
X143.002Y-98.171
X137.922Y-87.503
X143.002Y-87.503
X79.375Y-81.026
X84.375Y-81.026
X117.348Y-115.824
X119.888Y-115.824
X122.428Y-115.824
X108.077Y-115.824
X110.617Y-115.824
X113.157Y-115.824
X121.666Y-72.771
X121.666Y-75.311
X121.666Y-77.851
X121.666Y-80.391
X129.286Y-72.771
X129.286Y-75.311
X129.286Y-77.851
X129.286Y-80.391
T4
X112.522Y-104.648
X115.062Y-104.648
X117.602Y-104.648
X120.142Y-104.648
X122.682Y-104.648
X125.222Y-104.648
X127.762Y-104.648
T5
X135.89Y-82.042
X138.43Y-82.042
X140.97Y-82.042
X143.51Y-82.042
X146.05Y-82.042
X78.844Y-87.746
X81.384Y-87.746
X154.178Y-91.567
X154.178Y-94.107
X151.892Y-101.473
X151.892Y-104.013
X88.519Y-82.042
X91.059Y-82.042
X93.599Y-82.042
X96.139Y-82.042
X98.679Y-82.042
X101.219Y-82.042
X103.759Y-82.042
X106.299Y-82.042
X108.839Y-82.042
X111.379Y-82.042
X78.844Y-91.396
X81.384Y-91.396
X98.171Y-109.474
X100.711Y-109.474
X103.251Y-109.474
X105.791Y-109.474
X108.331Y-109.474
X110.871Y-109.474
X113.411Y-109.474
X115.951Y-109.474
X118.491Y-109.474
X101.473Y-73.914
X104.013Y-73.914
X106.553Y-73.914
X109.093Y-73.914
X111.633Y-73.914
T6
X92.202Y-89.408
X92.202Y-104.648
X94.742Y-89.408
X94.742Y-104.648
X97.282Y-89.408
X97.282Y-104.648
X99.822Y-89.408
X99.822Y-104.648
X102.362Y-89.408
X102.362Y-104.648
X104.902Y-89.408
X104.902Y-104.648
X107.442Y-89.408
X107.442Y-104.648
X109.982Y-89.408
X109.982Y-104.648
X112.522Y-89.408
X115.062Y-89.408
X117.602Y-89.408
X120.142Y-89.408
X122.682Y-89.408
X125.222Y-89.408
X127.762Y-89.408
T7
X71.Y-116.
X71.Y-76.
X152.Y-76.
X152.Y-116.
T5
X69.088Y-104.132G85X69.088Y-103.132
G05
X71.488Y-102.132G85X71.488Y-101.132
G05
X76.988Y-102.132G85X76.988Y-101.132
G05
X134.746Y-113.348G85X134.746Y-115.348
G05
X140.446Y-111.348G85X138.446Y-111.348
G05
X140.446Y-117.348G85X138.446Y-117.348
G05
T0
M30
