G04 #@! TF.GenerationSoftware,KiCad,Pcbnew,5.0.2+dfsg1-1~bpo9+1*
G04 #@! TF.CreationDate,2022-10-20T11:28:44+02:00*
G04 #@! TF.ProjectId,nanosynth,6e616e6f-7379-46e7-9468-2e6b69636164,V.01*
G04 #@! TF.SameCoordinates,Original*
G04 #@! TF.FileFunction,Soldermask,Bot*
G04 #@! TF.FilePolarity,Negative*
%FSLAX46Y46*%
G04 Gerber Fmt 4.6, Leading zero omitted, Abs format (unit mm)*
G04 Created by KiCad (PCBNEW 5.0.2+dfsg1-1~bpo9+1) date Do 20 Okt 2022 11:28:44 CEST*
%MOMM*%
%LPD*%
G01*
G04 APERTURE LIST*
%ADD10C,0.100000*%
G04 APERTURE END LIST*
D10*
G36*
X153166757Y-112153718D02*
X153894710Y-112455246D01*
X154465152Y-112836403D01*
X154549854Y-112892999D01*
X155107001Y-113450146D01*
X155107003Y-113450149D01*
X155544754Y-114105290D01*
X155846282Y-114833243D01*
X155905643Y-115131669D01*
X156000000Y-115606033D01*
X156000000Y-116393967D01*
X155992294Y-116432706D01*
X155846282Y-117166757D01*
X155544754Y-117894710D01*
X155201666Y-118408178D01*
X155107001Y-118549854D01*
X154549854Y-119107001D01*
X154549851Y-119107003D01*
X153894710Y-119544754D01*
X153166757Y-119846282D01*
X152780361Y-119923141D01*
X152393967Y-120000000D01*
X151606033Y-120000000D01*
X151219639Y-119923141D01*
X150833243Y-119846282D01*
X150105290Y-119544754D01*
X149450149Y-119107003D01*
X149450146Y-119107001D01*
X148892999Y-118549854D01*
X148798334Y-118408178D01*
X148455246Y-117894710D01*
X148153718Y-117166757D01*
X148007706Y-116432706D01*
X148000000Y-116393967D01*
X148000000Y-115606033D01*
X148094357Y-115131669D01*
X148153718Y-114833243D01*
X148455246Y-114105290D01*
X148892997Y-113450149D01*
X148892999Y-113450146D01*
X149450146Y-112892999D01*
X149534848Y-112836403D01*
X150105290Y-112455246D01*
X150833243Y-112153718D01*
X151606033Y-112000000D01*
X152393967Y-112000000D01*
X153166757Y-112153718D01*
X153166757Y-112153718D01*
G37*
G36*
X72166757Y-112153718D02*
X72894710Y-112455246D01*
X73465152Y-112836403D01*
X73549854Y-112892999D01*
X74107001Y-113450146D01*
X74107003Y-113450149D01*
X74544754Y-114105290D01*
X74846282Y-114833243D01*
X74905643Y-115131669D01*
X75000000Y-115606033D01*
X75000000Y-116393967D01*
X74992294Y-116432706D01*
X74846282Y-117166757D01*
X74544754Y-117894710D01*
X74201666Y-118408178D01*
X74107001Y-118549854D01*
X73549854Y-119107001D01*
X73549851Y-119107003D01*
X72894710Y-119544754D01*
X72166757Y-119846282D01*
X71780361Y-119923141D01*
X71393967Y-120000000D01*
X70606033Y-120000000D01*
X70219639Y-119923141D01*
X69833243Y-119846282D01*
X69105290Y-119544754D01*
X68450149Y-119107003D01*
X68450146Y-119107001D01*
X67892999Y-118549854D01*
X67798334Y-118408178D01*
X67455246Y-117894710D01*
X67153718Y-117166757D01*
X67007706Y-116432706D01*
X67000000Y-116393967D01*
X67000000Y-115606033D01*
X67094357Y-115131669D01*
X67153718Y-114833243D01*
X67455246Y-114105290D01*
X67892997Y-113450149D01*
X67892999Y-113450146D01*
X68450146Y-112892999D01*
X68534848Y-112836403D01*
X69105290Y-112455246D01*
X69833243Y-112153718D01*
X70606033Y-112000000D01*
X71393967Y-112000000D01*
X72166757Y-112153718D01*
X72166757Y-112153718D01*
G37*
G36*
X141196000Y-119098000D02*
X137696000Y-119098000D01*
X137696000Y-115598000D01*
X141196000Y-115598000D01*
X141196000Y-119098000D01*
X141196000Y-119098000D01*
G37*
G36*
X90126015Y-115131668D02*
X90257049Y-115185944D01*
X90374975Y-115264740D01*
X90475260Y-115365025D01*
X90554056Y-115482951D01*
X90608332Y-115613985D01*
X90636000Y-115753085D01*
X90636000Y-115894915D01*
X90608332Y-116034015D01*
X90554056Y-116165049D01*
X90475260Y-116282975D01*
X90374975Y-116383260D01*
X90257049Y-116462056D01*
X90126015Y-116516332D01*
X89986915Y-116544000D01*
X89845085Y-116544000D01*
X89705985Y-116516332D01*
X89574951Y-116462056D01*
X89457025Y-116383260D01*
X89356740Y-116282975D01*
X89277944Y-116165049D01*
X89223668Y-116034015D01*
X89196000Y-115894915D01*
X89196000Y-115753085D01*
X89223668Y-115613985D01*
X89277944Y-115482951D01*
X89356740Y-115365025D01*
X89457025Y-115264740D01*
X89574951Y-115185944D01*
X89705985Y-115131668D01*
X89845085Y-115104000D01*
X89986915Y-115104000D01*
X90126015Y-115131668D01*
X90126015Y-115131668D01*
G37*
G36*
X104477015Y-115131668D02*
X104608049Y-115185944D01*
X104725975Y-115264740D01*
X104826260Y-115365025D01*
X104905056Y-115482951D01*
X104959332Y-115613985D01*
X104987000Y-115753085D01*
X104987000Y-115894915D01*
X104959332Y-116034015D01*
X104905056Y-116165049D01*
X104826260Y-116282975D01*
X104725975Y-116383260D01*
X104608049Y-116462056D01*
X104477015Y-116516332D01*
X104337915Y-116544000D01*
X104196085Y-116544000D01*
X104056985Y-116516332D01*
X103925951Y-116462056D01*
X103808025Y-116383260D01*
X103707740Y-116282975D01*
X103628944Y-116165049D01*
X103574668Y-116034015D01*
X103547000Y-115894915D01*
X103547000Y-115753085D01*
X103574668Y-115613985D01*
X103628944Y-115482951D01*
X103707740Y-115365025D01*
X103808025Y-115264740D01*
X103925951Y-115185944D01*
X104056985Y-115131668D01*
X104196085Y-115104000D01*
X104337915Y-115104000D01*
X104477015Y-115131668D01*
X104477015Y-115131668D01*
G37*
G36*
X101937015Y-115131668D02*
X102068049Y-115185944D01*
X102185975Y-115264740D01*
X102286260Y-115365025D01*
X102365056Y-115482951D01*
X102419332Y-115613985D01*
X102447000Y-115753085D01*
X102447000Y-115894915D01*
X102419332Y-116034015D01*
X102365056Y-116165049D01*
X102286260Y-116282975D01*
X102185975Y-116383260D01*
X102068049Y-116462056D01*
X101937015Y-116516332D01*
X101797915Y-116544000D01*
X101656085Y-116544000D01*
X101516985Y-116516332D01*
X101385951Y-116462056D01*
X101268025Y-116383260D01*
X101167740Y-116282975D01*
X101088944Y-116165049D01*
X101034668Y-116034015D01*
X101007000Y-115894915D01*
X101007000Y-115753085D01*
X101034668Y-115613985D01*
X101088944Y-115482951D01*
X101167740Y-115365025D01*
X101268025Y-115264740D01*
X101385951Y-115185944D01*
X101516985Y-115131668D01*
X101656085Y-115104000D01*
X101797915Y-115104000D01*
X101937015Y-115131668D01*
X101937015Y-115131668D01*
G37*
G36*
X99397015Y-115131668D02*
X99528049Y-115185944D01*
X99645975Y-115264740D01*
X99746260Y-115365025D01*
X99825056Y-115482951D01*
X99879332Y-115613985D01*
X99907000Y-115753085D01*
X99907000Y-115894915D01*
X99879332Y-116034015D01*
X99825056Y-116165049D01*
X99746260Y-116282975D01*
X99645975Y-116383260D01*
X99528049Y-116462056D01*
X99397015Y-116516332D01*
X99257915Y-116544000D01*
X99116085Y-116544000D01*
X98976985Y-116516332D01*
X98845951Y-116462056D01*
X98728025Y-116383260D01*
X98627740Y-116282975D01*
X98548944Y-116165049D01*
X98494668Y-116034015D01*
X98467000Y-115894915D01*
X98467000Y-115753085D01*
X98494668Y-115613985D01*
X98548944Y-115482951D01*
X98627740Y-115365025D01*
X98728025Y-115264740D01*
X98845951Y-115185944D01*
X98976985Y-115131668D01*
X99116085Y-115104000D01*
X99257915Y-115104000D01*
X99397015Y-115131668D01*
X99397015Y-115131668D01*
G37*
G36*
X108287015Y-115131668D02*
X108418049Y-115185944D01*
X108535975Y-115264740D01*
X108636260Y-115365025D01*
X108715056Y-115482951D01*
X108769332Y-115613985D01*
X108797000Y-115753085D01*
X108797000Y-115894915D01*
X108769332Y-116034015D01*
X108715056Y-116165049D01*
X108636260Y-116282975D01*
X108535975Y-116383260D01*
X108418049Y-116462056D01*
X108287015Y-116516332D01*
X108147915Y-116544000D01*
X108006085Y-116544000D01*
X107866985Y-116516332D01*
X107735951Y-116462056D01*
X107618025Y-116383260D01*
X107517740Y-116282975D01*
X107438944Y-116165049D01*
X107384668Y-116034015D01*
X107357000Y-115894915D01*
X107357000Y-115753085D01*
X107384668Y-115613985D01*
X107438944Y-115482951D01*
X107517740Y-115365025D01*
X107618025Y-115264740D01*
X107735951Y-115185944D01*
X107866985Y-115131668D01*
X108006085Y-115104000D01*
X108147915Y-115104000D01*
X108287015Y-115131668D01*
X108287015Y-115131668D01*
G37*
G36*
X110827015Y-115131668D02*
X110958049Y-115185944D01*
X111075975Y-115264740D01*
X111176260Y-115365025D01*
X111255056Y-115482951D01*
X111309332Y-115613985D01*
X111337000Y-115753085D01*
X111337000Y-115894915D01*
X111309332Y-116034015D01*
X111255056Y-116165049D01*
X111176260Y-116282975D01*
X111075975Y-116383260D01*
X110958049Y-116462056D01*
X110827015Y-116516332D01*
X110687915Y-116544000D01*
X110546085Y-116544000D01*
X110406985Y-116516332D01*
X110275951Y-116462056D01*
X110158025Y-116383260D01*
X110057740Y-116282975D01*
X109978944Y-116165049D01*
X109924668Y-116034015D01*
X109897000Y-115894915D01*
X109897000Y-115753085D01*
X109924668Y-115613985D01*
X109978944Y-115482951D01*
X110057740Y-115365025D01*
X110158025Y-115264740D01*
X110275951Y-115185944D01*
X110406985Y-115131668D01*
X110546085Y-115104000D01*
X110687915Y-115104000D01*
X110827015Y-115131668D01*
X110827015Y-115131668D01*
G37*
G36*
X113367015Y-115131668D02*
X113498049Y-115185944D01*
X113615975Y-115264740D01*
X113716260Y-115365025D01*
X113795056Y-115482951D01*
X113849332Y-115613985D01*
X113877000Y-115753085D01*
X113877000Y-115894915D01*
X113849332Y-116034015D01*
X113795056Y-116165049D01*
X113716260Y-116282975D01*
X113615975Y-116383260D01*
X113498049Y-116462056D01*
X113367015Y-116516332D01*
X113227915Y-116544000D01*
X113086085Y-116544000D01*
X112946985Y-116516332D01*
X112815951Y-116462056D01*
X112698025Y-116383260D01*
X112597740Y-116282975D01*
X112518944Y-116165049D01*
X112464668Y-116034015D01*
X112437000Y-115894915D01*
X112437000Y-115753085D01*
X112464668Y-115613985D01*
X112518944Y-115482951D01*
X112597740Y-115365025D01*
X112698025Y-115264740D01*
X112815951Y-115185944D01*
X112946985Y-115131668D01*
X113086085Y-115104000D01*
X113227915Y-115104000D01*
X113367015Y-115131668D01*
X113367015Y-115131668D01*
G37*
G36*
X95206015Y-115131668D02*
X95337049Y-115185944D01*
X95454975Y-115264740D01*
X95555260Y-115365025D01*
X95634056Y-115482951D01*
X95688332Y-115613985D01*
X95716000Y-115753085D01*
X95716000Y-115894915D01*
X95688332Y-116034015D01*
X95634056Y-116165049D01*
X95555260Y-116282975D01*
X95454975Y-116383260D01*
X95337049Y-116462056D01*
X95206015Y-116516332D01*
X95066915Y-116544000D01*
X94925085Y-116544000D01*
X94785985Y-116516332D01*
X94654951Y-116462056D01*
X94537025Y-116383260D01*
X94436740Y-116282975D01*
X94357944Y-116165049D01*
X94303668Y-116034015D01*
X94276000Y-115894915D01*
X94276000Y-115753085D01*
X94303668Y-115613985D01*
X94357944Y-115482951D01*
X94436740Y-115365025D01*
X94537025Y-115264740D01*
X94654951Y-115185944D01*
X94785985Y-115131668D01*
X94925085Y-115104000D01*
X95066915Y-115104000D01*
X95206015Y-115131668D01*
X95206015Y-115131668D01*
G37*
G36*
X80474015Y-115131668D02*
X80605049Y-115185944D01*
X80722975Y-115264740D01*
X80823260Y-115365025D01*
X80902056Y-115482951D01*
X80956332Y-115613985D01*
X80984000Y-115753085D01*
X80984000Y-115894915D01*
X80956332Y-116034015D01*
X80902056Y-116165049D01*
X80823260Y-116282975D01*
X80722975Y-116383260D01*
X80605049Y-116462056D01*
X80474015Y-116516332D01*
X80334915Y-116544000D01*
X80193085Y-116544000D01*
X80053985Y-116516332D01*
X79922951Y-116462056D01*
X79805025Y-116383260D01*
X79704740Y-116282975D01*
X79625944Y-116165049D01*
X79571668Y-116034015D01*
X79544000Y-115894915D01*
X79544000Y-115753085D01*
X79571668Y-115613985D01*
X79625944Y-115482951D01*
X79704740Y-115365025D01*
X79805025Y-115264740D01*
X79922951Y-115185944D01*
X80053985Y-115131668D01*
X80193085Y-115104000D01*
X80334915Y-115104000D01*
X80474015Y-115131668D01*
X80474015Y-115131668D01*
G37*
G36*
X117558015Y-115131668D02*
X117689049Y-115185944D01*
X117806975Y-115264740D01*
X117907260Y-115365025D01*
X117986056Y-115482951D01*
X118040332Y-115613985D01*
X118068000Y-115753085D01*
X118068000Y-115894915D01*
X118040332Y-116034015D01*
X117986056Y-116165049D01*
X117907260Y-116282975D01*
X117806975Y-116383260D01*
X117689049Y-116462056D01*
X117558015Y-116516332D01*
X117418915Y-116544000D01*
X117277085Y-116544000D01*
X117137985Y-116516332D01*
X117006951Y-116462056D01*
X116889025Y-116383260D01*
X116788740Y-116282975D01*
X116709944Y-116165049D01*
X116655668Y-116034015D01*
X116628000Y-115894915D01*
X116628000Y-115753085D01*
X116655668Y-115613985D01*
X116709944Y-115482951D01*
X116788740Y-115365025D01*
X116889025Y-115264740D01*
X117006951Y-115185944D01*
X117137985Y-115131668D01*
X117277085Y-115104000D01*
X117418915Y-115104000D01*
X117558015Y-115131668D01*
X117558015Y-115131668D01*
G37*
G36*
X120098015Y-115131668D02*
X120229049Y-115185944D01*
X120346975Y-115264740D01*
X120447260Y-115365025D01*
X120526056Y-115482951D01*
X120580332Y-115613985D01*
X120608000Y-115753085D01*
X120608000Y-115894915D01*
X120580332Y-116034015D01*
X120526056Y-116165049D01*
X120447260Y-116282975D01*
X120346975Y-116383260D01*
X120229049Y-116462056D01*
X120098015Y-116516332D01*
X119958915Y-116544000D01*
X119817085Y-116544000D01*
X119677985Y-116516332D01*
X119546951Y-116462056D01*
X119429025Y-116383260D01*
X119328740Y-116282975D01*
X119249944Y-116165049D01*
X119195668Y-116034015D01*
X119168000Y-115894915D01*
X119168000Y-115753085D01*
X119195668Y-115613985D01*
X119249944Y-115482951D01*
X119328740Y-115365025D01*
X119429025Y-115264740D01*
X119546951Y-115185944D01*
X119677985Y-115131668D01*
X119817085Y-115104000D01*
X119958915Y-115104000D01*
X120098015Y-115131668D01*
X120098015Y-115131668D01*
G37*
G36*
X122638015Y-115131668D02*
X122769049Y-115185944D01*
X122886975Y-115264740D01*
X122987260Y-115365025D01*
X123066056Y-115482951D01*
X123120332Y-115613985D01*
X123148000Y-115753085D01*
X123148000Y-115894915D01*
X123120332Y-116034015D01*
X123066056Y-116165049D01*
X122987260Y-116282975D01*
X122886975Y-116383260D01*
X122769049Y-116462056D01*
X122638015Y-116516332D01*
X122498915Y-116544000D01*
X122357085Y-116544000D01*
X122217985Y-116516332D01*
X122086951Y-116462056D01*
X121969025Y-116383260D01*
X121868740Y-116282975D01*
X121789944Y-116165049D01*
X121735668Y-116034015D01*
X121708000Y-115894915D01*
X121708000Y-115753085D01*
X121735668Y-115613985D01*
X121789944Y-115482951D01*
X121868740Y-115365025D01*
X121969025Y-115264740D01*
X122086951Y-115185944D01*
X122217985Y-115131668D01*
X122357085Y-115104000D01*
X122498915Y-115104000D01*
X122638015Y-115131668D01*
X122638015Y-115131668D01*
G37*
G36*
X85554015Y-115131668D02*
X85685049Y-115185944D01*
X85802975Y-115264740D01*
X85903260Y-115365025D01*
X85982056Y-115482951D01*
X86036332Y-115613985D01*
X86064000Y-115753085D01*
X86064000Y-115894915D01*
X86036332Y-116034015D01*
X85982056Y-116165049D01*
X85903260Y-116282975D01*
X85802975Y-116383260D01*
X85685049Y-116462056D01*
X85554015Y-116516332D01*
X85414915Y-116544000D01*
X85273085Y-116544000D01*
X85133985Y-116516332D01*
X85002951Y-116462056D01*
X84885025Y-116383260D01*
X84784740Y-116282975D01*
X84705944Y-116165049D01*
X84651668Y-116034015D01*
X84624000Y-115894915D01*
X84624000Y-115753085D01*
X84651668Y-115613985D01*
X84705944Y-115482951D01*
X84784740Y-115365025D01*
X84885025Y-115264740D01*
X85002951Y-115185944D01*
X85133985Y-115131668D01*
X85273085Y-115104000D01*
X85414915Y-115104000D01*
X85554015Y-115131668D01*
X85554015Y-115131668D01*
G37*
G36*
X83014015Y-115131668D02*
X83145049Y-115185944D01*
X83262975Y-115264740D01*
X83363260Y-115365025D01*
X83442056Y-115482951D01*
X83496332Y-115613985D01*
X83524000Y-115753085D01*
X83524000Y-115894915D01*
X83496332Y-116034015D01*
X83442056Y-116165049D01*
X83363260Y-116282975D01*
X83262975Y-116383260D01*
X83145049Y-116462056D01*
X83014015Y-116516332D01*
X82874915Y-116544000D01*
X82733085Y-116544000D01*
X82593985Y-116516332D01*
X82462951Y-116462056D01*
X82345025Y-116383260D01*
X82244740Y-116282975D01*
X82165944Y-116165049D01*
X82111668Y-116034015D01*
X82084000Y-115894915D01*
X82084000Y-115753085D01*
X82111668Y-115613985D01*
X82165944Y-115482951D01*
X82244740Y-115365025D01*
X82345025Y-115264740D01*
X82462951Y-115185944D01*
X82593985Y-115131668D01*
X82733085Y-115104000D01*
X82874915Y-115104000D01*
X83014015Y-115131668D01*
X83014015Y-115131668D01*
G37*
G36*
X92666015Y-115131668D02*
X92797049Y-115185944D01*
X92914975Y-115264740D01*
X93015260Y-115365025D01*
X93094056Y-115482951D01*
X93148332Y-115613985D01*
X93176000Y-115753085D01*
X93176000Y-115894915D01*
X93148332Y-116034015D01*
X93094056Y-116165049D01*
X93015260Y-116282975D01*
X92914975Y-116383260D01*
X92797049Y-116462056D01*
X92666015Y-116516332D01*
X92526915Y-116544000D01*
X92385085Y-116544000D01*
X92245985Y-116516332D01*
X92114951Y-116462056D01*
X91997025Y-116383260D01*
X91896740Y-116282975D01*
X91817944Y-116165049D01*
X91763668Y-116034015D01*
X91736000Y-115894915D01*
X91736000Y-115753085D01*
X91763668Y-115613985D01*
X91817944Y-115482951D01*
X91896740Y-115365025D01*
X91997025Y-115264740D01*
X92114951Y-115185944D01*
X92245985Y-115131668D01*
X92385085Y-115104000D01*
X92526915Y-115104000D01*
X92666015Y-115131668D01*
X92666015Y-115131668D01*
G37*
G36*
X135841891Y-112614205D02*
X135994200Y-112660407D01*
X136134567Y-112735435D01*
X136257597Y-112836403D01*
X136358565Y-112959433D01*
X136433593Y-113099800D01*
X136479795Y-113252109D01*
X136496000Y-113416640D01*
X136496000Y-115279360D01*
X136479795Y-115443891D01*
X136433593Y-115596200D01*
X136358565Y-115736567D01*
X136257597Y-115859597D01*
X136134567Y-115960565D01*
X135994200Y-116035593D01*
X135841891Y-116081795D01*
X135677360Y-116098000D01*
X133814640Y-116098000D01*
X133650109Y-116081795D01*
X133497800Y-116035593D01*
X133357433Y-115960565D01*
X133234403Y-115859597D01*
X133133435Y-115736567D01*
X133058407Y-115596200D01*
X133012205Y-115443891D01*
X132996000Y-115279360D01*
X132996000Y-113416640D01*
X133012205Y-113252109D01*
X133058407Y-113099800D01*
X133133435Y-112959433D01*
X133234403Y-112836403D01*
X133357433Y-112735435D01*
X133497800Y-112660407D01*
X133650109Y-112614205D01*
X133814640Y-112598000D01*
X135677360Y-112598000D01*
X135841891Y-112614205D01*
X135841891Y-112614205D01*
G37*
G36*
X140642508Y-109861803D02*
X140771363Y-109900891D01*
X140890119Y-109964367D01*
X140994208Y-110049792D01*
X141079633Y-110153881D01*
X141143109Y-110272637D01*
X141182197Y-110401492D01*
X141196000Y-110541640D01*
X141196000Y-112154360D01*
X141182197Y-112294508D01*
X141143109Y-112423363D01*
X141079633Y-112542119D01*
X140994208Y-112646208D01*
X140890119Y-112731633D01*
X140771363Y-112795109D01*
X140642508Y-112834197D01*
X140502360Y-112848000D01*
X138389640Y-112848000D01*
X138249492Y-112834197D01*
X138120637Y-112795109D01*
X138001881Y-112731633D01*
X137897792Y-112646208D01*
X137812367Y-112542119D01*
X137748891Y-112423363D01*
X137709803Y-112294508D01*
X137696000Y-112154360D01*
X137696000Y-110541640D01*
X137709803Y-110401492D01*
X137748891Y-110272637D01*
X137812367Y-110153881D01*
X137897792Y-110049792D01*
X138001881Y-109964367D01*
X138120637Y-109900891D01*
X138249492Y-109861803D01*
X138389640Y-109848000D01*
X140502360Y-109848000D01*
X140642508Y-109861803D01*
X140642508Y-109861803D01*
G37*
G36*
X116117630Y-108636299D02*
X116277855Y-108684903D01*
X116425520Y-108763831D01*
X116554949Y-108870051D01*
X116661169Y-108999480D01*
X116740097Y-109147145D01*
X116788701Y-109307370D01*
X116805112Y-109474000D01*
X116788701Y-109640630D01*
X116740097Y-109800855D01*
X116661169Y-109948520D01*
X116554949Y-110077949D01*
X116425520Y-110184169D01*
X116277855Y-110263097D01*
X116117630Y-110311701D01*
X115992752Y-110324000D01*
X115909248Y-110324000D01*
X115784370Y-110311701D01*
X115624145Y-110263097D01*
X115476480Y-110184169D01*
X115347051Y-110077949D01*
X115240831Y-109948520D01*
X115161903Y-109800855D01*
X115113299Y-109640630D01*
X115096888Y-109474000D01*
X115113299Y-109307370D01*
X115161903Y-109147145D01*
X115240831Y-108999480D01*
X115347051Y-108870051D01*
X115476480Y-108763831D01*
X115624145Y-108684903D01*
X115784370Y-108636299D01*
X115909248Y-108624000D01*
X115992752Y-108624000D01*
X116117630Y-108636299D01*
X116117630Y-108636299D01*
G37*
G36*
X98337630Y-108636299D02*
X98497855Y-108684903D01*
X98645520Y-108763831D01*
X98774949Y-108870051D01*
X98881169Y-108999480D01*
X98960097Y-109147145D01*
X99008701Y-109307370D01*
X99025112Y-109474000D01*
X99008701Y-109640630D01*
X98960097Y-109800855D01*
X98881169Y-109948520D01*
X98774949Y-110077949D01*
X98645520Y-110184169D01*
X98497855Y-110263097D01*
X98337630Y-110311701D01*
X98212752Y-110324000D01*
X98129248Y-110324000D01*
X98004370Y-110311701D01*
X97844145Y-110263097D01*
X97696480Y-110184169D01*
X97567051Y-110077949D01*
X97460831Y-109948520D01*
X97381903Y-109800855D01*
X97333299Y-109640630D01*
X97316888Y-109474000D01*
X97333299Y-109307370D01*
X97381903Y-109147145D01*
X97460831Y-108999480D01*
X97567051Y-108870051D01*
X97696480Y-108763831D01*
X97844145Y-108684903D01*
X98004370Y-108636299D01*
X98129248Y-108624000D01*
X98212752Y-108624000D01*
X98337630Y-108636299D01*
X98337630Y-108636299D01*
G37*
G36*
X100877630Y-108636299D02*
X101037855Y-108684903D01*
X101185520Y-108763831D01*
X101314949Y-108870051D01*
X101421169Y-108999480D01*
X101500097Y-109147145D01*
X101548701Y-109307370D01*
X101565112Y-109474000D01*
X101548701Y-109640630D01*
X101500097Y-109800855D01*
X101421169Y-109948520D01*
X101314949Y-110077949D01*
X101185520Y-110184169D01*
X101037855Y-110263097D01*
X100877630Y-110311701D01*
X100752752Y-110324000D01*
X100669248Y-110324000D01*
X100544370Y-110311701D01*
X100384145Y-110263097D01*
X100236480Y-110184169D01*
X100107051Y-110077949D01*
X100000831Y-109948520D01*
X99921903Y-109800855D01*
X99873299Y-109640630D01*
X99856888Y-109474000D01*
X99873299Y-109307370D01*
X99921903Y-109147145D01*
X100000831Y-108999480D01*
X100107051Y-108870051D01*
X100236480Y-108763831D01*
X100384145Y-108684903D01*
X100544370Y-108636299D01*
X100669248Y-108624000D01*
X100752752Y-108624000D01*
X100877630Y-108636299D01*
X100877630Y-108636299D01*
G37*
G36*
X103417630Y-108636299D02*
X103577855Y-108684903D01*
X103725520Y-108763831D01*
X103854949Y-108870051D01*
X103961169Y-108999480D01*
X104040097Y-109147145D01*
X104088701Y-109307370D01*
X104105112Y-109474000D01*
X104088701Y-109640630D01*
X104040097Y-109800855D01*
X103961169Y-109948520D01*
X103854949Y-110077949D01*
X103725520Y-110184169D01*
X103577855Y-110263097D01*
X103417630Y-110311701D01*
X103292752Y-110324000D01*
X103209248Y-110324000D01*
X103084370Y-110311701D01*
X102924145Y-110263097D01*
X102776480Y-110184169D01*
X102647051Y-110077949D01*
X102540831Y-109948520D01*
X102461903Y-109800855D01*
X102413299Y-109640630D01*
X102396888Y-109474000D01*
X102413299Y-109307370D01*
X102461903Y-109147145D01*
X102540831Y-108999480D01*
X102647051Y-108870051D01*
X102776480Y-108763831D01*
X102924145Y-108684903D01*
X103084370Y-108636299D01*
X103209248Y-108624000D01*
X103292752Y-108624000D01*
X103417630Y-108636299D01*
X103417630Y-108636299D01*
G37*
G36*
X105957630Y-108636299D02*
X106117855Y-108684903D01*
X106265520Y-108763831D01*
X106394949Y-108870051D01*
X106501169Y-108999480D01*
X106580097Y-109147145D01*
X106628701Y-109307370D01*
X106645112Y-109474000D01*
X106628701Y-109640630D01*
X106580097Y-109800855D01*
X106501169Y-109948520D01*
X106394949Y-110077949D01*
X106265520Y-110184169D01*
X106117855Y-110263097D01*
X105957630Y-110311701D01*
X105832752Y-110324000D01*
X105749248Y-110324000D01*
X105624370Y-110311701D01*
X105464145Y-110263097D01*
X105316480Y-110184169D01*
X105187051Y-110077949D01*
X105080831Y-109948520D01*
X105001903Y-109800855D01*
X104953299Y-109640630D01*
X104936888Y-109474000D01*
X104953299Y-109307370D01*
X105001903Y-109147145D01*
X105080831Y-108999480D01*
X105187051Y-108870051D01*
X105316480Y-108763831D01*
X105464145Y-108684903D01*
X105624370Y-108636299D01*
X105749248Y-108624000D01*
X105832752Y-108624000D01*
X105957630Y-108636299D01*
X105957630Y-108636299D01*
G37*
G36*
X108497630Y-108636299D02*
X108657855Y-108684903D01*
X108805520Y-108763831D01*
X108934949Y-108870051D01*
X109041169Y-108999480D01*
X109120097Y-109147145D01*
X109168701Y-109307370D01*
X109185112Y-109474000D01*
X109168701Y-109640630D01*
X109120097Y-109800855D01*
X109041169Y-109948520D01*
X108934949Y-110077949D01*
X108805520Y-110184169D01*
X108657855Y-110263097D01*
X108497630Y-110311701D01*
X108372752Y-110324000D01*
X108289248Y-110324000D01*
X108164370Y-110311701D01*
X108004145Y-110263097D01*
X107856480Y-110184169D01*
X107727051Y-110077949D01*
X107620831Y-109948520D01*
X107541903Y-109800855D01*
X107493299Y-109640630D01*
X107476888Y-109474000D01*
X107493299Y-109307370D01*
X107541903Y-109147145D01*
X107620831Y-108999480D01*
X107727051Y-108870051D01*
X107856480Y-108763831D01*
X108004145Y-108684903D01*
X108164370Y-108636299D01*
X108289248Y-108624000D01*
X108372752Y-108624000D01*
X108497630Y-108636299D01*
X108497630Y-108636299D01*
G37*
G36*
X111037630Y-108636299D02*
X111197855Y-108684903D01*
X111345520Y-108763831D01*
X111474949Y-108870051D01*
X111581169Y-108999480D01*
X111660097Y-109147145D01*
X111708701Y-109307370D01*
X111725112Y-109474000D01*
X111708701Y-109640630D01*
X111660097Y-109800855D01*
X111581169Y-109948520D01*
X111474949Y-110077949D01*
X111345520Y-110184169D01*
X111197855Y-110263097D01*
X111037630Y-110311701D01*
X110912752Y-110324000D01*
X110829248Y-110324000D01*
X110704370Y-110311701D01*
X110544145Y-110263097D01*
X110396480Y-110184169D01*
X110267051Y-110077949D01*
X110160831Y-109948520D01*
X110081903Y-109800855D01*
X110033299Y-109640630D01*
X110016888Y-109474000D01*
X110033299Y-109307370D01*
X110081903Y-109147145D01*
X110160831Y-108999480D01*
X110267051Y-108870051D01*
X110396480Y-108763831D01*
X110544145Y-108684903D01*
X110704370Y-108636299D01*
X110829248Y-108624000D01*
X110912752Y-108624000D01*
X111037630Y-108636299D01*
X111037630Y-108636299D01*
G37*
G36*
X113577630Y-108636299D02*
X113737855Y-108684903D01*
X113885520Y-108763831D01*
X114014949Y-108870051D01*
X114121169Y-108999480D01*
X114200097Y-109147145D01*
X114248701Y-109307370D01*
X114265112Y-109474000D01*
X114248701Y-109640630D01*
X114200097Y-109800855D01*
X114121169Y-109948520D01*
X114014949Y-110077949D01*
X113885520Y-110184169D01*
X113737855Y-110263097D01*
X113577630Y-110311701D01*
X113452752Y-110324000D01*
X113369248Y-110324000D01*
X113244370Y-110311701D01*
X113084145Y-110263097D01*
X112936480Y-110184169D01*
X112807051Y-110077949D01*
X112700831Y-109948520D01*
X112621903Y-109800855D01*
X112573299Y-109640630D01*
X112556888Y-109474000D01*
X112573299Y-109307370D01*
X112621903Y-109147145D01*
X112700831Y-108999480D01*
X112807051Y-108870051D01*
X112936480Y-108763831D01*
X113084145Y-108684903D01*
X113244370Y-108636299D01*
X113369248Y-108624000D01*
X113452752Y-108624000D01*
X113577630Y-108636299D01*
X113577630Y-108636299D01*
G37*
G36*
X119341000Y-110324000D02*
X117641000Y-110324000D01*
X117641000Y-108624000D01*
X119341000Y-108624000D01*
X119341000Y-110324000D01*
X119341000Y-110324000D01*
G37*
G36*
X99971378Y-103559206D02*
X100067136Y-103588254D01*
X100115016Y-103602778D01*
X100163299Y-103628586D01*
X100247392Y-103673535D01*
X100363422Y-103768758D01*
X100458645Y-103884788D01*
X100503594Y-103968881D01*
X100529402Y-104017164D01*
X100529788Y-104018437D01*
X100572974Y-104160802D01*
X100584000Y-104272754D01*
X100584000Y-105023246D01*
X100572974Y-105135198D01*
X100543926Y-105230956D01*
X100529402Y-105278836D01*
X100503594Y-105327119D01*
X100458645Y-105411212D01*
X100458643Y-105411214D01*
X100363425Y-105527239D01*
X100363423Y-105527240D01*
X100363422Y-105527242D01*
X100247391Y-105622465D01*
X100181203Y-105657843D01*
X100115015Y-105693222D01*
X100067135Y-105707746D01*
X99971377Y-105736794D01*
X99822000Y-105751506D01*
X99672622Y-105736794D01*
X99576864Y-105707746D01*
X99528984Y-105693222D01*
X99480701Y-105667414D01*
X99396608Y-105622465D01*
X99350196Y-105584376D01*
X99280581Y-105527245D01*
X99280580Y-105527243D01*
X99280578Y-105527242D01*
X99185355Y-105411211D01*
X99114599Y-105278836D01*
X99114598Y-105278835D01*
X99100074Y-105230955D01*
X99071026Y-105135197D01*
X99060000Y-105023245D01*
X99060000Y-104272754D01*
X99071026Y-104160802D01*
X99114213Y-104018437D01*
X99114598Y-104017167D01*
X99116825Y-104013000D01*
X99185356Y-103884788D01*
X99280579Y-103768758D01*
X99396609Y-103673535D01*
X99480702Y-103628586D01*
X99528985Y-103602778D01*
X99576865Y-103588254D01*
X99672623Y-103559206D01*
X99822000Y-103544494D01*
X99971378Y-103559206D01*
X99971378Y-103559206D01*
G37*
G36*
X97431378Y-103559206D02*
X97527136Y-103588254D01*
X97575016Y-103602778D01*
X97623299Y-103628586D01*
X97707392Y-103673535D01*
X97823422Y-103768758D01*
X97918645Y-103884788D01*
X97963594Y-103968881D01*
X97989402Y-104017164D01*
X97989788Y-104018437D01*
X98032974Y-104160802D01*
X98044000Y-104272754D01*
X98044000Y-105023246D01*
X98032974Y-105135198D01*
X98003926Y-105230956D01*
X97989402Y-105278836D01*
X97963594Y-105327119D01*
X97918645Y-105411212D01*
X97918643Y-105411214D01*
X97823425Y-105527239D01*
X97823423Y-105527240D01*
X97823422Y-105527242D01*
X97707391Y-105622465D01*
X97641203Y-105657843D01*
X97575015Y-105693222D01*
X97527135Y-105707746D01*
X97431377Y-105736794D01*
X97282000Y-105751506D01*
X97132622Y-105736794D01*
X97036864Y-105707746D01*
X96988984Y-105693222D01*
X96940701Y-105667414D01*
X96856608Y-105622465D01*
X96810196Y-105584376D01*
X96740581Y-105527245D01*
X96740580Y-105527243D01*
X96740578Y-105527242D01*
X96645355Y-105411211D01*
X96574599Y-105278836D01*
X96574598Y-105278835D01*
X96560074Y-105230955D01*
X96531026Y-105135197D01*
X96520000Y-105023245D01*
X96520000Y-104272754D01*
X96531026Y-104160802D01*
X96574213Y-104018437D01*
X96574598Y-104017167D01*
X96576825Y-104013000D01*
X96645356Y-103884788D01*
X96740579Y-103768758D01*
X96856609Y-103673535D01*
X96940702Y-103628586D01*
X96988985Y-103602778D01*
X97036865Y-103588254D01*
X97132623Y-103559206D01*
X97282000Y-103544494D01*
X97431378Y-103559206D01*
X97431378Y-103559206D01*
G37*
G36*
X92351378Y-103559206D02*
X92447136Y-103588254D01*
X92495016Y-103602778D01*
X92543299Y-103628586D01*
X92627392Y-103673535D01*
X92743422Y-103768758D01*
X92838645Y-103884788D01*
X92883594Y-103968881D01*
X92909402Y-104017164D01*
X92909788Y-104018437D01*
X92952974Y-104160802D01*
X92964000Y-104272754D01*
X92964000Y-105023246D01*
X92952974Y-105135198D01*
X92923926Y-105230956D01*
X92909402Y-105278836D01*
X92883594Y-105327119D01*
X92838645Y-105411212D01*
X92838643Y-105411214D01*
X92743425Y-105527239D01*
X92743423Y-105527240D01*
X92743422Y-105527242D01*
X92627391Y-105622465D01*
X92561203Y-105657843D01*
X92495015Y-105693222D01*
X92447135Y-105707746D01*
X92351377Y-105736794D01*
X92202000Y-105751506D01*
X92052622Y-105736794D01*
X91956864Y-105707746D01*
X91908984Y-105693222D01*
X91860701Y-105667414D01*
X91776608Y-105622465D01*
X91730196Y-105584376D01*
X91660581Y-105527245D01*
X91660580Y-105527243D01*
X91660578Y-105527242D01*
X91565355Y-105411211D01*
X91494599Y-105278836D01*
X91494598Y-105278835D01*
X91480074Y-105230955D01*
X91451026Y-105135197D01*
X91440000Y-105023245D01*
X91440000Y-104272754D01*
X91451026Y-104160802D01*
X91494213Y-104018437D01*
X91494598Y-104017167D01*
X91496825Y-104013000D01*
X91565356Y-103884788D01*
X91660579Y-103768758D01*
X91776609Y-103673535D01*
X91860702Y-103628586D01*
X91908985Y-103602778D01*
X91956865Y-103588254D01*
X92052623Y-103559206D01*
X92202000Y-103544494D01*
X92351378Y-103559206D01*
X92351378Y-103559206D01*
G37*
G36*
X94891378Y-103559206D02*
X94987136Y-103588254D01*
X95035016Y-103602778D01*
X95083299Y-103628586D01*
X95167392Y-103673535D01*
X95283422Y-103768758D01*
X95378645Y-103884788D01*
X95423594Y-103968881D01*
X95449402Y-104017164D01*
X95449788Y-104018437D01*
X95492974Y-104160802D01*
X95504000Y-104272754D01*
X95504000Y-105023246D01*
X95492974Y-105135198D01*
X95463926Y-105230956D01*
X95449402Y-105278836D01*
X95423594Y-105327119D01*
X95378645Y-105411212D01*
X95378643Y-105411214D01*
X95283425Y-105527239D01*
X95283423Y-105527240D01*
X95283422Y-105527242D01*
X95167391Y-105622465D01*
X95101203Y-105657843D01*
X95035015Y-105693222D01*
X94987135Y-105707746D01*
X94891377Y-105736794D01*
X94742000Y-105751506D01*
X94592622Y-105736794D01*
X94496864Y-105707746D01*
X94448984Y-105693222D01*
X94400701Y-105667414D01*
X94316608Y-105622465D01*
X94270196Y-105584376D01*
X94200581Y-105527245D01*
X94200580Y-105527243D01*
X94200578Y-105527242D01*
X94105355Y-105411211D01*
X94034599Y-105278836D01*
X94034598Y-105278835D01*
X94020074Y-105230955D01*
X93991026Y-105135197D01*
X93980000Y-105023245D01*
X93980000Y-104272754D01*
X93991026Y-104160802D01*
X94034213Y-104018437D01*
X94034598Y-104017167D01*
X94036825Y-104013000D01*
X94105356Y-103884788D01*
X94200579Y-103768758D01*
X94316609Y-103673535D01*
X94400702Y-103628586D01*
X94448985Y-103602778D01*
X94496865Y-103588254D01*
X94592623Y-103559206D01*
X94742000Y-103544494D01*
X94891378Y-103559206D01*
X94891378Y-103559206D01*
G37*
G36*
X102511378Y-103560476D02*
X102607136Y-103589524D01*
X102655016Y-103604048D01*
X102703299Y-103629856D01*
X102787392Y-103674805D01*
X102903422Y-103770028D01*
X102998645Y-103886058D01*
X103043594Y-103970151D01*
X103069402Y-104018434D01*
X103069402Y-104018435D01*
X103112974Y-104162072D01*
X103124000Y-104274024D01*
X103124000Y-105021976D01*
X103112974Y-105133928D01*
X103083926Y-105229686D01*
X103069402Y-105277566D01*
X103068723Y-105278836D01*
X102998645Y-105409942D01*
X102997601Y-105411214D01*
X102903425Y-105525969D01*
X102903423Y-105525970D01*
X102903422Y-105525972D01*
X102787391Y-105621195D01*
X102721203Y-105656573D01*
X102655015Y-105691952D01*
X102607135Y-105706476D01*
X102511377Y-105735524D01*
X102362000Y-105750236D01*
X102212622Y-105735524D01*
X102116864Y-105706476D01*
X102068984Y-105691952D01*
X102020701Y-105666144D01*
X101936608Y-105621195D01*
X101822129Y-105527245D01*
X101820581Y-105525975D01*
X101820580Y-105525973D01*
X101820578Y-105525972D01*
X101725355Y-105409941D01*
X101689976Y-105343752D01*
X101654598Y-105277565D01*
X101611412Y-105135198D01*
X101611026Y-105133927D01*
X101600000Y-105021975D01*
X101600000Y-104274024D01*
X101611026Y-104162072D01*
X101611026Y-104162071D01*
X101654598Y-104018437D01*
X101657504Y-104013000D01*
X101725356Y-103886058D01*
X101820579Y-103770028D01*
X101936609Y-103674805D01*
X102020702Y-103629856D01*
X102068985Y-103604048D01*
X102116865Y-103589524D01*
X102212623Y-103560476D01*
X102362000Y-103545764D01*
X102511378Y-103560476D01*
X102511378Y-103560476D01*
G37*
G36*
X105051378Y-103560476D02*
X105147136Y-103589524D01*
X105195016Y-103604048D01*
X105243299Y-103629856D01*
X105327392Y-103674805D01*
X105443422Y-103770028D01*
X105538645Y-103886058D01*
X105583594Y-103970151D01*
X105609402Y-104018434D01*
X105609402Y-104018435D01*
X105652974Y-104162072D01*
X105664000Y-104274024D01*
X105664000Y-105021976D01*
X105652974Y-105133928D01*
X105623926Y-105229686D01*
X105609402Y-105277566D01*
X105608723Y-105278836D01*
X105538645Y-105409942D01*
X105537601Y-105411214D01*
X105443425Y-105525969D01*
X105443423Y-105525970D01*
X105443422Y-105525972D01*
X105327391Y-105621195D01*
X105261203Y-105656573D01*
X105195015Y-105691952D01*
X105147135Y-105706476D01*
X105051377Y-105735524D01*
X104902000Y-105750236D01*
X104752622Y-105735524D01*
X104656864Y-105706476D01*
X104608984Y-105691952D01*
X104560701Y-105666144D01*
X104476608Y-105621195D01*
X104362129Y-105527245D01*
X104360581Y-105525975D01*
X104360580Y-105525973D01*
X104360578Y-105525972D01*
X104265355Y-105409941D01*
X104229976Y-105343752D01*
X104194598Y-105277565D01*
X104151412Y-105135198D01*
X104151026Y-105133927D01*
X104140000Y-105021975D01*
X104140000Y-104274024D01*
X104151026Y-104162072D01*
X104151026Y-104162071D01*
X104194598Y-104018437D01*
X104197504Y-104013000D01*
X104265356Y-103886058D01*
X104360579Y-103770028D01*
X104476609Y-103674805D01*
X104560702Y-103629856D01*
X104608985Y-103604048D01*
X104656865Y-103589524D01*
X104752623Y-103560476D01*
X104902000Y-103545764D01*
X105051378Y-103560476D01*
X105051378Y-103560476D01*
G37*
G36*
X107591378Y-103560476D02*
X107687136Y-103589524D01*
X107735016Y-103604048D01*
X107783299Y-103629856D01*
X107867392Y-103674805D01*
X107983422Y-103770028D01*
X108078645Y-103886058D01*
X108123594Y-103970151D01*
X108149402Y-104018434D01*
X108149402Y-104018435D01*
X108192974Y-104162072D01*
X108204000Y-104274024D01*
X108204000Y-105021976D01*
X108192974Y-105133928D01*
X108163926Y-105229686D01*
X108149402Y-105277566D01*
X108148723Y-105278836D01*
X108078645Y-105409942D01*
X108077601Y-105411214D01*
X107983425Y-105525969D01*
X107983423Y-105525970D01*
X107983422Y-105525972D01*
X107867391Y-105621195D01*
X107801203Y-105656573D01*
X107735015Y-105691952D01*
X107687135Y-105706476D01*
X107591377Y-105735524D01*
X107442000Y-105750236D01*
X107292622Y-105735524D01*
X107196864Y-105706476D01*
X107148984Y-105691952D01*
X107100701Y-105666144D01*
X107016608Y-105621195D01*
X106902129Y-105527245D01*
X106900581Y-105525975D01*
X106900580Y-105525973D01*
X106900578Y-105525972D01*
X106805355Y-105409941D01*
X106769976Y-105343752D01*
X106734598Y-105277565D01*
X106691412Y-105135198D01*
X106691026Y-105133927D01*
X106680000Y-105021975D01*
X106680000Y-104274024D01*
X106691026Y-104162072D01*
X106691026Y-104162071D01*
X106734598Y-104018437D01*
X106737504Y-104013000D01*
X106805356Y-103886058D01*
X106900579Y-103770028D01*
X107016609Y-103674805D01*
X107100702Y-103629856D01*
X107148985Y-103604048D01*
X107196865Y-103589524D01*
X107292623Y-103560476D01*
X107442000Y-103545764D01*
X107591378Y-103560476D01*
X107591378Y-103560476D01*
G37*
G36*
X110131378Y-103560476D02*
X110227136Y-103589524D01*
X110275016Y-103604048D01*
X110323299Y-103629856D01*
X110407392Y-103674805D01*
X110523422Y-103770028D01*
X110618645Y-103886058D01*
X110663594Y-103970151D01*
X110689402Y-104018434D01*
X110689402Y-104018435D01*
X110732974Y-104162072D01*
X110744000Y-104274024D01*
X110744000Y-105021976D01*
X110732974Y-105133928D01*
X110703926Y-105229686D01*
X110689402Y-105277566D01*
X110688723Y-105278836D01*
X110618645Y-105409942D01*
X110617601Y-105411214D01*
X110523425Y-105525969D01*
X110523423Y-105525970D01*
X110523422Y-105525972D01*
X110407391Y-105621195D01*
X110341203Y-105656573D01*
X110275015Y-105691952D01*
X110227135Y-105706476D01*
X110131377Y-105735524D01*
X109982000Y-105750236D01*
X109832622Y-105735524D01*
X109736864Y-105706476D01*
X109688984Y-105691952D01*
X109640701Y-105666144D01*
X109556608Y-105621195D01*
X109442129Y-105527245D01*
X109440581Y-105525975D01*
X109440580Y-105525973D01*
X109440578Y-105525972D01*
X109345355Y-105409941D01*
X109309976Y-105343752D01*
X109274598Y-105277565D01*
X109231412Y-105135198D01*
X109231026Y-105133927D01*
X109220000Y-105021975D01*
X109220000Y-104274024D01*
X109231026Y-104162072D01*
X109231026Y-104162071D01*
X109274598Y-104018437D01*
X109277504Y-104013000D01*
X109345356Y-103886058D01*
X109440579Y-103770028D01*
X109556609Y-103674805D01*
X109640702Y-103629856D01*
X109688985Y-103604048D01*
X109736865Y-103589524D01*
X109832623Y-103560476D01*
X109982000Y-103545764D01*
X110131378Y-103560476D01*
X110131378Y-103560476D01*
G37*
G36*
X112671378Y-103560476D02*
X112767136Y-103589524D01*
X112815016Y-103604048D01*
X112863299Y-103629856D01*
X112947392Y-103674805D01*
X113063422Y-103770028D01*
X113158645Y-103886058D01*
X113203594Y-103970151D01*
X113229402Y-104018434D01*
X113229402Y-104018435D01*
X113272974Y-104162072D01*
X113284000Y-104274024D01*
X113284000Y-105021976D01*
X113272974Y-105133928D01*
X113243926Y-105229686D01*
X113229402Y-105277566D01*
X113228723Y-105278836D01*
X113158645Y-105409942D01*
X113157601Y-105411214D01*
X113063425Y-105525969D01*
X113063423Y-105525970D01*
X113063422Y-105525972D01*
X112947391Y-105621195D01*
X112881203Y-105656573D01*
X112815015Y-105691952D01*
X112767135Y-105706476D01*
X112671377Y-105735524D01*
X112522000Y-105750236D01*
X112372622Y-105735524D01*
X112276864Y-105706476D01*
X112228984Y-105691952D01*
X112180701Y-105666144D01*
X112096608Y-105621195D01*
X111982129Y-105527245D01*
X111980581Y-105525975D01*
X111980580Y-105525973D01*
X111980578Y-105525972D01*
X111885355Y-105409941D01*
X111849976Y-105343752D01*
X111814598Y-105277565D01*
X111771412Y-105135198D01*
X111771026Y-105133927D01*
X111760000Y-105021975D01*
X111760000Y-104274024D01*
X111771026Y-104162072D01*
X111771026Y-104162071D01*
X111814598Y-104018437D01*
X111817504Y-104013000D01*
X111885356Y-103886058D01*
X111980579Y-103770028D01*
X112096609Y-103674805D01*
X112180702Y-103629856D01*
X112228985Y-103604048D01*
X112276865Y-103589524D01*
X112372623Y-103560476D01*
X112522000Y-103545764D01*
X112671378Y-103560476D01*
X112671378Y-103560476D01*
G37*
G36*
X115211378Y-103560476D02*
X115307136Y-103589524D01*
X115355016Y-103604048D01*
X115403299Y-103629856D01*
X115487392Y-103674805D01*
X115603422Y-103770028D01*
X115698645Y-103886058D01*
X115743594Y-103970151D01*
X115769402Y-104018434D01*
X115769402Y-104018435D01*
X115812974Y-104162072D01*
X115824000Y-104274024D01*
X115824000Y-105021976D01*
X115812974Y-105133928D01*
X115783926Y-105229686D01*
X115769402Y-105277566D01*
X115768723Y-105278836D01*
X115698645Y-105409942D01*
X115697601Y-105411214D01*
X115603425Y-105525969D01*
X115603423Y-105525970D01*
X115603422Y-105525972D01*
X115487391Y-105621195D01*
X115421203Y-105656573D01*
X115355015Y-105691952D01*
X115307135Y-105706476D01*
X115211377Y-105735524D01*
X115062000Y-105750236D01*
X114912622Y-105735524D01*
X114816864Y-105706476D01*
X114768984Y-105691952D01*
X114720701Y-105666144D01*
X114636608Y-105621195D01*
X114522129Y-105527245D01*
X114520581Y-105525975D01*
X114520580Y-105525973D01*
X114520578Y-105525972D01*
X114425355Y-105409941D01*
X114389976Y-105343752D01*
X114354598Y-105277565D01*
X114311412Y-105135198D01*
X114311026Y-105133927D01*
X114300000Y-105021975D01*
X114300000Y-104274024D01*
X114311026Y-104162072D01*
X114311026Y-104162071D01*
X114354598Y-104018437D01*
X114357504Y-104013000D01*
X114425356Y-103886058D01*
X114520579Y-103770028D01*
X114636609Y-103674805D01*
X114720702Y-103629856D01*
X114768985Y-103604048D01*
X114816865Y-103589524D01*
X114912623Y-103560476D01*
X115062000Y-103545764D01*
X115211378Y-103560476D01*
X115211378Y-103560476D01*
G37*
G36*
X117751378Y-103560476D02*
X117847136Y-103589524D01*
X117895016Y-103604048D01*
X117943299Y-103629856D01*
X118027392Y-103674805D01*
X118143422Y-103770028D01*
X118238645Y-103886058D01*
X118283594Y-103970151D01*
X118309402Y-104018434D01*
X118309402Y-104018435D01*
X118352974Y-104162072D01*
X118364000Y-104274024D01*
X118364000Y-105021976D01*
X118352974Y-105133928D01*
X118323926Y-105229686D01*
X118309402Y-105277566D01*
X118308723Y-105278836D01*
X118238645Y-105409942D01*
X118237601Y-105411214D01*
X118143425Y-105525969D01*
X118143423Y-105525970D01*
X118143422Y-105525972D01*
X118027391Y-105621195D01*
X117961203Y-105656573D01*
X117895015Y-105691952D01*
X117847135Y-105706476D01*
X117751377Y-105735524D01*
X117602000Y-105750236D01*
X117452622Y-105735524D01*
X117356864Y-105706476D01*
X117308984Y-105691952D01*
X117260701Y-105666144D01*
X117176608Y-105621195D01*
X117062129Y-105527245D01*
X117060581Y-105525975D01*
X117060580Y-105525973D01*
X117060578Y-105525972D01*
X116965355Y-105409941D01*
X116929976Y-105343752D01*
X116894598Y-105277565D01*
X116851412Y-105135198D01*
X116851026Y-105133927D01*
X116840000Y-105021975D01*
X116840000Y-104274024D01*
X116851026Y-104162072D01*
X116851026Y-104162071D01*
X116894598Y-104018437D01*
X116897504Y-104013000D01*
X116965356Y-103886058D01*
X117060579Y-103770028D01*
X117176609Y-103674805D01*
X117260702Y-103629856D01*
X117308985Y-103604048D01*
X117356865Y-103589524D01*
X117452623Y-103560476D01*
X117602000Y-103545764D01*
X117751378Y-103560476D01*
X117751378Y-103560476D01*
G37*
G36*
X120291378Y-103560476D02*
X120387136Y-103589524D01*
X120435016Y-103604048D01*
X120483299Y-103629856D01*
X120567392Y-103674805D01*
X120683422Y-103770028D01*
X120778645Y-103886058D01*
X120823594Y-103970151D01*
X120849402Y-104018434D01*
X120849402Y-104018435D01*
X120892974Y-104162072D01*
X120904000Y-104274024D01*
X120904000Y-105021976D01*
X120892974Y-105133928D01*
X120863926Y-105229686D01*
X120849402Y-105277566D01*
X120848723Y-105278836D01*
X120778645Y-105409942D01*
X120777601Y-105411214D01*
X120683425Y-105525969D01*
X120683423Y-105525970D01*
X120683422Y-105525972D01*
X120567391Y-105621195D01*
X120501203Y-105656573D01*
X120435015Y-105691952D01*
X120387135Y-105706476D01*
X120291377Y-105735524D01*
X120142000Y-105750236D01*
X119992622Y-105735524D01*
X119896864Y-105706476D01*
X119848984Y-105691952D01*
X119800701Y-105666144D01*
X119716608Y-105621195D01*
X119602129Y-105527245D01*
X119600581Y-105525975D01*
X119600580Y-105525973D01*
X119600578Y-105525972D01*
X119505355Y-105409941D01*
X119469976Y-105343752D01*
X119434598Y-105277565D01*
X119391412Y-105135198D01*
X119391026Y-105133927D01*
X119380000Y-105021975D01*
X119380000Y-104274024D01*
X119391026Y-104162072D01*
X119391026Y-104162071D01*
X119434598Y-104018437D01*
X119437504Y-104013000D01*
X119505356Y-103886058D01*
X119600579Y-103770028D01*
X119716609Y-103674805D01*
X119800702Y-103629856D01*
X119848985Y-103604048D01*
X119896865Y-103589524D01*
X119992623Y-103560476D01*
X120142000Y-103545764D01*
X120291378Y-103560476D01*
X120291378Y-103560476D01*
G37*
G36*
X122831378Y-103560476D02*
X122927136Y-103589524D01*
X122975016Y-103604048D01*
X123023299Y-103629856D01*
X123107392Y-103674805D01*
X123223422Y-103770028D01*
X123318645Y-103886058D01*
X123363594Y-103970151D01*
X123389402Y-104018434D01*
X123389402Y-104018435D01*
X123432974Y-104162072D01*
X123444000Y-104274024D01*
X123444000Y-105021976D01*
X123432974Y-105133928D01*
X123403926Y-105229686D01*
X123389402Y-105277566D01*
X123388723Y-105278836D01*
X123318645Y-105409942D01*
X123317601Y-105411214D01*
X123223425Y-105525969D01*
X123223423Y-105525970D01*
X123223422Y-105525972D01*
X123107391Y-105621195D01*
X123041203Y-105656573D01*
X122975015Y-105691952D01*
X122927135Y-105706476D01*
X122831377Y-105735524D01*
X122682000Y-105750236D01*
X122532622Y-105735524D01*
X122436864Y-105706476D01*
X122388984Y-105691952D01*
X122340701Y-105666144D01*
X122256608Y-105621195D01*
X122142129Y-105527245D01*
X122140581Y-105525975D01*
X122140580Y-105525973D01*
X122140578Y-105525972D01*
X122045355Y-105409941D01*
X122009976Y-105343752D01*
X121974598Y-105277565D01*
X121931412Y-105135198D01*
X121931026Y-105133927D01*
X121920000Y-105021975D01*
X121920000Y-104274024D01*
X121931026Y-104162072D01*
X121931026Y-104162071D01*
X121974598Y-104018437D01*
X121977504Y-104013000D01*
X122045356Y-103886058D01*
X122140579Y-103770028D01*
X122256609Y-103674805D01*
X122340702Y-103629856D01*
X122388985Y-103604048D01*
X122436865Y-103589524D01*
X122532623Y-103560476D01*
X122682000Y-103545764D01*
X122831378Y-103560476D01*
X122831378Y-103560476D01*
G37*
G36*
X125371378Y-103560476D02*
X125467136Y-103589524D01*
X125515016Y-103604048D01*
X125563299Y-103629856D01*
X125647392Y-103674805D01*
X125763422Y-103770028D01*
X125858645Y-103886058D01*
X125903594Y-103970151D01*
X125929402Y-104018434D01*
X125929402Y-104018435D01*
X125972974Y-104162072D01*
X125984000Y-104274024D01*
X125984000Y-105021976D01*
X125972974Y-105133928D01*
X125943926Y-105229686D01*
X125929402Y-105277566D01*
X125928723Y-105278836D01*
X125858645Y-105409942D01*
X125857601Y-105411214D01*
X125763425Y-105525969D01*
X125763423Y-105525970D01*
X125763422Y-105525972D01*
X125647391Y-105621195D01*
X125581203Y-105656573D01*
X125515015Y-105691952D01*
X125467135Y-105706476D01*
X125371377Y-105735524D01*
X125222000Y-105750236D01*
X125072622Y-105735524D01*
X124976864Y-105706476D01*
X124928984Y-105691952D01*
X124880701Y-105666144D01*
X124796608Y-105621195D01*
X124682129Y-105527245D01*
X124680581Y-105525975D01*
X124680580Y-105525973D01*
X124680578Y-105525972D01*
X124585355Y-105409941D01*
X124549976Y-105343752D01*
X124514598Y-105277565D01*
X124471412Y-105135198D01*
X124471026Y-105133927D01*
X124460000Y-105021975D01*
X124460000Y-104274024D01*
X124471026Y-104162072D01*
X124471026Y-104162071D01*
X124514598Y-104018437D01*
X124517504Y-104013000D01*
X124585356Y-103886058D01*
X124680579Y-103770028D01*
X124796609Y-103674805D01*
X124880702Y-103629856D01*
X124928985Y-103604048D01*
X124976865Y-103589524D01*
X125072623Y-103560476D01*
X125222000Y-103545764D01*
X125371378Y-103560476D01*
X125371378Y-103560476D01*
G37*
G36*
X127911378Y-103560476D02*
X128007136Y-103589524D01*
X128055016Y-103604048D01*
X128103299Y-103629856D01*
X128187392Y-103674805D01*
X128303422Y-103770028D01*
X128398645Y-103886058D01*
X128443594Y-103970151D01*
X128469402Y-104018434D01*
X128469402Y-104018435D01*
X128512974Y-104162072D01*
X128524000Y-104274024D01*
X128524000Y-105021976D01*
X128512974Y-105133928D01*
X128483926Y-105229686D01*
X128469402Y-105277566D01*
X128468723Y-105278836D01*
X128398645Y-105409942D01*
X128397601Y-105411214D01*
X128303425Y-105525969D01*
X128303423Y-105525970D01*
X128303422Y-105525972D01*
X128187391Y-105621195D01*
X128121203Y-105656573D01*
X128055015Y-105691952D01*
X128007135Y-105706476D01*
X127911377Y-105735524D01*
X127762000Y-105750236D01*
X127612622Y-105735524D01*
X127516864Y-105706476D01*
X127468984Y-105691952D01*
X127420701Y-105666144D01*
X127336608Y-105621195D01*
X127222129Y-105527245D01*
X127220581Y-105525975D01*
X127220580Y-105525973D01*
X127220578Y-105525972D01*
X127125355Y-105409941D01*
X127089976Y-105343752D01*
X127054598Y-105277565D01*
X127011412Y-105135198D01*
X127011026Y-105133927D01*
X127000000Y-105021975D01*
X127000000Y-104274024D01*
X127011026Y-104162072D01*
X127011026Y-104162071D01*
X127054598Y-104018437D01*
X127057504Y-104013000D01*
X127125356Y-103886058D01*
X127220579Y-103770028D01*
X127336609Y-103674805D01*
X127420702Y-103629856D01*
X127468985Y-103604048D01*
X127516865Y-103589524D01*
X127612623Y-103560476D01*
X127762000Y-103545764D01*
X127911378Y-103560476D01*
X127911378Y-103560476D01*
G37*
G36*
X69264431Y-102245022D02*
X69434076Y-102296484D01*
X69590436Y-102380059D01*
X69727475Y-102492525D01*
X69839944Y-102629567D01*
X69923515Y-102785919D01*
X69974978Y-102955568D01*
X69988000Y-103087789D01*
X69988000Y-104176211D01*
X69974978Y-104308432D01*
X69923515Y-104478081D01*
X69839944Y-104634433D01*
X69727475Y-104771475D01*
X69590433Y-104883944D01*
X69434081Y-104967515D01*
X69264432Y-105018978D01*
X69088000Y-105036354D01*
X68911569Y-105018978D01*
X68741920Y-104967515D01*
X68585568Y-104883944D01*
X68448526Y-104771475D01*
X68336057Y-104634433D01*
X68252486Y-104478081D01*
X68201023Y-104308432D01*
X68188001Y-104176211D01*
X68188000Y-103087790D01*
X68201022Y-102955569D01*
X68252484Y-102785924D01*
X68336059Y-102629564D01*
X68448525Y-102492525D01*
X68585567Y-102380056D01*
X68741919Y-102296485D01*
X68911568Y-102245022D01*
X69088000Y-102227646D01*
X69264431Y-102245022D01*
X69264431Y-102245022D01*
G37*
G36*
X152058630Y-103175299D02*
X152218855Y-103223903D01*
X152366520Y-103302831D01*
X152495949Y-103409051D01*
X152602169Y-103538480D01*
X152681097Y-103686145D01*
X152729701Y-103846370D01*
X152746112Y-104013000D01*
X152729701Y-104179630D01*
X152681097Y-104339855D01*
X152602169Y-104487520D01*
X152495949Y-104616949D01*
X152366520Y-104723169D01*
X152218855Y-104802097D01*
X152058630Y-104850701D01*
X151933752Y-104863000D01*
X151850248Y-104863000D01*
X151725370Y-104850701D01*
X151565145Y-104802097D01*
X151417480Y-104723169D01*
X151288051Y-104616949D01*
X151181831Y-104487520D01*
X151102903Y-104339855D01*
X151054299Y-104179630D01*
X151037888Y-104013000D01*
X151054299Y-103846370D01*
X151102903Y-103686145D01*
X151181831Y-103538480D01*
X151288051Y-103409051D01*
X151417480Y-103302831D01*
X151565145Y-103223903D01*
X151725370Y-103175299D01*
X151850248Y-103163000D01*
X151933752Y-103163000D01*
X152058630Y-103175299D01*
X152058630Y-103175299D01*
G37*
G36*
X71664431Y-100245022D02*
X71834076Y-100296484D01*
X71990436Y-100380059D01*
X72127475Y-100492525D01*
X72239944Y-100629567D01*
X72323515Y-100785919D01*
X72374978Y-100955568D01*
X72388000Y-101087789D01*
X72388000Y-102176211D01*
X72374978Y-102308432D01*
X72323515Y-102478081D01*
X72239944Y-102634433D01*
X72127475Y-102771475D01*
X71990433Y-102883944D01*
X71834081Y-102967515D01*
X71664432Y-103018978D01*
X71488000Y-103036354D01*
X71311569Y-103018978D01*
X71141920Y-102967515D01*
X70985568Y-102883944D01*
X70848526Y-102771475D01*
X70736057Y-102634433D01*
X70652486Y-102478081D01*
X70601023Y-102308432D01*
X70588001Y-102176211D01*
X70588000Y-101087790D01*
X70601022Y-100955569D01*
X70652484Y-100785924D01*
X70736059Y-100629564D01*
X70848525Y-100492525D01*
X70985567Y-100380056D01*
X71141919Y-100296485D01*
X71311568Y-100245022D01*
X71488000Y-100227646D01*
X71664431Y-100245022D01*
X71664431Y-100245022D01*
G37*
G36*
X77164431Y-100245022D02*
X77334076Y-100296484D01*
X77490436Y-100380059D01*
X77627475Y-100492525D01*
X77739944Y-100629567D01*
X77823515Y-100785919D01*
X77874978Y-100955568D01*
X77888000Y-101087789D01*
X77888000Y-102176211D01*
X77874978Y-102308432D01*
X77823515Y-102478081D01*
X77739944Y-102634433D01*
X77627475Y-102771475D01*
X77490433Y-102883944D01*
X77334081Y-102967515D01*
X77164432Y-103018978D01*
X76988000Y-103036354D01*
X76811569Y-103018978D01*
X76641920Y-102967515D01*
X76485568Y-102883944D01*
X76348526Y-102771475D01*
X76236057Y-102634433D01*
X76152486Y-102478081D01*
X76101023Y-102308432D01*
X76088001Y-102176211D01*
X76088000Y-101087790D01*
X76101022Y-100955569D01*
X76152484Y-100785924D01*
X76236059Y-100629564D01*
X76348525Y-100492525D01*
X76485567Y-100380056D01*
X76641919Y-100296485D01*
X76811568Y-100245022D01*
X76988000Y-100227646D01*
X77164431Y-100245022D01*
X77164431Y-100245022D01*
G37*
G36*
X152742000Y-102323000D02*
X151042000Y-102323000D01*
X151042000Y-100623000D01*
X152742000Y-100623000D01*
X152742000Y-102323000D01*
X152742000Y-102323000D01*
G37*
G36*
X85039353Y-99724744D02*
X85184942Y-99785049D01*
X85315974Y-99872602D01*
X85427400Y-99984028D01*
X85514953Y-100115060D01*
X85575258Y-100260649D01*
X85606001Y-100415206D01*
X85606001Y-100572796D01*
X85575258Y-100727353D01*
X85514953Y-100872942D01*
X85427400Y-101003974D01*
X85315974Y-101115400D01*
X85184942Y-101202953D01*
X85039353Y-101263258D01*
X84884796Y-101294001D01*
X84727206Y-101294001D01*
X84572649Y-101263258D01*
X84427060Y-101202953D01*
X84296028Y-101115400D01*
X84184602Y-101003974D01*
X84097049Y-100872942D01*
X84036744Y-100727353D01*
X84006001Y-100572796D01*
X84006001Y-100415206D01*
X84036744Y-100260649D01*
X84097049Y-100115060D01*
X84184602Y-99984028D01*
X84296028Y-99872602D01*
X84427060Y-99785049D01*
X84572649Y-99724744D01*
X84727206Y-99694001D01*
X84884796Y-99694001D01*
X85039353Y-99724744D01*
X85039353Y-99724744D01*
G37*
G36*
X90003650Y-99701718D02*
X90042828Y-99705577D01*
X90106013Y-99724744D01*
X90193630Y-99751322D01*
X90332609Y-99825609D01*
X90454423Y-99925579D01*
X90554393Y-100047393D01*
X90628680Y-100186372D01*
X90674425Y-100337175D01*
X90689871Y-100494001D01*
X90674425Y-100650827D01*
X90628680Y-100801630D01*
X90554393Y-100940609D01*
X90454423Y-101062423D01*
X90332609Y-101162393D01*
X90193630Y-101236680D01*
X90118229Y-101259552D01*
X90042828Y-101282425D01*
X90003650Y-101286284D01*
X89925296Y-101294001D01*
X89846706Y-101294001D01*
X89768352Y-101286284D01*
X89729174Y-101282425D01*
X89653773Y-101259552D01*
X89578372Y-101236680D01*
X89439393Y-101162393D01*
X89317579Y-101062423D01*
X89217609Y-100940609D01*
X89143322Y-100801630D01*
X89097577Y-100650827D01*
X89082131Y-100494001D01*
X89097577Y-100337175D01*
X89143322Y-100186372D01*
X89217609Y-100047393D01*
X89317579Y-99925579D01*
X89439393Y-99825609D01*
X89578372Y-99751322D01*
X89665989Y-99724744D01*
X89729174Y-99705577D01*
X89768352Y-99701718D01*
X89846706Y-99694001D01*
X89925296Y-99694001D01*
X90003650Y-99701718D01*
X90003650Y-99701718D01*
G37*
G36*
X143119649Y-97378717D02*
X143158827Y-97382576D01*
X143222012Y-97401743D01*
X143309629Y-97428321D01*
X143448608Y-97502608D01*
X143570422Y-97602578D01*
X143670392Y-97724392D01*
X143744679Y-97863371D01*
X143790424Y-98014174D01*
X143805870Y-98171000D01*
X143790424Y-98327826D01*
X143744679Y-98478629D01*
X143670392Y-98617608D01*
X143570422Y-98739422D01*
X143448608Y-98839392D01*
X143309629Y-98913679D01*
X143234228Y-98936551D01*
X143158827Y-98959424D01*
X143119649Y-98963283D01*
X143041295Y-98971000D01*
X142962705Y-98971000D01*
X142884351Y-98963283D01*
X142845173Y-98959424D01*
X142769772Y-98936551D01*
X142694371Y-98913679D01*
X142555392Y-98839392D01*
X142433578Y-98739422D01*
X142333608Y-98617608D01*
X142259321Y-98478629D01*
X142213576Y-98327826D01*
X142198130Y-98171000D01*
X142213576Y-98014174D01*
X142259321Y-97863371D01*
X142333608Y-97724392D01*
X142433578Y-97602578D01*
X142555392Y-97502608D01*
X142694371Y-97428321D01*
X142781988Y-97401743D01*
X142845173Y-97382576D01*
X142884351Y-97378717D01*
X142962705Y-97371000D01*
X143041295Y-97371000D01*
X143119649Y-97378717D01*
X143119649Y-97378717D01*
G37*
G36*
X138155352Y-97401743D02*
X138300941Y-97462048D01*
X138431973Y-97549601D01*
X138543399Y-97661027D01*
X138630952Y-97792059D01*
X138691257Y-97937648D01*
X138722000Y-98092205D01*
X138722000Y-98249795D01*
X138691257Y-98404352D01*
X138630952Y-98549941D01*
X138543399Y-98680973D01*
X138431973Y-98792399D01*
X138300941Y-98879952D01*
X138155352Y-98940257D01*
X138000795Y-98971000D01*
X137843205Y-98971000D01*
X137688648Y-98940257D01*
X137543059Y-98879952D01*
X137412027Y-98792399D01*
X137300601Y-98680973D01*
X137213048Y-98549941D01*
X137152743Y-98404352D01*
X137122000Y-98249795D01*
X137122000Y-98092205D01*
X137152743Y-97937648D01*
X137213048Y-97792059D01*
X137300601Y-97661027D01*
X137412027Y-97549601D01*
X137543059Y-97462048D01*
X137688648Y-97401743D01*
X137843205Y-97371000D01*
X138000795Y-97371000D01*
X138155352Y-97401743D01*
X138155352Y-97401743D01*
G37*
G36*
X90003650Y-95951718D02*
X90042828Y-95955577D01*
X90106013Y-95974744D01*
X90193630Y-96001322D01*
X90332609Y-96075609D01*
X90454423Y-96175579D01*
X90554393Y-96297393D01*
X90628680Y-96436372D01*
X90674425Y-96587175D01*
X90689871Y-96744001D01*
X90674425Y-96900827D01*
X90628680Y-97051630D01*
X90554393Y-97190609D01*
X90454423Y-97312423D01*
X90332609Y-97412393D01*
X90193630Y-97486680D01*
X90118229Y-97509552D01*
X90042828Y-97532425D01*
X90003650Y-97536284D01*
X89925296Y-97544001D01*
X89846706Y-97544001D01*
X89768352Y-97536284D01*
X89729174Y-97532425D01*
X89653773Y-97509552D01*
X89578372Y-97486680D01*
X89439393Y-97412393D01*
X89317579Y-97312423D01*
X89217609Y-97190609D01*
X89143322Y-97051630D01*
X89097577Y-96900827D01*
X89082131Y-96744001D01*
X89097577Y-96587175D01*
X89143322Y-96436372D01*
X89217609Y-96297393D01*
X89317579Y-96175579D01*
X89439393Y-96075609D01*
X89578372Y-96001322D01*
X89665989Y-95974744D01*
X89729174Y-95955577D01*
X89768352Y-95951718D01*
X89846706Y-95944001D01*
X89925296Y-95944001D01*
X90003650Y-95951718D01*
X90003650Y-95951718D01*
G37*
G36*
X85039353Y-95974744D02*
X85184942Y-96035049D01*
X85315974Y-96122602D01*
X85427400Y-96234028D01*
X85514953Y-96365060D01*
X85575258Y-96510649D01*
X85606001Y-96665206D01*
X85606001Y-96822796D01*
X85575258Y-96977353D01*
X85514953Y-97122942D01*
X85427400Y-97253974D01*
X85315974Y-97365400D01*
X85184942Y-97452953D01*
X85039353Y-97513258D01*
X84884796Y-97544001D01*
X84727206Y-97544001D01*
X84572649Y-97513258D01*
X84427060Y-97452953D01*
X84296028Y-97365400D01*
X84184602Y-97253974D01*
X84097049Y-97122942D01*
X84036744Y-96977353D01*
X84006001Y-96822796D01*
X84006001Y-96665206D01*
X84036744Y-96510649D01*
X84097049Y-96365060D01*
X84184602Y-96234028D01*
X84296028Y-96122602D01*
X84427060Y-96035049D01*
X84572649Y-95974744D01*
X84727206Y-95944001D01*
X84884796Y-95944001D01*
X85039353Y-95974744D01*
X85039353Y-95974744D01*
G37*
G36*
X154344630Y-93269299D02*
X154504855Y-93317903D01*
X154652520Y-93396831D01*
X154781949Y-93503051D01*
X154888169Y-93632480D01*
X154967097Y-93780145D01*
X155015701Y-93940370D01*
X155032112Y-94107000D01*
X155015701Y-94273630D01*
X154967097Y-94433855D01*
X154888169Y-94581520D01*
X154781949Y-94710949D01*
X154652520Y-94817169D01*
X154504855Y-94896097D01*
X154344630Y-94944701D01*
X154219752Y-94957000D01*
X154136248Y-94957000D01*
X154011370Y-94944701D01*
X153851145Y-94896097D01*
X153703480Y-94817169D01*
X153574051Y-94710949D01*
X153467831Y-94581520D01*
X153388903Y-94433855D01*
X153340299Y-94273630D01*
X153323888Y-94107000D01*
X153340299Y-93940370D01*
X153388903Y-93780145D01*
X153467831Y-93632480D01*
X153574051Y-93503051D01*
X153703480Y-93396831D01*
X153851145Y-93317903D01*
X154011370Y-93269299D01*
X154136248Y-93257000D01*
X154219752Y-93257000D01*
X154344630Y-93269299D01*
X154344630Y-93269299D01*
G37*
G36*
X73813352Y-92702743D02*
X73958941Y-92763048D01*
X74089973Y-92850601D01*
X74201399Y-92962027D01*
X74288952Y-93093059D01*
X74349257Y-93238648D01*
X74380000Y-93393205D01*
X74380000Y-93550795D01*
X74349257Y-93705352D01*
X74288952Y-93850941D01*
X74201399Y-93981973D01*
X74089973Y-94093399D01*
X73958941Y-94180952D01*
X73813352Y-94241257D01*
X73658795Y-94272000D01*
X73501205Y-94272000D01*
X73346648Y-94241257D01*
X73201059Y-94180952D01*
X73070027Y-94093399D01*
X72958601Y-93981973D01*
X72871048Y-93850941D01*
X72810743Y-93705352D01*
X72780000Y-93550795D01*
X72780000Y-93393205D01*
X72810743Y-93238648D01*
X72871048Y-93093059D01*
X72958601Y-92962027D01*
X73070027Y-92850601D01*
X73201059Y-92763048D01*
X73346648Y-92702743D01*
X73501205Y-92672000D01*
X73658795Y-92672000D01*
X73813352Y-92702743D01*
X73813352Y-92702743D01*
G37*
G36*
X69380000Y-94272000D02*
X67780000Y-94272000D01*
X67780000Y-92672000D01*
X69380000Y-92672000D01*
X69380000Y-94272000D01*
X69380000Y-94272000D01*
G37*
G36*
X143119649Y-92044717D02*
X143158827Y-92048576D01*
X143222012Y-92067743D01*
X143309629Y-92094321D01*
X143448608Y-92168608D01*
X143570422Y-92268578D01*
X143670392Y-92390392D01*
X143744679Y-92529371D01*
X143744679Y-92529372D01*
X143790424Y-92680173D01*
X143805870Y-92837000D01*
X143790424Y-92993826D01*
X143744679Y-93144629D01*
X143670392Y-93283608D01*
X143570422Y-93405422D01*
X143448608Y-93505392D01*
X143309629Y-93579679D01*
X143234227Y-93602552D01*
X143158827Y-93625424D01*
X143119649Y-93629283D01*
X143041295Y-93637000D01*
X142962705Y-93637000D01*
X142884351Y-93629283D01*
X142845173Y-93625424D01*
X142769773Y-93602552D01*
X142694371Y-93579679D01*
X142555392Y-93505392D01*
X142433578Y-93405422D01*
X142333608Y-93283608D01*
X142259321Y-93144629D01*
X142213576Y-92993826D01*
X142198130Y-92837000D01*
X142213576Y-92680173D01*
X142259321Y-92529372D01*
X142259321Y-92529371D01*
X142333608Y-92390392D01*
X142433578Y-92268578D01*
X142555392Y-92168608D01*
X142694371Y-92094321D01*
X142781988Y-92067743D01*
X142845173Y-92048576D01*
X142884351Y-92044717D01*
X142962705Y-92037000D01*
X143041295Y-92037000D01*
X143119649Y-92044717D01*
X143119649Y-92044717D01*
G37*
G36*
X138155352Y-92067743D02*
X138300941Y-92128048D01*
X138431973Y-92215601D01*
X138543399Y-92327027D01*
X138630952Y-92458059D01*
X138691257Y-92603648D01*
X138722000Y-92758205D01*
X138722000Y-92915795D01*
X138691257Y-93070352D01*
X138630952Y-93215941D01*
X138543399Y-93346973D01*
X138431973Y-93458399D01*
X138300941Y-93545952D01*
X138155352Y-93606257D01*
X138000795Y-93637000D01*
X137843205Y-93637000D01*
X137688648Y-93606257D01*
X137543059Y-93545952D01*
X137412027Y-93458399D01*
X137300601Y-93346973D01*
X137213048Y-93215941D01*
X137152743Y-93070352D01*
X137122000Y-92915795D01*
X137122000Y-92758205D01*
X137152743Y-92603648D01*
X137213048Y-92458059D01*
X137300601Y-92327027D01*
X137412027Y-92215601D01*
X137543059Y-92128048D01*
X137688648Y-92067743D01*
X137843205Y-92037000D01*
X138000795Y-92037000D01*
X138155352Y-92067743D01*
X138155352Y-92067743D01*
G37*
G36*
X155028000Y-92417000D02*
X153328000Y-92417000D01*
X153328000Y-90717000D01*
X155028000Y-90717000D01*
X155028000Y-92417000D01*
X155028000Y-92417000D01*
G37*
G36*
X79011107Y-90557944D02*
X79171332Y-90606548D01*
X79318997Y-90685476D01*
X79448426Y-90791696D01*
X79554646Y-90921125D01*
X79633574Y-91068790D01*
X79682178Y-91229015D01*
X79698589Y-91395645D01*
X79682178Y-91562275D01*
X79633574Y-91722500D01*
X79554646Y-91870165D01*
X79448426Y-91999594D01*
X79318997Y-92105814D01*
X79171332Y-92184742D01*
X79011107Y-92233346D01*
X78886229Y-92245645D01*
X78802725Y-92245645D01*
X78677847Y-92233346D01*
X78517622Y-92184742D01*
X78369957Y-92105814D01*
X78240528Y-91999594D01*
X78134308Y-91870165D01*
X78055380Y-91722500D01*
X78006776Y-91562275D01*
X77990365Y-91395645D01*
X78006776Y-91229015D01*
X78055380Y-91068790D01*
X78134308Y-90921125D01*
X78240528Y-90791696D01*
X78369957Y-90685476D01*
X78517622Y-90606548D01*
X78677847Y-90557944D01*
X78802725Y-90545645D01*
X78886229Y-90545645D01*
X79011107Y-90557944D01*
X79011107Y-90557944D01*
G37*
G36*
X82234477Y-92245645D02*
X80534477Y-92245645D01*
X80534477Y-90545645D01*
X82234477Y-90545645D01*
X82234477Y-92245645D01*
X82234477Y-92245645D01*
G37*
G36*
X92351378Y-88319206D02*
X92447136Y-88348254D01*
X92495016Y-88362778D01*
X92543299Y-88388586D01*
X92627392Y-88433535D01*
X92743422Y-88528758D01*
X92838645Y-88644788D01*
X92883594Y-88728881D01*
X92909402Y-88777164D01*
X92909402Y-88777165D01*
X92952974Y-88920802D01*
X92964000Y-89032754D01*
X92964000Y-89783246D01*
X92952974Y-89895198D01*
X92923926Y-89990956D01*
X92909402Y-90038836D01*
X92883594Y-90087119D01*
X92838645Y-90171212D01*
X92838643Y-90171214D01*
X92743425Y-90287239D01*
X92743423Y-90287240D01*
X92743422Y-90287242D01*
X92627391Y-90382465D01*
X92561202Y-90417844D01*
X92495015Y-90453222D01*
X92447135Y-90467746D01*
X92351377Y-90496794D01*
X92202000Y-90511506D01*
X92052622Y-90496794D01*
X91956864Y-90467746D01*
X91908984Y-90453222D01*
X91860701Y-90427414D01*
X91776608Y-90382465D01*
X91730196Y-90344376D01*
X91660581Y-90287245D01*
X91660580Y-90287243D01*
X91660578Y-90287242D01*
X91565355Y-90171211D01*
X91494599Y-90038836D01*
X91494598Y-90038835D01*
X91480074Y-89990955D01*
X91451026Y-89895197D01*
X91440000Y-89783245D01*
X91440000Y-89032754D01*
X91451026Y-88920802D01*
X91494599Y-88777165D01*
X91565356Y-88644788D01*
X91660579Y-88528758D01*
X91776609Y-88433535D01*
X91860702Y-88388586D01*
X91908985Y-88362778D01*
X91956865Y-88348254D01*
X92052623Y-88319206D01*
X92202000Y-88304494D01*
X92351378Y-88319206D01*
X92351378Y-88319206D01*
G37*
G36*
X117751378Y-88319206D02*
X117847136Y-88348254D01*
X117895016Y-88362778D01*
X117943299Y-88388586D01*
X118027392Y-88433535D01*
X118143422Y-88528758D01*
X118238645Y-88644788D01*
X118283594Y-88728881D01*
X118309402Y-88777164D01*
X118309402Y-88777165D01*
X118352974Y-88920802D01*
X118364000Y-89032754D01*
X118364000Y-89783246D01*
X118352974Y-89895198D01*
X118323926Y-89990956D01*
X118309402Y-90038836D01*
X118283594Y-90087119D01*
X118238645Y-90171212D01*
X118238643Y-90171214D01*
X118143425Y-90287239D01*
X118143423Y-90287240D01*
X118143422Y-90287242D01*
X118027391Y-90382465D01*
X117961203Y-90417843D01*
X117895015Y-90453222D01*
X117847135Y-90467746D01*
X117751377Y-90496794D01*
X117602000Y-90511506D01*
X117452622Y-90496794D01*
X117356864Y-90467746D01*
X117308984Y-90453222D01*
X117260701Y-90427414D01*
X117176608Y-90382465D01*
X117130196Y-90344376D01*
X117060581Y-90287245D01*
X117060580Y-90287243D01*
X117060578Y-90287242D01*
X116965355Y-90171211D01*
X116894599Y-90038836D01*
X116894598Y-90038835D01*
X116880074Y-89990955D01*
X116851026Y-89895197D01*
X116840000Y-89783245D01*
X116840000Y-89032754D01*
X116851026Y-88920802D01*
X116894599Y-88777165D01*
X116965356Y-88644788D01*
X117060579Y-88528758D01*
X117176609Y-88433535D01*
X117260702Y-88388586D01*
X117308985Y-88362778D01*
X117356865Y-88348254D01*
X117452623Y-88319206D01*
X117602000Y-88304494D01*
X117751378Y-88319206D01*
X117751378Y-88319206D01*
G37*
G36*
X120291378Y-88319206D02*
X120387136Y-88348254D01*
X120435016Y-88362778D01*
X120483299Y-88388586D01*
X120567392Y-88433535D01*
X120683422Y-88528758D01*
X120778645Y-88644788D01*
X120823594Y-88728881D01*
X120849402Y-88777164D01*
X120849402Y-88777165D01*
X120892974Y-88920802D01*
X120904000Y-89032754D01*
X120904000Y-89783246D01*
X120892974Y-89895198D01*
X120863926Y-89990956D01*
X120849402Y-90038836D01*
X120823594Y-90087119D01*
X120778645Y-90171212D01*
X120778643Y-90171214D01*
X120683425Y-90287239D01*
X120683423Y-90287240D01*
X120683422Y-90287242D01*
X120567391Y-90382465D01*
X120501203Y-90417843D01*
X120435015Y-90453222D01*
X120387135Y-90467746D01*
X120291377Y-90496794D01*
X120142000Y-90511506D01*
X119992622Y-90496794D01*
X119896864Y-90467746D01*
X119848984Y-90453222D01*
X119800701Y-90427414D01*
X119716608Y-90382465D01*
X119670196Y-90344376D01*
X119600581Y-90287245D01*
X119600580Y-90287243D01*
X119600578Y-90287242D01*
X119505355Y-90171211D01*
X119434599Y-90038836D01*
X119434598Y-90038835D01*
X119420074Y-89990955D01*
X119391026Y-89895197D01*
X119380000Y-89783245D01*
X119380000Y-89032754D01*
X119391026Y-88920802D01*
X119434599Y-88777165D01*
X119505356Y-88644788D01*
X119600579Y-88528758D01*
X119716609Y-88433535D01*
X119800702Y-88388586D01*
X119848985Y-88362778D01*
X119896865Y-88348254D01*
X119992623Y-88319206D01*
X120142000Y-88304494D01*
X120291378Y-88319206D01*
X120291378Y-88319206D01*
G37*
G36*
X122831378Y-88319206D02*
X122927136Y-88348254D01*
X122975016Y-88362778D01*
X123023299Y-88388586D01*
X123107392Y-88433535D01*
X123223422Y-88528758D01*
X123318645Y-88644788D01*
X123363594Y-88728881D01*
X123389402Y-88777164D01*
X123389402Y-88777165D01*
X123432974Y-88920802D01*
X123444000Y-89032754D01*
X123444000Y-89783246D01*
X123432974Y-89895198D01*
X123403926Y-89990956D01*
X123389402Y-90038836D01*
X123363594Y-90087119D01*
X123318645Y-90171212D01*
X123318643Y-90171214D01*
X123223425Y-90287239D01*
X123223423Y-90287240D01*
X123223422Y-90287242D01*
X123107391Y-90382465D01*
X123041203Y-90417843D01*
X122975015Y-90453222D01*
X122927135Y-90467746D01*
X122831377Y-90496794D01*
X122682000Y-90511506D01*
X122532622Y-90496794D01*
X122436864Y-90467746D01*
X122388984Y-90453222D01*
X122340701Y-90427414D01*
X122256608Y-90382465D01*
X122210196Y-90344376D01*
X122140581Y-90287245D01*
X122140580Y-90287243D01*
X122140578Y-90287242D01*
X122045355Y-90171211D01*
X121974599Y-90038836D01*
X121974598Y-90038835D01*
X121960074Y-89990955D01*
X121931026Y-89895197D01*
X121920000Y-89783245D01*
X121920000Y-89032754D01*
X121931026Y-88920802D01*
X121974599Y-88777165D01*
X122045356Y-88644788D01*
X122140579Y-88528758D01*
X122256609Y-88433535D01*
X122340702Y-88388586D01*
X122388985Y-88362778D01*
X122436865Y-88348254D01*
X122532623Y-88319206D01*
X122682000Y-88304494D01*
X122831378Y-88319206D01*
X122831378Y-88319206D01*
G37*
G36*
X125371378Y-88319206D02*
X125467136Y-88348254D01*
X125515016Y-88362778D01*
X125563299Y-88388586D01*
X125647392Y-88433535D01*
X125763422Y-88528758D01*
X125858645Y-88644788D01*
X125903594Y-88728881D01*
X125929402Y-88777164D01*
X125929402Y-88777165D01*
X125972974Y-88920802D01*
X125984000Y-89032754D01*
X125984000Y-89783246D01*
X125972974Y-89895198D01*
X125943926Y-89990956D01*
X125929402Y-90038836D01*
X125903594Y-90087119D01*
X125858645Y-90171212D01*
X125858643Y-90171214D01*
X125763425Y-90287239D01*
X125763423Y-90287240D01*
X125763422Y-90287242D01*
X125647391Y-90382465D01*
X125581203Y-90417843D01*
X125515015Y-90453222D01*
X125467135Y-90467746D01*
X125371377Y-90496794D01*
X125222000Y-90511506D01*
X125072622Y-90496794D01*
X124976864Y-90467746D01*
X124928984Y-90453222D01*
X124880701Y-90427414D01*
X124796608Y-90382465D01*
X124750196Y-90344376D01*
X124680581Y-90287245D01*
X124680580Y-90287243D01*
X124680578Y-90287242D01*
X124585355Y-90171211D01*
X124514599Y-90038836D01*
X124514598Y-90038835D01*
X124500074Y-89990955D01*
X124471026Y-89895197D01*
X124460000Y-89783245D01*
X124460000Y-89032754D01*
X124471026Y-88920802D01*
X124514599Y-88777165D01*
X124585356Y-88644788D01*
X124680579Y-88528758D01*
X124796609Y-88433535D01*
X124880702Y-88388586D01*
X124928985Y-88362778D01*
X124976865Y-88348254D01*
X125072623Y-88319206D01*
X125222000Y-88304494D01*
X125371378Y-88319206D01*
X125371378Y-88319206D01*
G37*
G36*
X127911378Y-88319206D02*
X128007136Y-88348254D01*
X128055016Y-88362778D01*
X128103299Y-88388586D01*
X128187392Y-88433535D01*
X128303422Y-88528758D01*
X128398645Y-88644788D01*
X128443594Y-88728881D01*
X128469402Y-88777164D01*
X128469402Y-88777165D01*
X128512974Y-88920802D01*
X128524000Y-89032754D01*
X128524000Y-89783246D01*
X128512974Y-89895198D01*
X128483926Y-89990956D01*
X128469402Y-90038836D01*
X128443594Y-90087119D01*
X128398645Y-90171212D01*
X128398643Y-90171214D01*
X128303425Y-90287239D01*
X128303423Y-90287240D01*
X128303422Y-90287242D01*
X128187391Y-90382465D01*
X128121203Y-90417843D01*
X128055015Y-90453222D01*
X128007135Y-90467746D01*
X127911377Y-90496794D01*
X127762000Y-90511506D01*
X127612622Y-90496794D01*
X127516864Y-90467746D01*
X127468984Y-90453222D01*
X127420701Y-90427414D01*
X127336608Y-90382465D01*
X127290196Y-90344376D01*
X127220581Y-90287245D01*
X127220580Y-90287243D01*
X127220578Y-90287242D01*
X127125355Y-90171211D01*
X127054599Y-90038836D01*
X127054598Y-90038835D01*
X127040074Y-89990955D01*
X127011026Y-89895197D01*
X127000000Y-89783245D01*
X127000000Y-89032754D01*
X127011026Y-88920802D01*
X127054599Y-88777165D01*
X127125356Y-88644788D01*
X127220579Y-88528758D01*
X127336609Y-88433535D01*
X127420702Y-88388586D01*
X127468985Y-88362778D01*
X127516865Y-88348254D01*
X127612623Y-88319206D01*
X127762000Y-88304494D01*
X127911378Y-88319206D01*
X127911378Y-88319206D01*
G37*
G36*
X115211378Y-88319206D02*
X115307136Y-88348254D01*
X115355016Y-88362778D01*
X115403299Y-88388586D01*
X115487392Y-88433535D01*
X115603422Y-88528758D01*
X115698645Y-88644788D01*
X115743594Y-88728881D01*
X115769402Y-88777164D01*
X115769402Y-88777165D01*
X115812974Y-88920802D01*
X115824000Y-89032754D01*
X115824000Y-89783246D01*
X115812974Y-89895198D01*
X115783926Y-89990956D01*
X115769402Y-90038836D01*
X115743594Y-90087119D01*
X115698645Y-90171212D01*
X115698643Y-90171214D01*
X115603425Y-90287239D01*
X115603423Y-90287240D01*
X115603422Y-90287242D01*
X115487391Y-90382465D01*
X115421203Y-90417843D01*
X115355015Y-90453222D01*
X115307135Y-90467746D01*
X115211377Y-90496794D01*
X115062000Y-90511506D01*
X114912622Y-90496794D01*
X114816864Y-90467746D01*
X114768984Y-90453222D01*
X114720701Y-90427414D01*
X114636608Y-90382465D01*
X114590196Y-90344376D01*
X114520581Y-90287245D01*
X114520580Y-90287243D01*
X114520578Y-90287242D01*
X114425355Y-90171211D01*
X114354599Y-90038836D01*
X114354598Y-90038835D01*
X114340074Y-89990955D01*
X114311026Y-89895197D01*
X114300000Y-89783245D01*
X114300000Y-89032754D01*
X114311026Y-88920802D01*
X114354599Y-88777165D01*
X114425356Y-88644788D01*
X114520579Y-88528758D01*
X114636609Y-88433535D01*
X114720702Y-88388586D01*
X114768985Y-88362778D01*
X114816865Y-88348254D01*
X114912623Y-88319206D01*
X115062000Y-88304494D01*
X115211378Y-88319206D01*
X115211378Y-88319206D01*
G37*
G36*
X112671378Y-88319206D02*
X112767136Y-88348254D01*
X112815016Y-88362778D01*
X112863299Y-88388586D01*
X112947392Y-88433535D01*
X113063422Y-88528758D01*
X113158645Y-88644788D01*
X113203594Y-88728881D01*
X113229402Y-88777164D01*
X113229402Y-88777165D01*
X113272974Y-88920802D01*
X113284000Y-89032754D01*
X113284000Y-89783246D01*
X113272974Y-89895198D01*
X113243926Y-89990956D01*
X113229402Y-90038836D01*
X113203594Y-90087119D01*
X113158645Y-90171212D01*
X113158643Y-90171214D01*
X113063425Y-90287239D01*
X113063423Y-90287240D01*
X113063422Y-90287242D01*
X112947391Y-90382465D01*
X112881203Y-90417843D01*
X112815015Y-90453222D01*
X112767135Y-90467746D01*
X112671377Y-90496794D01*
X112522000Y-90511506D01*
X112372622Y-90496794D01*
X112276864Y-90467746D01*
X112228984Y-90453222D01*
X112180701Y-90427414D01*
X112096608Y-90382465D01*
X112050196Y-90344376D01*
X111980581Y-90287245D01*
X111980580Y-90287243D01*
X111980578Y-90287242D01*
X111885355Y-90171211D01*
X111814599Y-90038836D01*
X111814598Y-90038835D01*
X111800074Y-89990955D01*
X111771026Y-89895197D01*
X111760000Y-89783245D01*
X111760000Y-89032754D01*
X111771026Y-88920802D01*
X111814599Y-88777165D01*
X111885356Y-88644788D01*
X111980579Y-88528758D01*
X112096609Y-88433535D01*
X112180702Y-88388586D01*
X112228985Y-88362778D01*
X112276865Y-88348254D01*
X112372623Y-88319206D01*
X112522000Y-88304494D01*
X112671378Y-88319206D01*
X112671378Y-88319206D01*
G37*
G36*
X94891378Y-88319206D02*
X94987136Y-88348254D01*
X95035016Y-88362778D01*
X95083299Y-88388586D01*
X95167392Y-88433535D01*
X95283422Y-88528758D01*
X95378645Y-88644788D01*
X95423594Y-88728881D01*
X95449402Y-88777164D01*
X95449402Y-88777165D01*
X95492974Y-88920802D01*
X95504000Y-89032754D01*
X95504000Y-89783246D01*
X95492974Y-89895198D01*
X95463926Y-89990956D01*
X95449402Y-90038836D01*
X95423594Y-90087119D01*
X95378645Y-90171212D01*
X95378643Y-90171214D01*
X95283425Y-90287239D01*
X95283423Y-90287240D01*
X95283422Y-90287242D01*
X95167391Y-90382465D01*
X95101202Y-90417844D01*
X95035015Y-90453222D01*
X94987135Y-90467746D01*
X94891377Y-90496794D01*
X94742000Y-90511506D01*
X94592622Y-90496794D01*
X94496864Y-90467746D01*
X94448984Y-90453222D01*
X94400701Y-90427414D01*
X94316608Y-90382465D01*
X94270196Y-90344376D01*
X94200581Y-90287245D01*
X94200580Y-90287243D01*
X94200578Y-90287242D01*
X94105355Y-90171211D01*
X94034599Y-90038836D01*
X94034598Y-90038835D01*
X94020074Y-89990955D01*
X93991026Y-89895197D01*
X93980000Y-89783245D01*
X93980000Y-89032754D01*
X93991026Y-88920802D01*
X94034599Y-88777165D01*
X94105356Y-88644788D01*
X94200579Y-88528758D01*
X94316609Y-88433535D01*
X94400702Y-88388586D01*
X94448985Y-88362778D01*
X94496865Y-88348254D01*
X94592623Y-88319206D01*
X94742000Y-88304494D01*
X94891378Y-88319206D01*
X94891378Y-88319206D01*
G37*
G36*
X97431378Y-88319206D02*
X97527136Y-88348254D01*
X97575016Y-88362778D01*
X97623299Y-88388586D01*
X97707392Y-88433535D01*
X97823422Y-88528758D01*
X97918645Y-88644788D01*
X97963594Y-88728881D01*
X97989402Y-88777164D01*
X97989402Y-88777165D01*
X98032974Y-88920802D01*
X98044000Y-89032754D01*
X98044000Y-89783246D01*
X98032974Y-89895198D01*
X98003926Y-89990956D01*
X97989402Y-90038836D01*
X97963594Y-90087119D01*
X97918645Y-90171212D01*
X97918643Y-90171214D01*
X97823425Y-90287239D01*
X97823423Y-90287240D01*
X97823422Y-90287242D01*
X97707391Y-90382465D01*
X97641202Y-90417844D01*
X97575015Y-90453222D01*
X97527135Y-90467746D01*
X97431377Y-90496794D01*
X97282000Y-90511506D01*
X97132622Y-90496794D01*
X97036864Y-90467746D01*
X96988984Y-90453222D01*
X96940701Y-90427414D01*
X96856608Y-90382465D01*
X96810196Y-90344376D01*
X96740581Y-90287245D01*
X96740580Y-90287243D01*
X96740578Y-90287242D01*
X96645355Y-90171211D01*
X96574599Y-90038836D01*
X96574598Y-90038835D01*
X96560074Y-89990955D01*
X96531026Y-89895197D01*
X96520000Y-89783245D01*
X96520000Y-89032754D01*
X96531026Y-88920802D01*
X96574599Y-88777165D01*
X96645356Y-88644788D01*
X96740579Y-88528758D01*
X96856609Y-88433535D01*
X96940702Y-88388586D01*
X96988985Y-88362778D01*
X97036865Y-88348254D01*
X97132623Y-88319206D01*
X97282000Y-88304494D01*
X97431378Y-88319206D01*
X97431378Y-88319206D01*
G37*
G36*
X99971378Y-88319206D02*
X100067136Y-88348254D01*
X100115016Y-88362778D01*
X100163299Y-88388586D01*
X100247392Y-88433535D01*
X100363422Y-88528758D01*
X100458645Y-88644788D01*
X100503594Y-88728881D01*
X100529402Y-88777164D01*
X100529402Y-88777165D01*
X100572974Y-88920802D01*
X100584000Y-89032754D01*
X100584000Y-89783246D01*
X100572974Y-89895198D01*
X100543926Y-89990956D01*
X100529402Y-90038836D01*
X100503594Y-90087119D01*
X100458645Y-90171212D01*
X100458643Y-90171214D01*
X100363425Y-90287239D01*
X100363423Y-90287240D01*
X100363422Y-90287242D01*
X100247391Y-90382465D01*
X100181203Y-90417843D01*
X100115015Y-90453222D01*
X100067135Y-90467746D01*
X99971377Y-90496794D01*
X99822000Y-90511506D01*
X99672622Y-90496794D01*
X99576864Y-90467746D01*
X99528984Y-90453222D01*
X99480701Y-90427414D01*
X99396608Y-90382465D01*
X99350196Y-90344376D01*
X99280581Y-90287245D01*
X99280580Y-90287243D01*
X99280578Y-90287242D01*
X99185355Y-90171211D01*
X99114599Y-90038836D01*
X99114598Y-90038835D01*
X99100074Y-89990955D01*
X99071026Y-89895197D01*
X99060000Y-89783245D01*
X99060000Y-89032754D01*
X99071026Y-88920802D01*
X99114599Y-88777165D01*
X99185356Y-88644788D01*
X99280579Y-88528758D01*
X99396609Y-88433535D01*
X99480702Y-88388586D01*
X99528985Y-88362778D01*
X99576865Y-88348254D01*
X99672623Y-88319206D01*
X99822000Y-88304494D01*
X99971378Y-88319206D01*
X99971378Y-88319206D01*
G37*
G36*
X102511378Y-88319206D02*
X102607136Y-88348254D01*
X102655016Y-88362778D01*
X102703299Y-88388586D01*
X102787392Y-88433535D01*
X102903422Y-88528758D01*
X102998645Y-88644788D01*
X103043594Y-88728881D01*
X103069402Y-88777164D01*
X103069402Y-88777165D01*
X103112974Y-88920802D01*
X103124000Y-89032754D01*
X103124000Y-89783246D01*
X103112974Y-89895198D01*
X103083926Y-89990956D01*
X103069402Y-90038836D01*
X103043594Y-90087119D01*
X102998645Y-90171212D01*
X102998643Y-90171214D01*
X102903425Y-90287239D01*
X102903423Y-90287240D01*
X102903422Y-90287242D01*
X102787391Y-90382465D01*
X102721203Y-90417843D01*
X102655015Y-90453222D01*
X102607135Y-90467746D01*
X102511377Y-90496794D01*
X102362000Y-90511506D01*
X102212622Y-90496794D01*
X102116864Y-90467746D01*
X102068984Y-90453222D01*
X102020701Y-90427414D01*
X101936608Y-90382465D01*
X101890196Y-90344376D01*
X101820581Y-90287245D01*
X101820580Y-90287243D01*
X101820578Y-90287242D01*
X101725355Y-90171211D01*
X101654599Y-90038836D01*
X101654598Y-90038835D01*
X101640074Y-89990955D01*
X101611026Y-89895197D01*
X101600000Y-89783245D01*
X101600000Y-89032754D01*
X101611026Y-88920802D01*
X101654599Y-88777165D01*
X101725356Y-88644788D01*
X101820579Y-88528758D01*
X101936609Y-88433535D01*
X102020702Y-88388586D01*
X102068985Y-88362778D01*
X102116865Y-88348254D01*
X102212623Y-88319206D01*
X102362000Y-88304494D01*
X102511378Y-88319206D01*
X102511378Y-88319206D01*
G37*
G36*
X105051378Y-88319206D02*
X105147136Y-88348254D01*
X105195016Y-88362778D01*
X105243299Y-88388586D01*
X105327392Y-88433535D01*
X105443422Y-88528758D01*
X105538645Y-88644788D01*
X105583594Y-88728881D01*
X105609402Y-88777164D01*
X105609402Y-88777165D01*
X105652974Y-88920802D01*
X105664000Y-89032754D01*
X105664000Y-89783246D01*
X105652974Y-89895198D01*
X105623926Y-89990956D01*
X105609402Y-90038836D01*
X105583594Y-90087119D01*
X105538645Y-90171212D01*
X105538643Y-90171214D01*
X105443425Y-90287239D01*
X105443423Y-90287240D01*
X105443422Y-90287242D01*
X105327391Y-90382465D01*
X105261203Y-90417843D01*
X105195015Y-90453222D01*
X105147135Y-90467746D01*
X105051377Y-90496794D01*
X104902000Y-90511506D01*
X104752622Y-90496794D01*
X104656864Y-90467746D01*
X104608984Y-90453222D01*
X104560701Y-90427414D01*
X104476608Y-90382465D01*
X104430196Y-90344376D01*
X104360581Y-90287245D01*
X104360580Y-90287243D01*
X104360578Y-90287242D01*
X104265355Y-90171211D01*
X104194599Y-90038836D01*
X104194598Y-90038835D01*
X104180074Y-89990955D01*
X104151026Y-89895197D01*
X104140000Y-89783245D01*
X104140000Y-89032754D01*
X104151026Y-88920802D01*
X104194599Y-88777165D01*
X104265356Y-88644788D01*
X104360579Y-88528758D01*
X104476609Y-88433535D01*
X104560702Y-88388586D01*
X104608985Y-88362778D01*
X104656865Y-88348254D01*
X104752623Y-88319206D01*
X104902000Y-88304494D01*
X105051378Y-88319206D01*
X105051378Y-88319206D01*
G37*
G36*
X107591378Y-88319206D02*
X107687136Y-88348254D01*
X107735016Y-88362778D01*
X107783299Y-88388586D01*
X107867392Y-88433535D01*
X107983422Y-88528758D01*
X108078645Y-88644788D01*
X108123594Y-88728881D01*
X108149402Y-88777164D01*
X108149402Y-88777165D01*
X108192974Y-88920802D01*
X108204000Y-89032754D01*
X108204000Y-89783246D01*
X108192974Y-89895198D01*
X108163926Y-89990956D01*
X108149402Y-90038836D01*
X108123594Y-90087119D01*
X108078645Y-90171212D01*
X108078643Y-90171214D01*
X107983425Y-90287239D01*
X107983423Y-90287240D01*
X107983422Y-90287242D01*
X107867391Y-90382465D01*
X107801203Y-90417843D01*
X107735015Y-90453222D01*
X107687135Y-90467746D01*
X107591377Y-90496794D01*
X107442000Y-90511506D01*
X107292622Y-90496794D01*
X107196864Y-90467746D01*
X107148984Y-90453222D01*
X107100701Y-90427414D01*
X107016608Y-90382465D01*
X106970196Y-90344376D01*
X106900581Y-90287245D01*
X106900580Y-90287243D01*
X106900578Y-90287242D01*
X106805355Y-90171211D01*
X106734599Y-90038836D01*
X106734598Y-90038835D01*
X106720074Y-89990955D01*
X106691026Y-89895197D01*
X106680000Y-89783245D01*
X106680000Y-89032754D01*
X106691026Y-88920802D01*
X106734599Y-88777165D01*
X106805356Y-88644788D01*
X106900579Y-88528758D01*
X107016609Y-88433535D01*
X107100702Y-88388586D01*
X107148985Y-88362778D01*
X107196865Y-88348254D01*
X107292623Y-88319206D01*
X107442000Y-88304494D01*
X107591378Y-88319206D01*
X107591378Y-88319206D01*
G37*
G36*
X110131378Y-88319206D02*
X110227136Y-88348254D01*
X110275016Y-88362778D01*
X110323299Y-88388586D01*
X110407392Y-88433535D01*
X110523422Y-88528758D01*
X110618645Y-88644788D01*
X110663594Y-88728881D01*
X110689402Y-88777164D01*
X110689402Y-88777165D01*
X110732974Y-88920802D01*
X110744000Y-89032754D01*
X110744000Y-89783246D01*
X110732974Y-89895198D01*
X110703926Y-89990956D01*
X110689402Y-90038836D01*
X110663594Y-90087119D01*
X110618645Y-90171212D01*
X110618643Y-90171214D01*
X110523425Y-90287239D01*
X110523423Y-90287240D01*
X110523422Y-90287242D01*
X110407391Y-90382465D01*
X110341203Y-90417843D01*
X110275015Y-90453222D01*
X110227135Y-90467746D01*
X110131377Y-90496794D01*
X109982000Y-90511506D01*
X109832622Y-90496794D01*
X109736864Y-90467746D01*
X109688984Y-90453222D01*
X109640701Y-90427414D01*
X109556608Y-90382465D01*
X109510196Y-90344376D01*
X109440581Y-90287245D01*
X109440580Y-90287243D01*
X109440578Y-90287242D01*
X109345355Y-90171211D01*
X109274599Y-90038836D01*
X109274598Y-90038835D01*
X109260074Y-89990955D01*
X109231026Y-89895197D01*
X109220000Y-89783245D01*
X109220000Y-89032754D01*
X109231026Y-88920802D01*
X109274599Y-88777165D01*
X109345356Y-88644788D01*
X109440579Y-88528758D01*
X109556609Y-88433535D01*
X109640702Y-88388586D01*
X109688985Y-88362778D01*
X109736865Y-88348254D01*
X109832623Y-88319206D01*
X109982000Y-88304494D01*
X110131378Y-88319206D01*
X110131378Y-88319206D01*
G37*
G36*
X79011107Y-86907944D02*
X79171332Y-86956548D01*
X79318997Y-87035476D01*
X79448426Y-87141696D01*
X79554646Y-87271125D01*
X79633574Y-87418790D01*
X79682178Y-87579015D01*
X79698589Y-87745645D01*
X79682178Y-87912275D01*
X79633574Y-88072500D01*
X79554646Y-88220165D01*
X79448426Y-88349594D01*
X79318997Y-88455814D01*
X79171332Y-88534742D01*
X79011107Y-88583346D01*
X78886229Y-88595645D01*
X78802725Y-88595645D01*
X78677847Y-88583346D01*
X78517622Y-88534742D01*
X78369957Y-88455814D01*
X78240528Y-88349594D01*
X78134308Y-88220165D01*
X78055380Y-88072500D01*
X78006776Y-87912275D01*
X77990365Y-87745645D01*
X78006776Y-87579015D01*
X78055380Y-87418790D01*
X78134308Y-87271125D01*
X78240528Y-87141696D01*
X78369957Y-87035476D01*
X78517622Y-86956548D01*
X78677847Y-86907944D01*
X78802725Y-86895645D01*
X78886229Y-86895645D01*
X79011107Y-86907944D01*
X79011107Y-86907944D01*
G37*
G36*
X82234477Y-88595645D02*
X80534477Y-88595645D01*
X80534477Y-86895645D01*
X82234477Y-86895645D01*
X82234477Y-88595645D01*
X82234477Y-88595645D01*
G37*
G36*
X138155352Y-86733743D02*
X138300941Y-86794048D01*
X138431973Y-86881601D01*
X138543399Y-86993027D01*
X138630952Y-87124059D01*
X138691257Y-87269648D01*
X138722000Y-87424205D01*
X138722000Y-87581795D01*
X138691257Y-87736352D01*
X138630952Y-87881941D01*
X138543399Y-88012973D01*
X138431973Y-88124399D01*
X138300941Y-88211952D01*
X138155352Y-88272257D01*
X138000795Y-88303000D01*
X137843205Y-88303000D01*
X137688648Y-88272257D01*
X137543059Y-88211952D01*
X137412027Y-88124399D01*
X137300601Y-88012973D01*
X137213048Y-87881941D01*
X137152743Y-87736352D01*
X137122000Y-87581795D01*
X137122000Y-87424205D01*
X137152743Y-87269648D01*
X137213048Y-87124059D01*
X137300601Y-86993027D01*
X137412027Y-86881601D01*
X137543059Y-86794048D01*
X137688648Y-86733743D01*
X137843205Y-86703000D01*
X138000795Y-86703000D01*
X138155352Y-86733743D01*
X138155352Y-86733743D01*
G37*
G36*
X143119649Y-86710717D02*
X143158827Y-86714576D01*
X143222012Y-86733743D01*
X143309629Y-86760321D01*
X143448608Y-86834608D01*
X143570422Y-86934578D01*
X143670392Y-87056392D01*
X143744679Y-87195371D01*
X143790424Y-87346174D01*
X143805870Y-87503000D01*
X143790424Y-87659826D01*
X143744679Y-87810629D01*
X143670392Y-87949608D01*
X143570422Y-88071422D01*
X143448608Y-88171392D01*
X143309629Y-88245679D01*
X143234227Y-88268552D01*
X143158827Y-88291424D01*
X143119649Y-88295283D01*
X143041295Y-88303000D01*
X142962705Y-88303000D01*
X142884351Y-88295283D01*
X142845173Y-88291424D01*
X142769773Y-88268552D01*
X142694371Y-88245679D01*
X142555392Y-88171392D01*
X142433578Y-88071422D01*
X142333608Y-87949608D01*
X142259321Y-87810629D01*
X142213576Y-87659826D01*
X142198130Y-87503000D01*
X142213576Y-87346174D01*
X142259321Y-87195371D01*
X142333608Y-87056392D01*
X142433578Y-86934578D01*
X142555392Y-86834608D01*
X142694371Y-86760321D01*
X142781988Y-86733743D01*
X142845173Y-86714576D01*
X142884351Y-86710717D01*
X142962705Y-86703000D01*
X143041295Y-86703000D01*
X143119649Y-86710717D01*
X143119649Y-86710717D01*
G37*
G36*
X130027352Y-84701743D02*
X130172941Y-84762048D01*
X130303973Y-84849601D01*
X130415399Y-84961027D01*
X130502952Y-85092059D01*
X130563257Y-85237648D01*
X130594000Y-85392205D01*
X130594000Y-85549795D01*
X130563257Y-85704352D01*
X130502952Y-85849941D01*
X130415399Y-85980973D01*
X130303973Y-86092399D01*
X130172941Y-86179952D01*
X130027352Y-86240257D01*
X129872795Y-86271000D01*
X129715205Y-86271000D01*
X129560648Y-86240257D01*
X129415059Y-86179952D01*
X129284027Y-86092399D01*
X129172601Y-85980973D01*
X129085048Y-85849941D01*
X129024743Y-85704352D01*
X128994000Y-85549795D01*
X128994000Y-85392205D01*
X129024743Y-85237648D01*
X129085048Y-85092059D01*
X129172601Y-84961027D01*
X129284027Y-84849601D01*
X129415059Y-84762048D01*
X129560648Y-84701743D01*
X129715205Y-84671000D01*
X129872795Y-84671000D01*
X130027352Y-84701743D01*
X130027352Y-84701743D01*
G37*
G36*
X124831649Y-84678717D02*
X124870827Y-84682576D01*
X124934012Y-84701743D01*
X125021629Y-84728321D01*
X125160608Y-84802608D01*
X125282422Y-84902578D01*
X125382392Y-85024392D01*
X125456679Y-85163371D01*
X125456679Y-85163372D01*
X125502424Y-85314173D01*
X125517870Y-85471000D01*
X125502424Y-85627827D01*
X125479552Y-85703227D01*
X125456679Y-85778629D01*
X125382392Y-85917608D01*
X125282422Y-86039422D01*
X125160608Y-86139392D01*
X125021629Y-86213679D01*
X124946228Y-86236551D01*
X124870827Y-86259424D01*
X124831649Y-86263283D01*
X124753295Y-86271000D01*
X124674705Y-86271000D01*
X124596351Y-86263283D01*
X124557173Y-86259424D01*
X124481772Y-86236551D01*
X124406371Y-86213679D01*
X124267392Y-86139392D01*
X124145578Y-86039422D01*
X124045608Y-85917608D01*
X123971321Y-85778629D01*
X123948448Y-85703227D01*
X123925576Y-85627827D01*
X123910130Y-85471000D01*
X123925576Y-85314173D01*
X123971321Y-85163372D01*
X123971321Y-85163371D01*
X124045608Y-85024392D01*
X124145578Y-84902578D01*
X124267392Y-84802608D01*
X124406371Y-84728321D01*
X124493988Y-84701743D01*
X124557173Y-84682576D01*
X124596351Y-84678717D01*
X124674705Y-84671000D01*
X124753295Y-84671000D01*
X124831649Y-84678717D01*
X124831649Y-84678717D01*
G37*
G36*
X68813352Y-84066743D02*
X68958941Y-84127048D01*
X69089973Y-84214601D01*
X69201399Y-84326027D01*
X69288952Y-84457059D01*
X69349257Y-84602648D01*
X69380000Y-84757205D01*
X69380000Y-84914795D01*
X69349257Y-85069352D01*
X69288952Y-85214941D01*
X69201399Y-85345973D01*
X69089973Y-85457399D01*
X68958941Y-85544952D01*
X68813352Y-85605257D01*
X68658795Y-85636000D01*
X68501205Y-85636000D01*
X68346648Y-85605257D01*
X68201059Y-85544952D01*
X68070027Y-85457399D01*
X67958601Y-85345973D01*
X67871048Y-85214941D01*
X67810743Y-85069352D01*
X67780000Y-84914795D01*
X67780000Y-84757205D01*
X67810743Y-84602648D01*
X67871048Y-84457059D01*
X67958601Y-84326027D01*
X68070027Y-84214601D01*
X68201059Y-84127048D01*
X68346648Y-84066743D01*
X68501205Y-84036000D01*
X68658795Y-84036000D01*
X68813352Y-84066743D01*
X68813352Y-84066743D01*
G37*
G36*
X73777649Y-84043717D02*
X73816827Y-84047576D01*
X73880012Y-84066743D01*
X73967629Y-84093321D01*
X74106608Y-84167608D01*
X74228422Y-84267578D01*
X74328392Y-84389392D01*
X74402679Y-84528371D01*
X74402679Y-84528372D01*
X74448424Y-84679173D01*
X74460581Y-84802607D01*
X74463870Y-84836000D01*
X74448424Y-84992826D01*
X74402679Y-85143629D01*
X74328392Y-85282608D01*
X74228422Y-85404422D01*
X74106608Y-85504392D01*
X73967629Y-85578679D01*
X73892227Y-85601552D01*
X73816827Y-85624424D01*
X73782286Y-85627826D01*
X73699295Y-85636000D01*
X73620705Y-85636000D01*
X73537714Y-85627826D01*
X73503173Y-85624424D01*
X73427773Y-85601552D01*
X73352371Y-85578679D01*
X73213392Y-85504392D01*
X73091578Y-85404422D01*
X72991608Y-85282608D01*
X72917321Y-85143629D01*
X72871576Y-84992826D01*
X72856130Y-84836000D01*
X72859419Y-84802607D01*
X72871576Y-84679173D01*
X72917321Y-84528372D01*
X72917321Y-84528371D01*
X72991608Y-84389392D01*
X73091578Y-84267578D01*
X73213392Y-84167608D01*
X73352371Y-84093321D01*
X73439988Y-84066743D01*
X73503173Y-84047576D01*
X73542351Y-84043717D01*
X73620705Y-84036000D01*
X73699295Y-84036000D01*
X73777649Y-84043717D01*
X73777649Y-84043717D01*
G37*
G36*
X111545630Y-81204299D02*
X111705855Y-81252903D01*
X111853520Y-81331831D01*
X111982949Y-81438051D01*
X112089169Y-81567480D01*
X112168097Y-81715145D01*
X112216701Y-81875370D01*
X112233112Y-82042000D01*
X112216701Y-82208630D01*
X112168097Y-82368855D01*
X112089169Y-82516520D01*
X111982949Y-82645949D01*
X111853520Y-82752169D01*
X111705855Y-82831097D01*
X111545630Y-82879701D01*
X111420752Y-82892000D01*
X111337248Y-82892000D01*
X111212370Y-82879701D01*
X111052145Y-82831097D01*
X110904480Y-82752169D01*
X110775051Y-82645949D01*
X110668831Y-82516520D01*
X110589903Y-82368855D01*
X110541299Y-82208630D01*
X110524888Y-82042000D01*
X110541299Y-81875370D01*
X110589903Y-81715145D01*
X110668831Y-81567480D01*
X110775051Y-81438051D01*
X110904480Y-81331831D01*
X111052145Y-81252903D01*
X111212370Y-81204299D01*
X111337248Y-81192000D01*
X111420752Y-81192000D01*
X111545630Y-81204299D01*
X111545630Y-81204299D01*
G37*
G36*
X101385630Y-81204299D02*
X101545855Y-81252903D01*
X101693520Y-81331831D01*
X101822949Y-81438051D01*
X101929169Y-81567480D01*
X102008097Y-81715145D01*
X102056701Y-81875370D01*
X102073112Y-82042000D01*
X102056701Y-82208630D01*
X102008097Y-82368855D01*
X101929169Y-82516520D01*
X101822949Y-82645949D01*
X101693520Y-82752169D01*
X101545855Y-82831097D01*
X101385630Y-82879701D01*
X101260752Y-82892000D01*
X101177248Y-82892000D01*
X101052370Y-82879701D01*
X100892145Y-82831097D01*
X100744480Y-82752169D01*
X100615051Y-82645949D01*
X100508831Y-82516520D01*
X100429903Y-82368855D01*
X100381299Y-82208630D01*
X100364888Y-82042000D01*
X100381299Y-81875370D01*
X100429903Y-81715145D01*
X100508831Y-81567480D01*
X100615051Y-81438051D01*
X100744480Y-81331831D01*
X100892145Y-81252903D01*
X101052370Y-81204299D01*
X101177248Y-81192000D01*
X101260752Y-81192000D01*
X101385630Y-81204299D01*
X101385630Y-81204299D01*
G37*
G36*
X103925630Y-81204299D02*
X104085855Y-81252903D01*
X104233520Y-81331831D01*
X104362949Y-81438051D01*
X104469169Y-81567480D01*
X104548097Y-81715145D01*
X104596701Y-81875370D01*
X104613112Y-82042000D01*
X104596701Y-82208630D01*
X104548097Y-82368855D01*
X104469169Y-82516520D01*
X104362949Y-82645949D01*
X104233520Y-82752169D01*
X104085855Y-82831097D01*
X103925630Y-82879701D01*
X103800752Y-82892000D01*
X103717248Y-82892000D01*
X103592370Y-82879701D01*
X103432145Y-82831097D01*
X103284480Y-82752169D01*
X103155051Y-82645949D01*
X103048831Y-82516520D01*
X102969903Y-82368855D01*
X102921299Y-82208630D01*
X102904888Y-82042000D01*
X102921299Y-81875370D01*
X102969903Y-81715145D01*
X103048831Y-81567480D01*
X103155051Y-81438051D01*
X103284480Y-81331831D01*
X103432145Y-81252903D01*
X103592370Y-81204299D01*
X103717248Y-81192000D01*
X103800752Y-81192000D01*
X103925630Y-81204299D01*
X103925630Y-81204299D01*
G37*
G36*
X89369000Y-82892000D02*
X87669000Y-82892000D01*
X87669000Y-81192000D01*
X89369000Y-81192000D01*
X89369000Y-82892000D01*
X89369000Y-82892000D01*
G37*
G36*
X136056630Y-81204299D02*
X136216855Y-81252903D01*
X136364520Y-81331831D01*
X136493949Y-81438051D01*
X136600169Y-81567480D01*
X136679097Y-81715145D01*
X136727701Y-81875370D01*
X136744112Y-82042000D01*
X136727701Y-82208630D01*
X136679097Y-82368855D01*
X136600169Y-82516520D01*
X136493949Y-82645949D01*
X136364520Y-82752169D01*
X136216855Y-82831097D01*
X136056630Y-82879701D01*
X135931752Y-82892000D01*
X135848248Y-82892000D01*
X135723370Y-82879701D01*
X135563145Y-82831097D01*
X135415480Y-82752169D01*
X135286051Y-82645949D01*
X135179831Y-82516520D01*
X135100903Y-82368855D01*
X135052299Y-82208630D01*
X135035888Y-82042000D01*
X135052299Y-81875370D01*
X135100903Y-81715145D01*
X135179831Y-81567480D01*
X135286051Y-81438051D01*
X135415480Y-81331831D01*
X135563145Y-81252903D01*
X135723370Y-81204299D01*
X135848248Y-81192000D01*
X135931752Y-81192000D01*
X136056630Y-81204299D01*
X136056630Y-81204299D01*
G37*
G36*
X138596630Y-81204299D02*
X138756855Y-81252903D01*
X138904520Y-81331831D01*
X139033949Y-81438051D01*
X139140169Y-81567480D01*
X139219097Y-81715145D01*
X139267701Y-81875370D01*
X139284112Y-82042000D01*
X139267701Y-82208630D01*
X139219097Y-82368855D01*
X139140169Y-82516520D01*
X139033949Y-82645949D01*
X138904520Y-82752169D01*
X138756855Y-82831097D01*
X138596630Y-82879701D01*
X138471752Y-82892000D01*
X138388248Y-82892000D01*
X138263370Y-82879701D01*
X138103145Y-82831097D01*
X137955480Y-82752169D01*
X137826051Y-82645949D01*
X137719831Y-82516520D01*
X137640903Y-82368855D01*
X137592299Y-82208630D01*
X137575888Y-82042000D01*
X137592299Y-81875370D01*
X137640903Y-81715145D01*
X137719831Y-81567480D01*
X137826051Y-81438051D01*
X137955480Y-81331831D01*
X138103145Y-81252903D01*
X138263370Y-81204299D01*
X138388248Y-81192000D01*
X138471752Y-81192000D01*
X138596630Y-81204299D01*
X138596630Y-81204299D01*
G37*
G36*
X91225630Y-81204299D02*
X91385855Y-81252903D01*
X91533520Y-81331831D01*
X91662949Y-81438051D01*
X91769169Y-81567480D01*
X91848097Y-81715145D01*
X91896701Y-81875370D01*
X91913112Y-82042000D01*
X91896701Y-82208630D01*
X91848097Y-82368855D01*
X91769169Y-82516520D01*
X91662949Y-82645949D01*
X91533520Y-82752169D01*
X91385855Y-82831097D01*
X91225630Y-82879701D01*
X91100752Y-82892000D01*
X91017248Y-82892000D01*
X90892370Y-82879701D01*
X90732145Y-82831097D01*
X90584480Y-82752169D01*
X90455051Y-82645949D01*
X90348831Y-82516520D01*
X90269903Y-82368855D01*
X90221299Y-82208630D01*
X90204888Y-82042000D01*
X90221299Y-81875370D01*
X90269903Y-81715145D01*
X90348831Y-81567480D01*
X90455051Y-81438051D01*
X90584480Y-81331831D01*
X90732145Y-81252903D01*
X90892370Y-81204299D01*
X91017248Y-81192000D01*
X91100752Y-81192000D01*
X91225630Y-81204299D01*
X91225630Y-81204299D01*
G37*
G36*
X93765630Y-81204299D02*
X93925855Y-81252903D01*
X94073520Y-81331831D01*
X94202949Y-81438051D01*
X94309169Y-81567480D01*
X94388097Y-81715145D01*
X94436701Y-81875370D01*
X94453112Y-82042000D01*
X94436701Y-82208630D01*
X94388097Y-82368855D01*
X94309169Y-82516520D01*
X94202949Y-82645949D01*
X94073520Y-82752169D01*
X93925855Y-82831097D01*
X93765630Y-82879701D01*
X93640752Y-82892000D01*
X93557248Y-82892000D01*
X93432370Y-82879701D01*
X93272145Y-82831097D01*
X93124480Y-82752169D01*
X92995051Y-82645949D01*
X92888831Y-82516520D01*
X92809903Y-82368855D01*
X92761299Y-82208630D01*
X92744888Y-82042000D01*
X92761299Y-81875370D01*
X92809903Y-81715145D01*
X92888831Y-81567480D01*
X92995051Y-81438051D01*
X93124480Y-81331831D01*
X93272145Y-81252903D01*
X93432370Y-81204299D01*
X93557248Y-81192000D01*
X93640752Y-81192000D01*
X93765630Y-81204299D01*
X93765630Y-81204299D01*
G37*
G36*
X98845630Y-81204299D02*
X99005855Y-81252903D01*
X99153520Y-81331831D01*
X99282949Y-81438051D01*
X99389169Y-81567480D01*
X99468097Y-81715145D01*
X99516701Y-81875370D01*
X99533112Y-82042000D01*
X99516701Y-82208630D01*
X99468097Y-82368855D01*
X99389169Y-82516520D01*
X99282949Y-82645949D01*
X99153520Y-82752169D01*
X99005855Y-82831097D01*
X98845630Y-82879701D01*
X98720752Y-82892000D01*
X98637248Y-82892000D01*
X98512370Y-82879701D01*
X98352145Y-82831097D01*
X98204480Y-82752169D01*
X98075051Y-82645949D01*
X97968831Y-82516520D01*
X97889903Y-82368855D01*
X97841299Y-82208630D01*
X97824888Y-82042000D01*
X97841299Y-81875370D01*
X97889903Y-81715145D01*
X97968831Y-81567480D01*
X98075051Y-81438051D01*
X98204480Y-81331831D01*
X98352145Y-81252903D01*
X98512370Y-81204299D01*
X98637248Y-81192000D01*
X98720752Y-81192000D01*
X98845630Y-81204299D01*
X98845630Y-81204299D01*
G37*
G36*
X141136630Y-81204299D02*
X141296855Y-81252903D01*
X141444520Y-81331831D01*
X141573949Y-81438051D01*
X141680169Y-81567480D01*
X141759097Y-81715145D01*
X141807701Y-81875370D01*
X141824112Y-82042000D01*
X141807701Y-82208630D01*
X141759097Y-82368855D01*
X141680169Y-82516520D01*
X141573949Y-82645949D01*
X141444520Y-82752169D01*
X141296855Y-82831097D01*
X141136630Y-82879701D01*
X141011752Y-82892000D01*
X140928248Y-82892000D01*
X140803370Y-82879701D01*
X140643145Y-82831097D01*
X140495480Y-82752169D01*
X140366051Y-82645949D01*
X140259831Y-82516520D01*
X140180903Y-82368855D01*
X140132299Y-82208630D01*
X140115888Y-82042000D01*
X140132299Y-81875370D01*
X140180903Y-81715145D01*
X140259831Y-81567480D01*
X140366051Y-81438051D01*
X140495480Y-81331831D01*
X140643145Y-81252903D01*
X140803370Y-81204299D01*
X140928248Y-81192000D01*
X141011752Y-81192000D01*
X141136630Y-81204299D01*
X141136630Y-81204299D01*
G37*
G36*
X96305630Y-81204299D02*
X96465855Y-81252903D01*
X96613520Y-81331831D01*
X96742949Y-81438051D01*
X96849169Y-81567480D01*
X96928097Y-81715145D01*
X96976701Y-81875370D01*
X96993112Y-82042000D01*
X96976701Y-82208630D01*
X96928097Y-82368855D01*
X96849169Y-82516520D01*
X96742949Y-82645949D01*
X96613520Y-82752169D01*
X96465855Y-82831097D01*
X96305630Y-82879701D01*
X96180752Y-82892000D01*
X96097248Y-82892000D01*
X95972370Y-82879701D01*
X95812145Y-82831097D01*
X95664480Y-82752169D01*
X95535051Y-82645949D01*
X95428831Y-82516520D01*
X95349903Y-82368855D01*
X95301299Y-82208630D01*
X95284888Y-82042000D01*
X95301299Y-81875370D01*
X95349903Y-81715145D01*
X95428831Y-81567480D01*
X95535051Y-81438051D01*
X95664480Y-81331831D01*
X95812145Y-81252903D01*
X95972370Y-81204299D01*
X96097248Y-81192000D01*
X96180752Y-81192000D01*
X96305630Y-81204299D01*
X96305630Y-81204299D01*
G37*
G36*
X143676630Y-81204299D02*
X143836855Y-81252903D01*
X143984520Y-81331831D01*
X144113949Y-81438051D01*
X144220169Y-81567480D01*
X144299097Y-81715145D01*
X144347701Y-81875370D01*
X144364112Y-82042000D01*
X144347701Y-82208630D01*
X144299097Y-82368855D01*
X144220169Y-82516520D01*
X144113949Y-82645949D01*
X143984520Y-82752169D01*
X143836855Y-82831097D01*
X143676630Y-82879701D01*
X143551752Y-82892000D01*
X143468248Y-82892000D01*
X143343370Y-82879701D01*
X143183145Y-82831097D01*
X143035480Y-82752169D01*
X142906051Y-82645949D01*
X142799831Y-82516520D01*
X142720903Y-82368855D01*
X142672299Y-82208630D01*
X142655888Y-82042000D01*
X142672299Y-81875370D01*
X142720903Y-81715145D01*
X142799831Y-81567480D01*
X142906051Y-81438051D01*
X143035480Y-81331831D01*
X143183145Y-81252903D01*
X143343370Y-81204299D01*
X143468248Y-81192000D01*
X143551752Y-81192000D01*
X143676630Y-81204299D01*
X143676630Y-81204299D01*
G37*
G36*
X146900000Y-82892000D02*
X145200000Y-82892000D01*
X145200000Y-81192000D01*
X146900000Y-81192000D01*
X146900000Y-82892000D01*
X146900000Y-82892000D01*
G37*
G36*
X109005630Y-81204299D02*
X109165855Y-81252903D01*
X109313520Y-81331831D01*
X109442949Y-81438051D01*
X109549169Y-81567480D01*
X109628097Y-81715145D01*
X109676701Y-81875370D01*
X109693112Y-82042000D01*
X109676701Y-82208630D01*
X109628097Y-82368855D01*
X109549169Y-82516520D01*
X109442949Y-82645949D01*
X109313520Y-82752169D01*
X109165855Y-82831097D01*
X109005630Y-82879701D01*
X108880752Y-82892000D01*
X108797248Y-82892000D01*
X108672370Y-82879701D01*
X108512145Y-82831097D01*
X108364480Y-82752169D01*
X108235051Y-82645949D01*
X108128831Y-82516520D01*
X108049903Y-82368855D01*
X108001299Y-82208630D01*
X107984888Y-82042000D01*
X108001299Y-81875370D01*
X108049903Y-81715145D01*
X108128831Y-81567480D01*
X108235051Y-81438051D01*
X108364480Y-81331831D01*
X108512145Y-81252903D01*
X108672370Y-81204299D01*
X108797248Y-81192000D01*
X108880752Y-81192000D01*
X109005630Y-81204299D01*
X109005630Y-81204299D01*
G37*
G36*
X106465630Y-81204299D02*
X106625855Y-81252903D01*
X106773520Y-81331831D01*
X106902949Y-81438051D01*
X107009169Y-81567480D01*
X107088097Y-81715145D01*
X107136701Y-81875370D01*
X107153112Y-82042000D01*
X107136701Y-82208630D01*
X107088097Y-82368855D01*
X107009169Y-82516520D01*
X106902949Y-82645949D01*
X106773520Y-82752169D01*
X106625855Y-82831097D01*
X106465630Y-82879701D01*
X106340752Y-82892000D01*
X106257248Y-82892000D01*
X106132370Y-82879701D01*
X105972145Y-82831097D01*
X105824480Y-82752169D01*
X105695051Y-82645949D01*
X105588831Y-82516520D01*
X105509903Y-82368855D01*
X105461299Y-82208630D01*
X105444888Y-82042000D01*
X105461299Y-81875370D01*
X105509903Y-81715145D01*
X105588831Y-81567480D01*
X105695051Y-81438051D01*
X105824480Y-81331831D01*
X105972145Y-81252903D01*
X106132370Y-81204299D01*
X106257248Y-81192000D01*
X106340752Y-81192000D01*
X106465630Y-81204299D01*
X106465630Y-81204299D01*
G37*
G36*
X84608352Y-80256743D02*
X84753941Y-80317048D01*
X84884973Y-80404601D01*
X84996399Y-80516027D01*
X85083952Y-80647059D01*
X85144257Y-80792648D01*
X85175000Y-80947205D01*
X85175000Y-81104795D01*
X85144257Y-81259352D01*
X85083952Y-81404941D01*
X84996399Y-81535973D01*
X84884973Y-81647399D01*
X84753941Y-81734952D01*
X84608352Y-81795257D01*
X84453795Y-81826000D01*
X84296205Y-81826000D01*
X84141648Y-81795257D01*
X83996059Y-81734952D01*
X83865027Y-81647399D01*
X83753601Y-81535973D01*
X83666048Y-81404941D01*
X83605743Y-81259352D01*
X83575000Y-81104795D01*
X83575000Y-80947205D01*
X83605743Y-80792648D01*
X83666048Y-80647059D01*
X83753601Y-80516027D01*
X83865027Y-80404601D01*
X83996059Y-80317048D01*
X84141648Y-80256743D01*
X84296205Y-80226000D01*
X84453795Y-80226000D01*
X84608352Y-80256743D01*
X84608352Y-80256743D01*
G37*
G36*
X79608352Y-80256743D02*
X79753941Y-80317048D01*
X79884973Y-80404601D01*
X79996399Y-80516027D01*
X80083952Y-80647059D01*
X80144257Y-80792648D01*
X80175000Y-80947205D01*
X80175000Y-81104795D01*
X80144257Y-81259352D01*
X80083952Y-81404941D01*
X79996399Y-81535973D01*
X79884973Y-81647399D01*
X79753941Y-81734952D01*
X79608352Y-81795257D01*
X79453795Y-81826000D01*
X79296205Y-81826000D01*
X79141648Y-81795257D01*
X78996059Y-81734952D01*
X78865027Y-81647399D01*
X78753601Y-81535973D01*
X78666048Y-81404941D01*
X78605743Y-81259352D01*
X78575000Y-81104795D01*
X78575000Y-80947205D01*
X78605743Y-80792648D01*
X78666048Y-80647059D01*
X78753601Y-80516027D01*
X78865027Y-80404601D01*
X78996059Y-80317048D01*
X79141648Y-80256743D01*
X79296205Y-80226000D01*
X79453795Y-80226000D01*
X79608352Y-80256743D01*
X79608352Y-80256743D01*
G37*
G36*
X129803649Y-79598717D02*
X129842827Y-79602576D01*
X129918227Y-79625448D01*
X129993629Y-79648321D01*
X130132608Y-79722608D01*
X130254422Y-79822578D01*
X130354392Y-79944392D01*
X130428679Y-80083371D01*
X130428679Y-80083372D01*
X130474424Y-80234173D01*
X130482644Y-80317629D01*
X130489870Y-80391000D01*
X130474424Y-80547826D01*
X130428679Y-80698629D01*
X130354392Y-80837608D01*
X130254422Y-80959422D01*
X130132608Y-81059392D01*
X129993629Y-81133679D01*
X129918228Y-81156551D01*
X129842827Y-81179424D01*
X129803649Y-81183283D01*
X129725295Y-81191000D01*
X128846705Y-81191000D01*
X128768351Y-81183283D01*
X128729173Y-81179424D01*
X128653773Y-81156552D01*
X128578371Y-81133679D01*
X128439392Y-81059392D01*
X128317578Y-80959422D01*
X128217608Y-80837608D01*
X128143321Y-80698629D01*
X128097576Y-80547826D01*
X128082130Y-80391000D01*
X128089356Y-80317629D01*
X128097576Y-80234173D01*
X128143321Y-80083372D01*
X128143321Y-80083371D01*
X128217608Y-79944392D01*
X128317578Y-79822578D01*
X128439392Y-79722608D01*
X128578371Y-79648321D01*
X128653773Y-79625448D01*
X128729173Y-79602576D01*
X128768351Y-79598717D01*
X128846705Y-79591000D01*
X129725295Y-79591000D01*
X129803649Y-79598717D01*
X129803649Y-79598717D01*
G37*
G36*
X122183649Y-79598717D02*
X122222827Y-79602576D01*
X122298227Y-79625448D01*
X122373629Y-79648321D01*
X122512608Y-79722608D01*
X122634422Y-79822578D01*
X122734392Y-79944392D01*
X122808679Y-80083371D01*
X122808679Y-80083372D01*
X122854424Y-80234173D01*
X122862644Y-80317629D01*
X122869870Y-80391000D01*
X122854424Y-80547826D01*
X122808679Y-80698629D01*
X122734392Y-80837608D01*
X122634422Y-80959422D01*
X122512608Y-81059392D01*
X122373629Y-81133679D01*
X122298228Y-81156551D01*
X122222827Y-81179424D01*
X122183649Y-81183283D01*
X122105295Y-81191000D01*
X121226705Y-81191000D01*
X121148351Y-81183283D01*
X121109173Y-81179424D01*
X121033773Y-81156552D01*
X120958371Y-81133679D01*
X120819392Y-81059392D01*
X120697578Y-80959422D01*
X120597608Y-80837608D01*
X120523321Y-80698629D01*
X120477576Y-80547826D01*
X120462130Y-80391000D01*
X120469356Y-80317629D01*
X120477576Y-80234173D01*
X120523321Y-80083372D01*
X120523321Y-80083371D01*
X120597608Y-79944392D01*
X120697578Y-79822578D01*
X120819392Y-79722608D01*
X120958371Y-79648321D01*
X121033773Y-79625448D01*
X121109173Y-79602576D01*
X121148351Y-79598717D01*
X121226705Y-79591000D01*
X122105295Y-79591000D01*
X122183649Y-79598717D01*
X122183649Y-79598717D01*
G37*
G36*
X117719649Y-79217717D02*
X117758827Y-79221576D01*
X117834227Y-79244448D01*
X117909629Y-79267321D01*
X118048608Y-79341608D01*
X118170422Y-79441578D01*
X118270392Y-79563392D01*
X118344679Y-79702371D01*
X118344679Y-79702372D01*
X118390424Y-79853173D01*
X118405870Y-80010000D01*
X118390424Y-80166827D01*
X118367551Y-80242228D01*
X118344679Y-80317629D01*
X118270392Y-80456608D01*
X118170422Y-80578422D01*
X118048608Y-80678392D01*
X117909629Y-80752679D01*
X117834227Y-80775552D01*
X117758827Y-80798424D01*
X117719649Y-80802283D01*
X117641295Y-80810000D01*
X117562705Y-80810000D01*
X117484351Y-80802283D01*
X117445173Y-80798424D01*
X117369773Y-80775552D01*
X117294371Y-80752679D01*
X117155392Y-80678392D01*
X117033578Y-80578422D01*
X116933608Y-80456608D01*
X116859321Y-80317629D01*
X116836448Y-80242227D01*
X116813576Y-80166827D01*
X116798130Y-80010000D01*
X116813576Y-79853173D01*
X116859321Y-79702372D01*
X116859321Y-79702371D01*
X116933608Y-79563392D01*
X117033578Y-79441578D01*
X117155392Y-79341608D01*
X117294371Y-79267321D01*
X117369773Y-79244448D01*
X117445173Y-79221576D01*
X117484351Y-79217717D01*
X117562705Y-79210000D01*
X117641295Y-79210000D01*
X117719649Y-79217717D01*
X117719649Y-79217717D01*
G37*
G36*
X153166757Y-72153718D02*
X153894710Y-72455246D01*
X154367269Y-72771000D01*
X154549854Y-72892999D01*
X155107001Y-73450146D01*
X155107003Y-73450149D01*
X155544754Y-74105290D01*
X155846282Y-74833243D01*
X155846282Y-74833244D01*
X156000000Y-75606033D01*
X156000000Y-76393967D01*
X155992294Y-76432706D01*
X155846282Y-77166757D01*
X155544754Y-77894710D01*
X155201666Y-78408178D01*
X155107001Y-78549854D01*
X154549854Y-79107001D01*
X154549851Y-79107003D01*
X153894710Y-79544754D01*
X153166757Y-79846282D01*
X152780361Y-79923141D01*
X152393967Y-80000000D01*
X151606033Y-80000000D01*
X151219639Y-79923141D01*
X150833243Y-79846282D01*
X150105290Y-79544754D01*
X149450149Y-79107003D01*
X149450146Y-79107001D01*
X148892999Y-78549854D01*
X148798334Y-78408178D01*
X148455246Y-77894710D01*
X148153718Y-77166757D01*
X148007706Y-76432706D01*
X148000000Y-76393967D01*
X148000000Y-75606033D01*
X148153718Y-74833244D01*
X148153718Y-74833243D01*
X148455246Y-74105290D01*
X148892997Y-73450149D01*
X148892999Y-73450146D01*
X149450146Y-72892999D01*
X149632731Y-72771000D01*
X150105290Y-72455246D01*
X150833243Y-72153718D01*
X151606033Y-72000000D01*
X152393967Y-72000000D01*
X153166757Y-72153718D01*
X153166757Y-72153718D01*
G37*
G36*
X72166757Y-72153718D02*
X72894710Y-72455246D01*
X73367269Y-72771000D01*
X73549854Y-72892999D01*
X74107001Y-73450146D01*
X74107003Y-73450149D01*
X74544754Y-74105290D01*
X74846282Y-74833243D01*
X74846282Y-74833244D01*
X75000000Y-75606033D01*
X75000000Y-76393967D01*
X74992294Y-76432706D01*
X74846282Y-77166757D01*
X74544754Y-77894710D01*
X74201666Y-78408178D01*
X74107001Y-78549854D01*
X73549854Y-79107001D01*
X73549851Y-79107003D01*
X72894710Y-79544754D01*
X72166757Y-79846282D01*
X71780361Y-79923141D01*
X71393967Y-80000000D01*
X70606033Y-80000000D01*
X70219639Y-79923141D01*
X69833243Y-79846282D01*
X69105290Y-79544754D01*
X68450149Y-79107003D01*
X68450146Y-79107001D01*
X67892999Y-78549854D01*
X67798334Y-78408178D01*
X67455246Y-77894710D01*
X67153718Y-77166757D01*
X67007706Y-76432706D01*
X67000000Y-76393967D01*
X67000000Y-75606033D01*
X67153718Y-74833244D01*
X67153718Y-74833243D01*
X67455246Y-74105290D01*
X67892997Y-73450149D01*
X67892999Y-73450146D01*
X68450146Y-72892999D01*
X68632731Y-72771000D01*
X69105290Y-72455246D01*
X69833243Y-72153718D01*
X70606033Y-72000000D01*
X71393967Y-72000000D01*
X72166757Y-72153718D01*
X72166757Y-72153718D01*
G37*
G36*
X129803649Y-77058717D02*
X129842827Y-77062576D01*
X129918228Y-77085449D01*
X129993629Y-77108321D01*
X130132608Y-77182608D01*
X130254422Y-77282578D01*
X130354392Y-77404392D01*
X130428679Y-77543371D01*
X130428679Y-77543372D01*
X130472738Y-77688614D01*
X130474424Y-77694174D01*
X130489870Y-77851000D01*
X130474424Y-78007826D01*
X130428679Y-78158629D01*
X130354392Y-78297608D01*
X130254422Y-78419422D01*
X130132608Y-78519392D01*
X129993629Y-78593679D01*
X129918228Y-78616551D01*
X129842827Y-78639424D01*
X129803649Y-78643283D01*
X129725295Y-78651000D01*
X128846705Y-78651000D01*
X128768351Y-78643283D01*
X128729173Y-78639424D01*
X128653772Y-78616551D01*
X128578371Y-78593679D01*
X128439392Y-78519392D01*
X128317578Y-78419422D01*
X128217608Y-78297608D01*
X128143321Y-78158629D01*
X128097576Y-78007826D01*
X128082130Y-77851000D01*
X128097576Y-77694174D01*
X128099263Y-77688614D01*
X128143321Y-77543372D01*
X128143321Y-77543371D01*
X128217608Y-77404392D01*
X128317578Y-77282578D01*
X128439392Y-77182608D01*
X128578371Y-77108321D01*
X128653772Y-77085449D01*
X128729173Y-77062576D01*
X128768351Y-77058717D01*
X128846705Y-77051000D01*
X129725295Y-77051000D01*
X129803649Y-77058717D01*
X129803649Y-77058717D01*
G37*
G36*
X122183649Y-77058717D02*
X122222827Y-77062576D01*
X122298228Y-77085449D01*
X122373629Y-77108321D01*
X122512608Y-77182608D01*
X122634422Y-77282578D01*
X122734392Y-77404392D01*
X122808679Y-77543371D01*
X122808679Y-77543372D01*
X122852738Y-77688614D01*
X122854424Y-77694174D01*
X122869870Y-77851000D01*
X122854424Y-78007826D01*
X122808679Y-78158629D01*
X122734392Y-78297608D01*
X122634422Y-78419422D01*
X122512608Y-78519392D01*
X122373629Y-78593679D01*
X122298228Y-78616551D01*
X122222827Y-78639424D01*
X122183649Y-78643283D01*
X122105295Y-78651000D01*
X121226705Y-78651000D01*
X121148351Y-78643283D01*
X121109173Y-78639424D01*
X121033772Y-78616551D01*
X120958371Y-78593679D01*
X120819392Y-78519392D01*
X120697578Y-78419422D01*
X120597608Y-78297608D01*
X120523321Y-78158629D01*
X120477576Y-78007826D01*
X120462130Y-77851000D01*
X120477576Y-77694174D01*
X120479263Y-77688614D01*
X120523321Y-77543372D01*
X120523321Y-77543371D01*
X120597608Y-77404392D01*
X120697578Y-77282578D01*
X120819392Y-77182608D01*
X120958371Y-77108321D01*
X121033772Y-77085449D01*
X121109173Y-77062576D01*
X121148351Y-77058717D01*
X121226705Y-77051000D01*
X122105295Y-77051000D01*
X122183649Y-77058717D01*
X122183649Y-77058717D01*
G37*
G36*
X129795838Y-74517948D02*
X129842827Y-74522576D01*
X129885105Y-74535401D01*
X129993629Y-74568321D01*
X130132608Y-74642608D01*
X130254422Y-74742578D01*
X130354392Y-74864392D01*
X130428679Y-75003371D01*
X130474424Y-75154174D01*
X130489870Y-75311000D01*
X130474424Y-75467826D01*
X130428679Y-75618629D01*
X130354392Y-75757608D01*
X130254422Y-75879422D01*
X130132608Y-75979392D01*
X129993629Y-76053679D01*
X129918228Y-76076551D01*
X129842827Y-76099424D01*
X129803649Y-76103283D01*
X129725295Y-76111000D01*
X128846705Y-76111000D01*
X128768351Y-76103283D01*
X128729173Y-76099424D01*
X128653772Y-76076551D01*
X128578371Y-76053679D01*
X128439392Y-75979392D01*
X128317578Y-75879422D01*
X128217608Y-75757608D01*
X128143321Y-75618629D01*
X128097576Y-75467826D01*
X128082130Y-75311000D01*
X128097576Y-75154174D01*
X128143321Y-75003371D01*
X128217608Y-74864392D01*
X128317578Y-74742578D01*
X128439392Y-74642608D01*
X128578371Y-74568321D01*
X128686895Y-74535401D01*
X128729173Y-74522576D01*
X128776162Y-74517948D01*
X128846705Y-74511000D01*
X129725295Y-74511000D01*
X129795838Y-74517948D01*
X129795838Y-74517948D01*
G37*
G36*
X122175838Y-74517948D02*
X122222827Y-74522576D01*
X122265105Y-74535401D01*
X122373629Y-74568321D01*
X122512608Y-74642608D01*
X122634422Y-74742578D01*
X122734392Y-74864392D01*
X122808679Y-75003371D01*
X122854424Y-75154174D01*
X122869870Y-75311000D01*
X122854424Y-75467826D01*
X122808679Y-75618629D01*
X122734392Y-75757608D01*
X122634422Y-75879422D01*
X122512608Y-75979392D01*
X122373629Y-76053679D01*
X122298228Y-76076551D01*
X122222827Y-76099424D01*
X122183649Y-76103283D01*
X122105295Y-76111000D01*
X121226705Y-76111000D01*
X121148351Y-76103283D01*
X121109173Y-76099424D01*
X121033772Y-76076551D01*
X120958371Y-76053679D01*
X120819392Y-75979392D01*
X120697578Y-75879422D01*
X120597608Y-75757608D01*
X120523321Y-75618629D01*
X120477576Y-75467826D01*
X120462130Y-75311000D01*
X120477576Y-75154174D01*
X120523321Y-75003371D01*
X120597608Y-74864392D01*
X120697578Y-74742578D01*
X120819392Y-74642608D01*
X120958371Y-74568321D01*
X121066895Y-74535401D01*
X121109173Y-74522576D01*
X121156162Y-74517948D01*
X121226705Y-74511000D01*
X122105295Y-74511000D01*
X122175838Y-74517948D01*
X122175838Y-74517948D01*
G37*
G36*
X102323000Y-74764000D02*
X100623000Y-74764000D01*
X100623000Y-73064000D01*
X102323000Y-73064000D01*
X102323000Y-74764000D01*
X102323000Y-74764000D01*
G37*
G36*
X104179630Y-73076299D02*
X104339855Y-73124903D01*
X104487520Y-73203831D01*
X104616949Y-73310051D01*
X104723169Y-73439480D01*
X104802097Y-73587145D01*
X104850701Y-73747370D01*
X104867112Y-73914000D01*
X104850701Y-74080630D01*
X104802097Y-74240855D01*
X104723169Y-74388520D01*
X104616949Y-74517949D01*
X104487520Y-74624169D01*
X104339855Y-74703097D01*
X104179630Y-74751701D01*
X104054752Y-74764000D01*
X103971248Y-74764000D01*
X103846370Y-74751701D01*
X103686145Y-74703097D01*
X103538480Y-74624169D01*
X103409051Y-74517949D01*
X103302831Y-74388520D01*
X103223903Y-74240855D01*
X103175299Y-74080630D01*
X103158888Y-73914000D01*
X103175299Y-73747370D01*
X103223903Y-73587145D01*
X103302831Y-73439480D01*
X103409051Y-73310051D01*
X103538480Y-73203831D01*
X103686145Y-73124903D01*
X103846370Y-73076299D01*
X103971248Y-73064000D01*
X104054752Y-73064000D01*
X104179630Y-73076299D01*
X104179630Y-73076299D01*
G37*
G36*
X106719630Y-73076299D02*
X106879855Y-73124903D01*
X107027520Y-73203831D01*
X107156949Y-73310051D01*
X107263169Y-73439480D01*
X107342097Y-73587145D01*
X107390701Y-73747370D01*
X107407112Y-73914000D01*
X107390701Y-74080630D01*
X107342097Y-74240855D01*
X107263169Y-74388520D01*
X107156949Y-74517949D01*
X107027520Y-74624169D01*
X106879855Y-74703097D01*
X106719630Y-74751701D01*
X106594752Y-74764000D01*
X106511248Y-74764000D01*
X106386370Y-74751701D01*
X106226145Y-74703097D01*
X106078480Y-74624169D01*
X105949051Y-74517949D01*
X105842831Y-74388520D01*
X105763903Y-74240855D01*
X105715299Y-74080630D01*
X105698888Y-73914000D01*
X105715299Y-73747370D01*
X105763903Y-73587145D01*
X105842831Y-73439480D01*
X105949051Y-73310051D01*
X106078480Y-73203831D01*
X106226145Y-73124903D01*
X106386370Y-73076299D01*
X106511248Y-73064000D01*
X106594752Y-73064000D01*
X106719630Y-73076299D01*
X106719630Y-73076299D01*
G37*
G36*
X111799630Y-73076299D02*
X111959855Y-73124903D01*
X112107520Y-73203831D01*
X112236949Y-73310051D01*
X112343169Y-73439480D01*
X112422097Y-73587145D01*
X112470701Y-73747370D01*
X112487112Y-73914000D01*
X112470701Y-74080630D01*
X112422097Y-74240855D01*
X112343169Y-74388520D01*
X112236949Y-74517949D01*
X112107520Y-74624169D01*
X111959855Y-74703097D01*
X111799630Y-74751701D01*
X111674752Y-74764000D01*
X111591248Y-74764000D01*
X111466370Y-74751701D01*
X111306145Y-74703097D01*
X111158480Y-74624169D01*
X111029051Y-74517949D01*
X110922831Y-74388520D01*
X110843903Y-74240855D01*
X110795299Y-74080630D01*
X110778888Y-73914000D01*
X110795299Y-73747370D01*
X110843903Y-73587145D01*
X110922831Y-73439480D01*
X111029051Y-73310051D01*
X111158480Y-73203831D01*
X111306145Y-73124903D01*
X111466370Y-73076299D01*
X111591248Y-73064000D01*
X111674752Y-73064000D01*
X111799630Y-73076299D01*
X111799630Y-73076299D01*
G37*
G36*
X109259630Y-73076299D02*
X109419855Y-73124903D01*
X109567520Y-73203831D01*
X109696949Y-73310051D01*
X109803169Y-73439480D01*
X109882097Y-73587145D01*
X109930701Y-73747370D01*
X109947112Y-73914000D01*
X109930701Y-74080630D01*
X109882097Y-74240855D01*
X109803169Y-74388520D01*
X109696949Y-74517949D01*
X109567520Y-74624169D01*
X109419855Y-74703097D01*
X109259630Y-74751701D01*
X109134752Y-74764000D01*
X109051248Y-74764000D01*
X108926370Y-74751701D01*
X108766145Y-74703097D01*
X108618480Y-74624169D01*
X108489051Y-74517949D01*
X108382831Y-74388520D01*
X108303903Y-74240855D01*
X108255299Y-74080630D01*
X108238888Y-73914000D01*
X108255299Y-73747370D01*
X108303903Y-73587145D01*
X108382831Y-73439480D01*
X108489051Y-73310051D01*
X108618480Y-73203831D01*
X108766145Y-73124903D01*
X108926370Y-73076299D01*
X109051248Y-73064000D01*
X109134752Y-73064000D01*
X109259630Y-73076299D01*
X109259630Y-73076299D01*
G37*
G36*
X90541649Y-73121717D02*
X90580827Y-73125576D01*
X90644012Y-73144743D01*
X90731629Y-73171321D01*
X90870608Y-73245608D01*
X90992422Y-73345578D01*
X91092392Y-73467392D01*
X91166679Y-73606371D01*
X91166679Y-73606372D01*
X91212424Y-73757173D01*
X91227870Y-73914000D01*
X91212424Y-74070827D01*
X91209450Y-74080630D01*
X91166679Y-74221629D01*
X91092392Y-74360608D01*
X90992422Y-74482422D01*
X90870608Y-74582392D01*
X90731629Y-74656679D01*
X90656227Y-74679552D01*
X90580827Y-74702424D01*
X90541649Y-74706283D01*
X90463295Y-74714000D01*
X90384705Y-74714000D01*
X90306351Y-74706283D01*
X90267173Y-74702424D01*
X90191773Y-74679552D01*
X90116371Y-74656679D01*
X89977392Y-74582392D01*
X89855578Y-74482422D01*
X89755608Y-74360608D01*
X89681321Y-74221629D01*
X89638550Y-74080630D01*
X89635576Y-74070827D01*
X89620130Y-73914000D01*
X89635576Y-73757173D01*
X89681321Y-73606372D01*
X89681321Y-73606371D01*
X89755608Y-73467392D01*
X89855578Y-73345578D01*
X89977392Y-73245608D01*
X90116371Y-73171321D01*
X90203988Y-73144743D01*
X90267173Y-73125576D01*
X90306351Y-73121717D01*
X90384705Y-73114000D01*
X90463295Y-73114000D01*
X90541649Y-73121717D01*
X90541649Y-73121717D01*
G37*
G36*
X95737352Y-73144743D02*
X95882941Y-73205048D01*
X96013973Y-73292601D01*
X96125399Y-73404027D01*
X96212952Y-73535059D01*
X96273257Y-73680648D01*
X96304000Y-73835205D01*
X96304000Y-73992795D01*
X96273257Y-74147352D01*
X96212952Y-74292941D01*
X96125399Y-74423973D01*
X96013973Y-74535399D01*
X95882941Y-74622952D01*
X95737352Y-74683257D01*
X95582795Y-74714000D01*
X95425205Y-74714000D01*
X95270648Y-74683257D01*
X95125059Y-74622952D01*
X94994027Y-74535399D01*
X94882601Y-74423973D01*
X94795048Y-74292941D01*
X94734743Y-74147352D01*
X94704000Y-73992795D01*
X94704000Y-73835205D01*
X94734743Y-73680648D01*
X94795048Y-73535059D01*
X94882601Y-73404027D01*
X94994027Y-73292601D01*
X95125059Y-73205048D01*
X95270648Y-73144743D01*
X95425205Y-73114000D01*
X95582795Y-73114000D01*
X95737352Y-73144743D01*
X95737352Y-73144743D01*
G37*
G36*
X122866000Y-73571000D02*
X120466000Y-73571000D01*
X120466000Y-71971000D01*
X122866000Y-71971000D01*
X122866000Y-73571000D01*
X122866000Y-73571000D01*
G37*
G36*
X129803649Y-71978717D02*
X129842827Y-71982576D01*
X129900266Y-72000000D01*
X129993629Y-72028321D01*
X130132608Y-72102608D01*
X130254422Y-72202578D01*
X130354392Y-72324392D01*
X130428679Y-72463371D01*
X130428679Y-72463372D01*
X130474424Y-72614173D01*
X130489870Y-72771000D01*
X130480244Y-72868740D01*
X130474424Y-72927826D01*
X130428679Y-73078629D01*
X130354392Y-73217608D01*
X130254422Y-73339422D01*
X130132608Y-73439392D01*
X129993629Y-73513679D01*
X129923151Y-73535058D01*
X129842827Y-73559424D01*
X129803649Y-73563283D01*
X129725295Y-73571000D01*
X128846705Y-73571000D01*
X128768351Y-73563283D01*
X128729173Y-73559424D01*
X128648849Y-73535058D01*
X128578371Y-73513679D01*
X128439392Y-73439392D01*
X128317578Y-73339422D01*
X128217608Y-73217608D01*
X128143321Y-73078629D01*
X128097576Y-72927826D01*
X128091757Y-72868740D01*
X128082130Y-72771000D01*
X128097576Y-72614173D01*
X128143321Y-72463372D01*
X128143321Y-72463371D01*
X128217608Y-72324392D01*
X128317578Y-72202578D01*
X128439392Y-72102608D01*
X128578371Y-72028321D01*
X128671734Y-72000000D01*
X128729173Y-71982576D01*
X128768351Y-71978717D01*
X128846705Y-71971000D01*
X129725295Y-71971000D01*
X129803649Y-71978717D01*
X129803649Y-71978717D01*
G37*
G36*
X118402000Y-73190000D02*
X116802000Y-73190000D01*
X116802000Y-71590000D01*
X118402000Y-71590000D01*
X118402000Y-73190000D01*
X118402000Y-73190000D01*
G37*
M02*
