G04 #@! TF.GenerationSoftware,KiCad,Pcbnew,5.0.2+dfsg1-1~bpo9+1*
G04 #@! TF.CreationDate,2022-10-20T11:28:44+02:00*
G04 #@! TF.ProjectId,nanosynth,6e616e6f-7379-46e7-9468-2e6b69636164,V.01*
G04 #@! TF.SameCoordinates,Original*
G04 #@! TF.FileFunction,Legend,Top*
G04 #@! TF.FilePolarity,Positive*
%FSLAX46Y46*%
G04 Gerber Fmt 4.6, Leading zero omitted, Abs format (unit mm)*
G04 Created by KiCad (PCBNEW 5.0.2+dfsg1-1~bpo9+1) date Do 20 Okt 2022 11:28:44 CEST*
%MOMM*%
%LPD*%
G01*
G04 APERTURE LIST*
%ADD10C,0.300000*%
%ADD11C,0.120000*%
%ADD12C,0.381000*%
%ADD13C,0.150000*%
%ADD14C,0.203200*%
%ADD15O,1.700000X1.700000*%
%ADD16R,1.700000X1.700000*%
%ADD17C,1.440000*%
%ADD18C,1.600000*%
%ADD19R,1.600000X1.600000*%
%ADD20O,1.600000X1.600000*%
%ADD21O,1.524000X2.199640*%
%ADD22O,1.524000X2.197100*%
%ADD23O,1.800000X2.800000*%
%ADD24R,3.500000X3.500000*%
%ADD25C,0.100000*%
%ADD26C,3.000000*%
%ADD27C,3.500000*%
%ADD28R,2.400000X1.600000*%
%ADD29O,2.400000X1.600000*%
%ADD30C,0.900000*%
%ADD31C,8.000000*%
G04 APERTURE END LIST*
D10*
X99668285Y-93754571D02*
X99668285Y-92254571D01*
X100525428Y-93754571D01*
X100525428Y-92254571D01*
X101882571Y-93754571D02*
X101882571Y-92968857D01*
X101811142Y-92826000D01*
X101668285Y-92754571D01*
X101382571Y-92754571D01*
X101239714Y-92826000D01*
X101882571Y-93683142D02*
X101739714Y-93754571D01*
X101382571Y-93754571D01*
X101239714Y-93683142D01*
X101168285Y-93540285D01*
X101168285Y-93397428D01*
X101239714Y-93254571D01*
X101382571Y-93183142D01*
X101739714Y-93183142D01*
X101882571Y-93111714D01*
X102596857Y-92754571D02*
X102596857Y-93754571D01*
X102596857Y-92897428D02*
X102668285Y-92826000D01*
X102811142Y-92754571D01*
X103025428Y-92754571D01*
X103168285Y-92826000D01*
X103239714Y-92968857D01*
X103239714Y-93754571D01*
X104168285Y-93754571D02*
X104025428Y-93683142D01*
X103954000Y-93611714D01*
X103882571Y-93468857D01*
X103882571Y-93040285D01*
X103954000Y-92897428D01*
X104025428Y-92826000D01*
X104168285Y-92754571D01*
X104382571Y-92754571D01*
X104525428Y-92826000D01*
X104596857Y-92897428D01*
X104668285Y-93040285D01*
X104668285Y-93468857D01*
X104596857Y-93611714D01*
X104525428Y-93683142D01*
X104382571Y-93754571D01*
X104168285Y-93754571D01*
X105239714Y-93683142D02*
X105454000Y-93754571D01*
X105811142Y-93754571D01*
X105954000Y-93683142D01*
X106025428Y-93611714D01*
X106096857Y-93468857D01*
X106096857Y-93326000D01*
X106025428Y-93183142D01*
X105954000Y-93111714D01*
X105811142Y-93040285D01*
X105525428Y-92968857D01*
X105382571Y-92897428D01*
X105311142Y-92826000D01*
X105239714Y-92683142D01*
X105239714Y-92540285D01*
X105311142Y-92397428D01*
X105382571Y-92326000D01*
X105525428Y-92254571D01*
X105882571Y-92254571D01*
X106096857Y-92326000D01*
X106596857Y-92754571D02*
X106954000Y-93754571D01*
X107311142Y-92754571D02*
X106954000Y-93754571D01*
X106811142Y-94111714D01*
X106739714Y-94183142D01*
X106596857Y-94254571D01*
X107882571Y-92754571D02*
X107882571Y-93754571D01*
X107882571Y-92897428D02*
X107954000Y-92826000D01*
X108096857Y-92754571D01*
X108311142Y-92754571D01*
X108454000Y-92826000D01*
X108525428Y-92968857D01*
X108525428Y-93754571D01*
X109025428Y-92754571D02*
X109596857Y-92754571D01*
X109239714Y-92254571D02*
X109239714Y-93540285D01*
X109311142Y-93683142D01*
X109454000Y-93754571D01*
X109596857Y-93754571D01*
X110096857Y-93754571D02*
X110096857Y-92254571D01*
X110739714Y-93754571D02*
X110739714Y-92968857D01*
X110668285Y-92826000D01*
X110525428Y-92754571D01*
X110311142Y-92754571D01*
X110168285Y-92826000D01*
X110096857Y-92897428D01*
X112382571Y-92254571D02*
X112882571Y-93754571D01*
X113382571Y-92254571D01*
X114668285Y-93754571D02*
X113811142Y-93754571D01*
X114239714Y-93754571D02*
X114239714Y-92254571D01*
X114096857Y-92468857D01*
X113954000Y-92611714D01*
X113811142Y-92683142D01*
X115311142Y-93611714D02*
X115382571Y-93683142D01*
X115311142Y-93754571D01*
X115239714Y-93683142D01*
X115311142Y-93611714D01*
X115311142Y-93754571D01*
X116311142Y-92254571D02*
X116454000Y-92254571D01*
X116596857Y-92326000D01*
X116668285Y-92397428D01*
X116739714Y-92540285D01*
X116811142Y-92826000D01*
X116811142Y-93183142D01*
X116739714Y-93468857D01*
X116668285Y-93611714D01*
X116596857Y-93683142D01*
X116454000Y-93754571D01*
X116311142Y-93754571D01*
X116168285Y-93683142D01*
X116096857Y-93611714D01*
X116025428Y-93468857D01*
X115954000Y-93183142D01*
X115954000Y-92826000D01*
X116025428Y-92540285D01*
X116096857Y-92397428D01*
X116168285Y-92326000D01*
X116311142Y-92254571D01*
X95489714Y-96304571D02*
X95489714Y-94804571D01*
X95489714Y-95376000D02*
X95632571Y-95304571D01*
X95918285Y-95304571D01*
X96061142Y-95376000D01*
X96132571Y-95447428D01*
X96204000Y-95590285D01*
X96204000Y-96018857D01*
X96132571Y-96161714D01*
X96061142Y-96233142D01*
X95918285Y-96304571D01*
X95632571Y-96304571D01*
X95489714Y-96233142D01*
X96704000Y-95304571D02*
X97061142Y-96304571D01*
X97418285Y-95304571D02*
X97061142Y-96304571D01*
X96918285Y-96661714D01*
X96846857Y-96733142D01*
X96704000Y-96804571D01*
X99418285Y-94804571D02*
X99704000Y-94804571D01*
X99846857Y-94876000D01*
X99989714Y-95018857D01*
X100061142Y-95304571D01*
X100061142Y-95804571D01*
X99989714Y-96090285D01*
X99846857Y-96233142D01*
X99704000Y-96304571D01*
X99418285Y-96304571D01*
X99275428Y-96233142D01*
X99132571Y-96090285D01*
X99061142Y-95804571D01*
X99061142Y-95304571D01*
X99132571Y-95018857D01*
X99275428Y-94876000D01*
X99418285Y-94804571D01*
X100704000Y-95304571D02*
X100704000Y-96804571D01*
X100704000Y-95376000D02*
X100846857Y-95304571D01*
X101132571Y-95304571D01*
X101275428Y-95376000D01*
X101346857Y-95447428D01*
X101418285Y-95590285D01*
X101418285Y-96018857D01*
X101346857Y-96161714D01*
X101275428Y-96233142D01*
X101132571Y-96304571D01*
X100846857Y-96304571D01*
X100704000Y-96233142D01*
X102632571Y-96233142D02*
X102489714Y-96304571D01*
X102204000Y-96304571D01*
X102061142Y-96233142D01*
X101989714Y-96090285D01*
X101989714Y-95518857D01*
X102061142Y-95376000D01*
X102204000Y-95304571D01*
X102489714Y-95304571D01*
X102632571Y-95376000D01*
X102704000Y-95518857D01*
X102704000Y-95661714D01*
X101989714Y-95804571D01*
X103346857Y-95304571D02*
X103346857Y-96304571D01*
X103346857Y-95447428D02*
X103418285Y-95376000D01*
X103561142Y-95304571D01*
X103775428Y-95304571D01*
X103918285Y-95376000D01*
X103989714Y-95518857D01*
X103989714Y-96304571D01*
X104704000Y-95518857D02*
X105204000Y-95518857D01*
X105418285Y-96304571D02*
X104704000Y-96304571D01*
X104704000Y-94804571D01*
X105418285Y-94804571D01*
X106704000Y-96233142D02*
X106561142Y-96304571D01*
X106275428Y-96304571D01*
X106132571Y-96233142D01*
X106061142Y-96161714D01*
X105989714Y-96018857D01*
X105989714Y-95590285D01*
X106061142Y-95447428D01*
X106132571Y-95376000D01*
X106275428Y-95304571D01*
X106561142Y-95304571D01*
X106704000Y-95376000D01*
X107561142Y-96304571D02*
X107418285Y-96233142D01*
X107346857Y-96161714D01*
X107275428Y-96018857D01*
X107275428Y-95590285D01*
X107346857Y-95447428D01*
X107418285Y-95376000D01*
X107561142Y-95304571D01*
X107775428Y-95304571D01*
X107918285Y-95376000D01*
X107989714Y-95447428D01*
X108061142Y-95590285D01*
X108061142Y-96018857D01*
X107989714Y-96161714D01*
X107918285Y-96233142D01*
X107775428Y-96304571D01*
X107561142Y-96304571D01*
X109418285Y-96304571D02*
X108704000Y-96304571D01*
X108704000Y-94804571D01*
X110561142Y-96304571D02*
X110561142Y-95518857D01*
X110489714Y-95376000D01*
X110346857Y-95304571D01*
X110061142Y-95304571D01*
X109918285Y-95376000D01*
X110561142Y-96233142D02*
X110418285Y-96304571D01*
X110061142Y-96304571D01*
X109918285Y-96233142D01*
X109846857Y-96090285D01*
X109846857Y-95947428D01*
X109918285Y-95804571D01*
X110061142Y-95733142D01*
X110418285Y-95733142D01*
X110561142Y-95661714D01*
X111275428Y-96304571D02*
X111275428Y-94804571D01*
X111275428Y-95376000D02*
X111418285Y-95304571D01*
X111704000Y-95304571D01*
X111846857Y-95376000D01*
X111918285Y-95447428D01*
X111989714Y-95590285D01*
X111989714Y-96018857D01*
X111918285Y-96161714D01*
X111846857Y-96233142D01*
X111704000Y-96304571D01*
X111418285Y-96304571D01*
X111275428Y-96233142D01*
X112561142Y-94947428D02*
X112632571Y-94876000D01*
X112775428Y-94804571D01*
X113132571Y-94804571D01*
X113275428Y-94876000D01*
X113346857Y-94947428D01*
X113418285Y-95090285D01*
X113418285Y-95233142D01*
X113346857Y-95447428D01*
X112489714Y-96304571D01*
X113418285Y-96304571D01*
X114132571Y-96233142D02*
X114132571Y-96304571D01*
X114061142Y-96447428D01*
X113989714Y-96518857D01*
X115846857Y-94947428D02*
X115918285Y-94876000D01*
X116061142Y-94804571D01*
X116418285Y-94804571D01*
X116561142Y-94876000D01*
X116632571Y-94947428D01*
X116704000Y-95090285D01*
X116704000Y-95233142D01*
X116632571Y-95447428D01*
X115775428Y-96304571D01*
X116704000Y-96304571D01*
X117632571Y-94804571D02*
X117775428Y-94804571D01*
X117918285Y-94876000D01*
X117989714Y-94947428D01*
X118061142Y-95090285D01*
X118132571Y-95376000D01*
X118132571Y-95733142D01*
X118061142Y-96018857D01*
X117989714Y-96161714D01*
X117918285Y-96233142D01*
X117775428Y-96304571D01*
X117632571Y-96304571D01*
X117489714Y-96233142D01*
X117418285Y-96161714D01*
X117346857Y-96018857D01*
X117275428Y-95733142D01*
X117275428Y-95376000D01*
X117346857Y-95090285D01*
X117418285Y-94947428D01*
X117489714Y-94876000D01*
X117632571Y-94804571D01*
X118704000Y-94947428D02*
X118775428Y-94876000D01*
X118918285Y-94804571D01*
X119275428Y-94804571D01*
X119418285Y-94876000D01*
X119489714Y-94947428D01*
X119561142Y-95090285D01*
X119561142Y-95233142D01*
X119489714Y-95447428D01*
X118632571Y-96304571D01*
X119561142Y-96304571D01*
X120132571Y-94947428D02*
X120204000Y-94876000D01*
X120346857Y-94804571D01*
X120704000Y-94804571D01*
X120846857Y-94876000D01*
X120918285Y-94947428D01*
X120989714Y-95090285D01*
X120989714Y-95233142D01*
X120918285Y-95447428D01*
X120061142Y-96304571D01*
X120989714Y-96304571D01*
X101311142Y-98711714D02*
X101239714Y-98783142D01*
X101025428Y-98854571D01*
X100882571Y-98854571D01*
X100668285Y-98783142D01*
X100525428Y-98640285D01*
X100454000Y-98497428D01*
X100382571Y-98211714D01*
X100382571Y-97997428D01*
X100454000Y-97711714D01*
X100525428Y-97568857D01*
X100668285Y-97426000D01*
X100882571Y-97354571D01*
X101025428Y-97354571D01*
X101239714Y-97426000D01*
X101311142Y-97497428D01*
X102811142Y-98711714D02*
X102739714Y-98783142D01*
X102525428Y-98854571D01*
X102382571Y-98854571D01*
X102168285Y-98783142D01*
X102025428Y-98640285D01*
X101954000Y-98497428D01*
X101882571Y-98211714D01*
X101882571Y-97997428D01*
X101954000Y-97711714D01*
X102025428Y-97568857D01*
X102168285Y-97426000D01*
X102382571Y-97354571D01*
X102525428Y-97354571D01*
X102739714Y-97426000D01*
X102811142Y-97497428D01*
X105096857Y-98068857D02*
X105311142Y-98140285D01*
X105382571Y-98211714D01*
X105454000Y-98354571D01*
X105454000Y-98568857D01*
X105382571Y-98711714D01*
X105311142Y-98783142D01*
X105168285Y-98854571D01*
X104596857Y-98854571D01*
X104596857Y-97354571D01*
X105096857Y-97354571D01*
X105239714Y-97426000D01*
X105311142Y-97497428D01*
X105382571Y-97640285D01*
X105382571Y-97783142D01*
X105311142Y-97926000D01*
X105239714Y-97997428D01*
X105096857Y-98068857D01*
X104596857Y-98068857D01*
X106382571Y-98140285D02*
X106382571Y-98854571D01*
X105882571Y-97354571D02*
X106382571Y-98140285D01*
X106882571Y-97354571D01*
X107382571Y-98283142D02*
X108525428Y-98283142D01*
X109168285Y-98783142D02*
X109382571Y-98854571D01*
X109739714Y-98854571D01*
X109882571Y-98783142D01*
X109954000Y-98711714D01*
X110025428Y-98568857D01*
X110025428Y-98426000D01*
X109954000Y-98283142D01*
X109882571Y-98211714D01*
X109739714Y-98140285D01*
X109454000Y-98068857D01*
X109311142Y-97997428D01*
X109239714Y-97926000D01*
X109168285Y-97783142D01*
X109168285Y-97640285D01*
X109239714Y-97497428D01*
X109311142Y-97426000D01*
X109454000Y-97354571D01*
X109811142Y-97354571D01*
X110025428Y-97426000D01*
X110596857Y-98426000D02*
X111311142Y-98426000D01*
X110454000Y-98854571D02*
X110954000Y-97354571D01*
X111454000Y-98854571D01*
X113739714Y-97854571D02*
X113739714Y-98854571D01*
X113382571Y-97283142D02*
X113025428Y-98354571D01*
X113954000Y-98354571D01*
X114525428Y-98711714D02*
X114596857Y-98783142D01*
X114525428Y-98854571D01*
X114454000Y-98783142D01*
X114525428Y-98711714D01*
X114525428Y-98854571D01*
X115525428Y-97354571D02*
X115668285Y-97354571D01*
X115811142Y-97426000D01*
X115882571Y-97497428D01*
X115954000Y-97640285D01*
X116025428Y-97926000D01*
X116025428Y-98283142D01*
X115954000Y-98568857D01*
X115882571Y-98711714D01*
X115811142Y-98783142D01*
X115668285Y-98854571D01*
X115525428Y-98854571D01*
X115382571Y-98783142D01*
X115311142Y-98711714D01*
X115239714Y-98568857D01*
X115168285Y-98283142D01*
X115168285Y-97926000D01*
X115239714Y-97640285D01*
X115311142Y-97497428D01*
X115382571Y-97426000D01*
X115525428Y-97354571D01*
X92061142Y-101404571D02*
X92061142Y-99904571D01*
X92704000Y-101404571D02*
X92704000Y-100618857D01*
X92632571Y-100476000D01*
X92489714Y-100404571D01*
X92275428Y-100404571D01*
X92132571Y-100476000D01*
X92061142Y-100547428D01*
X93204000Y-100404571D02*
X93775428Y-100404571D01*
X93418285Y-99904571D02*
X93418285Y-101190285D01*
X93489714Y-101333142D01*
X93632571Y-101404571D01*
X93775428Y-101404571D01*
X94061142Y-100404571D02*
X94632571Y-100404571D01*
X94275428Y-99904571D02*
X94275428Y-101190285D01*
X94346857Y-101333142D01*
X94489714Y-101404571D01*
X94632571Y-101404571D01*
X95132571Y-100404571D02*
X95132571Y-101904571D01*
X95132571Y-100476000D02*
X95275428Y-100404571D01*
X95561142Y-100404571D01*
X95704000Y-100476000D01*
X95775428Y-100547428D01*
X95846857Y-100690285D01*
X95846857Y-101118857D01*
X95775428Y-101261714D01*
X95704000Y-101333142D01*
X95561142Y-101404571D01*
X95275428Y-101404571D01*
X95132571Y-101333142D01*
X96489714Y-101261714D02*
X96561142Y-101333142D01*
X96489714Y-101404571D01*
X96418285Y-101333142D01*
X96489714Y-101261714D01*
X96489714Y-101404571D01*
X96489714Y-100476000D02*
X96561142Y-100547428D01*
X96489714Y-100618857D01*
X96418285Y-100547428D01*
X96489714Y-100476000D01*
X96489714Y-100618857D01*
X98275428Y-99833142D02*
X96989714Y-101761714D01*
X99846857Y-99833142D02*
X98561142Y-101761714D01*
X100561142Y-101404571D02*
X100418285Y-101333142D01*
X100346857Y-101261714D01*
X100275428Y-101118857D01*
X100275428Y-100690285D01*
X100346857Y-100547428D01*
X100418285Y-100476000D01*
X100561142Y-100404571D01*
X100775428Y-100404571D01*
X100918285Y-100476000D01*
X100989714Y-100547428D01*
X101061142Y-100690285D01*
X101061142Y-101118857D01*
X100989714Y-101261714D01*
X100918285Y-101333142D01*
X100775428Y-101404571D01*
X100561142Y-101404571D01*
X101704000Y-100404571D02*
X101704000Y-101904571D01*
X101704000Y-100476000D02*
X101846857Y-100404571D01*
X102132571Y-100404571D01*
X102275428Y-100476000D01*
X102346857Y-100547428D01*
X102418285Y-100690285D01*
X102418285Y-101118857D01*
X102346857Y-101261714D01*
X102275428Y-101333142D01*
X102132571Y-101404571D01*
X101846857Y-101404571D01*
X101704000Y-101333142D01*
X103632571Y-101333142D02*
X103489714Y-101404571D01*
X103204000Y-101404571D01*
X103061142Y-101333142D01*
X102989714Y-101190285D01*
X102989714Y-100618857D01*
X103061142Y-100476000D01*
X103204000Y-100404571D01*
X103489714Y-100404571D01*
X103632571Y-100476000D01*
X103704000Y-100618857D01*
X103704000Y-100761714D01*
X102989714Y-100904571D01*
X104346857Y-100404571D02*
X104346857Y-101404571D01*
X104346857Y-100547428D02*
X104418285Y-100476000D01*
X104561142Y-100404571D01*
X104775428Y-100404571D01*
X104918285Y-100476000D01*
X104989714Y-100618857D01*
X104989714Y-101404571D01*
X105632571Y-101333142D02*
X105775428Y-101404571D01*
X106061142Y-101404571D01*
X106204000Y-101333142D01*
X106275428Y-101190285D01*
X106275428Y-101118857D01*
X106204000Y-100976000D01*
X106061142Y-100904571D01*
X105846857Y-100904571D01*
X105704000Y-100833142D01*
X105632571Y-100690285D01*
X105632571Y-100618857D01*
X105704000Y-100476000D01*
X105846857Y-100404571D01*
X106061142Y-100404571D01*
X106204000Y-100476000D01*
X107132571Y-101404571D02*
X106989714Y-101333142D01*
X106918285Y-101261714D01*
X106846857Y-101118857D01*
X106846857Y-100690285D01*
X106918285Y-100547428D01*
X106989714Y-100476000D01*
X107132571Y-100404571D01*
X107346857Y-100404571D01*
X107489714Y-100476000D01*
X107561142Y-100547428D01*
X107632571Y-100690285D01*
X107632571Y-101118857D01*
X107561142Y-101261714D01*
X107489714Y-101333142D01*
X107346857Y-101404571D01*
X107132571Y-101404571D01*
X108918285Y-100404571D02*
X108918285Y-101404571D01*
X108275428Y-100404571D02*
X108275428Y-101190285D01*
X108346857Y-101333142D01*
X108489714Y-101404571D01*
X108704000Y-101404571D01*
X108846857Y-101333142D01*
X108918285Y-101261714D01*
X109632571Y-101404571D02*
X109632571Y-100404571D01*
X109632571Y-100690285D02*
X109704000Y-100547428D01*
X109775428Y-100476000D01*
X109918285Y-100404571D01*
X110061142Y-100404571D01*
X111204000Y-101333142D02*
X111061142Y-101404571D01*
X110775428Y-101404571D01*
X110632571Y-101333142D01*
X110561142Y-101261714D01*
X110489714Y-101118857D01*
X110489714Y-100690285D01*
X110561142Y-100547428D01*
X110632571Y-100476000D01*
X110775428Y-100404571D01*
X111061142Y-100404571D01*
X111204000Y-100476000D01*
X112418285Y-101333142D02*
X112275428Y-101404571D01*
X111989714Y-101404571D01*
X111846857Y-101333142D01*
X111775428Y-101190285D01*
X111775428Y-100618857D01*
X111846857Y-100476000D01*
X111989714Y-100404571D01*
X112275428Y-100404571D01*
X112418285Y-100476000D01*
X112489714Y-100618857D01*
X112489714Y-100761714D01*
X111775428Y-100904571D01*
X113704000Y-101333142D02*
X113561142Y-101404571D01*
X113275428Y-101404571D01*
X113132571Y-101333142D01*
X113061142Y-101190285D01*
X113061142Y-100618857D01*
X113132571Y-100476000D01*
X113275428Y-100404571D01*
X113561142Y-100404571D01*
X113704000Y-100476000D01*
X113775428Y-100618857D01*
X113775428Y-100761714D01*
X113061142Y-100904571D01*
X115061142Y-101333142D02*
X114918285Y-101404571D01*
X114632571Y-101404571D01*
X114489714Y-101333142D01*
X114418285Y-101261714D01*
X114346857Y-101118857D01*
X114346857Y-100690285D01*
X114418285Y-100547428D01*
X114489714Y-100476000D01*
X114632571Y-100404571D01*
X114918285Y-100404571D01*
X115061142Y-100476000D01*
X115918285Y-101404571D02*
X115775428Y-101333142D01*
X115704000Y-101261714D01*
X115632571Y-101118857D01*
X115632571Y-100690285D01*
X115704000Y-100547428D01*
X115775428Y-100476000D01*
X115918285Y-100404571D01*
X116132571Y-100404571D01*
X116275428Y-100476000D01*
X116346857Y-100547428D01*
X116418285Y-100690285D01*
X116418285Y-101118857D01*
X116346857Y-101261714D01*
X116275428Y-101333142D01*
X116132571Y-101404571D01*
X115918285Y-101404571D01*
X117275428Y-101404571D02*
X117132571Y-101333142D01*
X117061142Y-101190285D01*
X117061142Y-99904571D01*
X118061142Y-101404571D02*
X117918285Y-101333142D01*
X117846857Y-101261714D01*
X117775428Y-101118857D01*
X117775428Y-100690285D01*
X117846857Y-100547428D01*
X117918285Y-100476000D01*
X118061142Y-100404571D01*
X118275428Y-100404571D01*
X118418285Y-100476000D01*
X118489714Y-100547428D01*
X118561142Y-100690285D01*
X118561142Y-101118857D01*
X118489714Y-101261714D01*
X118418285Y-101333142D01*
X118275428Y-101404571D01*
X118061142Y-101404571D01*
X119846857Y-100404571D02*
X119846857Y-101618857D01*
X119775428Y-101761714D01*
X119704000Y-101833142D01*
X119561142Y-101904571D01*
X119346857Y-101904571D01*
X119204000Y-101833142D01*
X119846857Y-101333142D02*
X119704000Y-101404571D01*
X119418285Y-101404571D01*
X119275428Y-101333142D01*
X119204000Y-101261714D01*
X119132571Y-101118857D01*
X119132571Y-100690285D01*
X119204000Y-100547428D01*
X119275428Y-100476000D01*
X119418285Y-100404571D01*
X119704000Y-100404571D01*
X119846857Y-100476000D01*
X120418285Y-100404571D02*
X120775428Y-101404571D01*
X121132571Y-100404571D02*
X120775428Y-101404571D01*
X120632571Y-101761714D01*
X120561142Y-101833142D01*
X120418285Y-101904571D01*
X121704000Y-101261714D02*
X121775428Y-101333142D01*
X121704000Y-101404571D01*
X121632571Y-101333142D01*
X121704000Y-101261714D01*
X121704000Y-101404571D01*
X123061142Y-101404571D02*
X123061142Y-99904571D01*
X123061142Y-101333142D02*
X122918285Y-101404571D01*
X122632571Y-101404571D01*
X122489714Y-101333142D01*
X122418285Y-101261714D01*
X122346857Y-101118857D01*
X122346857Y-100690285D01*
X122418285Y-100547428D01*
X122489714Y-100476000D01*
X122632571Y-100404571D01*
X122918285Y-100404571D01*
X123061142Y-100476000D01*
X124346857Y-101333142D02*
X124204000Y-101404571D01*
X123918285Y-101404571D01*
X123775428Y-101333142D01*
X123704000Y-101190285D01*
X123704000Y-100618857D01*
X123775428Y-100476000D01*
X123918285Y-100404571D01*
X124204000Y-100404571D01*
X124346857Y-100476000D01*
X124418285Y-100618857D01*
X124418285Y-100761714D01*
X123704000Y-100904571D01*
D11*
G04 #@! TO.C,J3*
X147380000Y-80712000D02*
X147380000Y-82042000D01*
X146050000Y-80712000D02*
X147380000Y-80712000D01*
X144780000Y-80712000D02*
X144780000Y-83372000D01*
X144780000Y-83372000D02*
X134560000Y-83372000D01*
X144780000Y-80712000D02*
X134560000Y-80712000D01*
X134560000Y-80712000D02*
X134560000Y-83372000D01*
G04 #@! TO.C,J4*
X112963000Y-75244000D02*
X112963000Y-72584000D01*
X102743000Y-75244000D02*
X112963000Y-75244000D01*
X102743000Y-72584000D02*
X112963000Y-72584000D01*
X102743000Y-75244000D02*
X102743000Y-72584000D01*
X101473000Y-75244000D02*
X100143000Y-75244000D01*
X100143000Y-75244000D02*
X100143000Y-73914000D01*
G04 #@! TO.C,RV5*
X86224000Y-113354000D02*
X86224000Y-115174000D01*
X86224000Y-116474000D02*
X86224000Y-118294000D01*
X79384000Y-113354000D02*
X79384000Y-115174000D01*
X79384000Y-116474000D02*
X79384000Y-118294000D01*
X86224000Y-118294000D02*
X79384000Y-118294000D01*
X86224000Y-113354000D02*
X79384000Y-113354000D01*
G04 #@! TO.C,RV4*
X123308000Y-113354000D02*
X116468000Y-113354000D01*
X123308000Y-118294000D02*
X116468000Y-118294000D01*
X116468000Y-116474000D02*
X116468000Y-118294000D01*
X116468000Y-113354000D02*
X116468000Y-115174000D01*
X123308000Y-116474000D02*
X123308000Y-118294000D01*
X123308000Y-113354000D02*
X123308000Y-115174000D01*
G04 #@! TO.C,RV3*
X95876000Y-113354000D02*
X95876000Y-115174000D01*
X95876000Y-116474000D02*
X95876000Y-118294000D01*
X89036000Y-113354000D02*
X89036000Y-115174000D01*
X89036000Y-116474000D02*
X89036000Y-118294000D01*
X95876000Y-118294000D02*
X89036000Y-118294000D01*
X95876000Y-113354000D02*
X89036000Y-113354000D01*
G04 #@! TO.C,RV1*
X114037000Y-113354000D02*
X107197000Y-113354000D01*
X114037000Y-118294000D02*
X107197000Y-118294000D01*
X107197000Y-116474000D02*
X107197000Y-118294000D01*
X107197000Y-113354000D02*
X107197000Y-115174000D01*
X114037000Y-116474000D02*
X114037000Y-118294000D01*
X114037000Y-113354000D02*
X114037000Y-115174000D01*
G04 #@! TO.C,RV2*
X105147000Y-113354000D02*
X105147000Y-115174000D01*
X105147000Y-116474000D02*
X105147000Y-118294000D01*
X98307000Y-113354000D02*
X98307000Y-115174000D01*
X98307000Y-116474000D02*
X98307000Y-118294000D01*
X105147000Y-118294000D02*
X98307000Y-118294000D01*
X105147000Y-113354000D02*
X98307000Y-113354000D01*
G04 #@! TO.C,C1*
X78005000Y-77656000D02*
X85745000Y-77656000D01*
X78005000Y-84396000D02*
X85745000Y-84396000D01*
X78005000Y-77656000D02*
X78005000Y-84396000D01*
X85745000Y-77656000D02*
X85745000Y-84396000D01*
G04 #@! TO.C,C2*
X75200000Y-93472000D02*
G75*
G03X75200000Y-93472000I-4120000J0D01*
G01*
X71080000Y-89392000D02*
X71080000Y-97552000D01*
X71120000Y-89392000D02*
X71120000Y-97552000D01*
X71160000Y-89392000D02*
X71160000Y-97552000D01*
X71200000Y-89393000D02*
X71200000Y-97551000D01*
X71240000Y-89395000D02*
X71240000Y-97549000D01*
X71280000Y-89396000D02*
X71280000Y-97548000D01*
X71320000Y-89398000D02*
X71320000Y-97546000D01*
X71360000Y-89401000D02*
X71360000Y-97543000D01*
X71400000Y-89404000D02*
X71400000Y-97540000D01*
X71440000Y-89407000D02*
X71440000Y-97537000D01*
X71480000Y-89411000D02*
X71480000Y-97533000D01*
X71520000Y-89415000D02*
X71520000Y-97529000D01*
X71560000Y-89420000D02*
X71560000Y-97524000D01*
X71600000Y-89424000D02*
X71600000Y-97520000D01*
X71640000Y-89430000D02*
X71640000Y-97514000D01*
X71680000Y-89435000D02*
X71680000Y-97509000D01*
X71720000Y-89442000D02*
X71720000Y-97502000D01*
X71760000Y-89448000D02*
X71760000Y-97496000D01*
X71801000Y-89455000D02*
X71801000Y-97489000D01*
X71841000Y-89462000D02*
X71841000Y-97482000D01*
X71881000Y-89470000D02*
X71881000Y-97474000D01*
X71921000Y-89478000D02*
X71921000Y-97466000D01*
X71961000Y-89487000D02*
X71961000Y-97457000D01*
X72001000Y-89496000D02*
X72001000Y-97448000D01*
X72041000Y-89505000D02*
X72041000Y-97439000D01*
X72081000Y-89515000D02*
X72081000Y-97429000D01*
X72121000Y-89525000D02*
X72121000Y-97419000D01*
X72161000Y-89536000D02*
X72161000Y-97408000D01*
X72201000Y-89547000D02*
X72201000Y-97397000D01*
X72241000Y-89558000D02*
X72241000Y-97386000D01*
X72281000Y-89570000D02*
X72281000Y-97374000D01*
X72321000Y-89583000D02*
X72321000Y-97361000D01*
X72361000Y-89595000D02*
X72361000Y-97349000D01*
X72401000Y-89609000D02*
X72401000Y-97335000D01*
X72441000Y-89622000D02*
X72441000Y-97322000D01*
X72481000Y-89637000D02*
X72481000Y-97307000D01*
X72521000Y-89651000D02*
X72521000Y-97293000D01*
X72561000Y-89667000D02*
X72561000Y-92432000D01*
X72561000Y-94512000D02*
X72561000Y-97277000D01*
X72601000Y-89682000D02*
X72601000Y-92432000D01*
X72601000Y-94512000D02*
X72601000Y-97262000D01*
X72641000Y-89698000D02*
X72641000Y-92432000D01*
X72641000Y-94512000D02*
X72641000Y-97246000D01*
X72681000Y-89715000D02*
X72681000Y-92432000D01*
X72681000Y-94512000D02*
X72681000Y-97229000D01*
X72721000Y-89732000D02*
X72721000Y-92432000D01*
X72721000Y-94512000D02*
X72721000Y-97212000D01*
X72761000Y-89750000D02*
X72761000Y-92432000D01*
X72761000Y-94512000D02*
X72761000Y-97194000D01*
X72801000Y-89768000D02*
X72801000Y-92432000D01*
X72801000Y-94512000D02*
X72801000Y-97176000D01*
X72841000Y-89786000D02*
X72841000Y-92432000D01*
X72841000Y-94512000D02*
X72841000Y-97158000D01*
X72881000Y-89806000D02*
X72881000Y-92432000D01*
X72881000Y-94512000D02*
X72881000Y-97138000D01*
X72921000Y-89825000D02*
X72921000Y-92432000D01*
X72921000Y-94512000D02*
X72921000Y-97119000D01*
X72961000Y-89845000D02*
X72961000Y-92432000D01*
X72961000Y-94512000D02*
X72961000Y-97099000D01*
X73001000Y-89866000D02*
X73001000Y-92432000D01*
X73001000Y-94512000D02*
X73001000Y-97078000D01*
X73041000Y-89888000D02*
X73041000Y-92432000D01*
X73041000Y-94512000D02*
X73041000Y-97056000D01*
X73081000Y-89910000D02*
X73081000Y-92432000D01*
X73081000Y-94512000D02*
X73081000Y-97034000D01*
X73121000Y-89932000D02*
X73121000Y-92432000D01*
X73121000Y-94512000D02*
X73121000Y-97012000D01*
X73161000Y-89955000D02*
X73161000Y-92432000D01*
X73161000Y-94512000D02*
X73161000Y-96989000D01*
X73201000Y-89979000D02*
X73201000Y-92432000D01*
X73201000Y-94512000D02*
X73201000Y-96965000D01*
X73241000Y-90003000D02*
X73241000Y-92432000D01*
X73241000Y-94512000D02*
X73241000Y-96941000D01*
X73281000Y-90028000D02*
X73281000Y-92432000D01*
X73281000Y-94512000D02*
X73281000Y-96916000D01*
X73321000Y-90054000D02*
X73321000Y-92432000D01*
X73321000Y-94512000D02*
X73321000Y-96890000D01*
X73361000Y-90080000D02*
X73361000Y-92432000D01*
X73361000Y-94512000D02*
X73361000Y-96864000D01*
X73401000Y-90107000D02*
X73401000Y-92432000D01*
X73401000Y-94512000D02*
X73401000Y-96837000D01*
X73441000Y-90134000D02*
X73441000Y-92432000D01*
X73441000Y-94512000D02*
X73441000Y-96810000D01*
X73481000Y-90163000D02*
X73481000Y-92432000D01*
X73481000Y-94512000D02*
X73481000Y-96781000D01*
X73521000Y-90192000D02*
X73521000Y-92432000D01*
X73521000Y-94512000D02*
X73521000Y-96752000D01*
X73561000Y-90222000D02*
X73561000Y-92432000D01*
X73561000Y-94512000D02*
X73561000Y-96722000D01*
X73601000Y-90252000D02*
X73601000Y-92432000D01*
X73601000Y-94512000D02*
X73601000Y-96692000D01*
X73641000Y-90283000D02*
X73641000Y-92432000D01*
X73641000Y-94512000D02*
X73641000Y-96661000D01*
X73681000Y-90316000D02*
X73681000Y-92432000D01*
X73681000Y-94512000D02*
X73681000Y-96628000D01*
X73721000Y-90348000D02*
X73721000Y-92432000D01*
X73721000Y-94512000D02*
X73721000Y-96596000D01*
X73761000Y-90382000D02*
X73761000Y-92432000D01*
X73761000Y-94512000D02*
X73761000Y-96562000D01*
X73801000Y-90417000D02*
X73801000Y-92432000D01*
X73801000Y-94512000D02*
X73801000Y-96527000D01*
X73841000Y-90453000D02*
X73841000Y-92432000D01*
X73841000Y-94512000D02*
X73841000Y-96491000D01*
X73881000Y-90489000D02*
X73881000Y-92432000D01*
X73881000Y-94512000D02*
X73881000Y-96455000D01*
X73921000Y-90527000D02*
X73921000Y-92432000D01*
X73921000Y-94512000D02*
X73921000Y-96417000D01*
X73961000Y-90565000D02*
X73961000Y-92432000D01*
X73961000Y-94512000D02*
X73961000Y-96379000D01*
X74001000Y-90605000D02*
X74001000Y-92432000D01*
X74001000Y-94512000D02*
X74001000Y-96339000D01*
X74041000Y-90646000D02*
X74041000Y-92432000D01*
X74041000Y-94512000D02*
X74041000Y-96298000D01*
X74081000Y-90688000D02*
X74081000Y-92432000D01*
X74081000Y-94512000D02*
X74081000Y-96256000D01*
X74121000Y-90731000D02*
X74121000Y-92432000D01*
X74121000Y-94512000D02*
X74121000Y-96213000D01*
X74161000Y-90775000D02*
X74161000Y-92432000D01*
X74161000Y-94512000D02*
X74161000Y-96169000D01*
X74201000Y-90821000D02*
X74201000Y-92432000D01*
X74201000Y-94512000D02*
X74201000Y-96123000D01*
X74241000Y-90868000D02*
X74241000Y-92432000D01*
X74241000Y-94512000D02*
X74241000Y-96076000D01*
X74281000Y-90916000D02*
X74281000Y-92432000D01*
X74281000Y-94512000D02*
X74281000Y-96028000D01*
X74321000Y-90967000D02*
X74321000Y-92432000D01*
X74321000Y-94512000D02*
X74321000Y-95977000D01*
X74361000Y-91018000D02*
X74361000Y-92432000D01*
X74361000Y-94512000D02*
X74361000Y-95926000D01*
X74401000Y-91072000D02*
X74401000Y-92432000D01*
X74401000Y-94512000D02*
X74401000Y-95872000D01*
X74441000Y-91127000D02*
X74441000Y-92432000D01*
X74441000Y-94512000D02*
X74441000Y-95817000D01*
X74481000Y-91185000D02*
X74481000Y-92432000D01*
X74481000Y-94512000D02*
X74481000Y-95759000D01*
X74521000Y-91244000D02*
X74521000Y-92432000D01*
X74521000Y-94512000D02*
X74521000Y-95700000D01*
X74561000Y-91306000D02*
X74561000Y-92432000D01*
X74561000Y-94512000D02*
X74561000Y-95638000D01*
X74601000Y-91370000D02*
X74601000Y-92432000D01*
X74601000Y-94512000D02*
X74601000Y-95574000D01*
X74641000Y-91438000D02*
X74641000Y-95506000D01*
X74681000Y-91508000D02*
X74681000Y-95436000D01*
X74721000Y-91582000D02*
X74721000Y-95362000D01*
X74761000Y-91659000D02*
X74761000Y-95285000D01*
X74801000Y-91741000D02*
X74801000Y-95203000D01*
X74841000Y-91827000D02*
X74841000Y-95117000D01*
X74881000Y-91920000D02*
X74881000Y-95024000D01*
X74921000Y-92019000D02*
X74921000Y-94925000D01*
X74961000Y-92126000D02*
X74961000Y-94818000D01*
X75001000Y-92243000D02*
X75001000Y-94701000D01*
X75041000Y-92374000D02*
X75041000Y-94570000D01*
X75081000Y-92524000D02*
X75081000Y-94420000D01*
X75121000Y-92704000D02*
X75121000Y-94240000D01*
X75161000Y-92939000D02*
X75161000Y-94005000D01*
X66670302Y-91157000D02*
X67470302Y-91157000D01*
X67070302Y-90757000D02*
X67070302Y-91557000D01*
G04 #@! TO.C,D1*
X118722000Y-74080000D02*
X116482000Y-74080000D01*
X116482000Y-74080000D02*
X116482000Y-78320000D01*
X116482000Y-78320000D02*
X118722000Y-78320000D01*
X118722000Y-78320000D02*
X118722000Y-74080000D01*
X117602000Y-73430000D02*
X117602000Y-74080000D01*
X117602000Y-78970000D02*
X117602000Y-78320000D01*
X118722000Y-74800000D02*
X116482000Y-74800000D01*
X118722000Y-74920000D02*
X116482000Y-74920000D01*
X118722000Y-74680000D02*
X116482000Y-74680000D01*
D12*
G04 #@! TO.C,J1*
X126492000Y-98298000D02*
X131572000Y-98298000D01*
X126492000Y-95758000D02*
X131572000Y-95758000D01*
X129032000Y-100838000D02*
X129032000Y-93218000D01*
X131572000Y-100838000D02*
X126492000Y-100838000D01*
X126492000Y-100838000D02*
X126492000Y-93218000D01*
X126492000Y-93218000D02*
X131572000Y-93218000D01*
X88392000Y-105918000D02*
X131572000Y-105918000D01*
X131572000Y-88138000D02*
X88392000Y-88138000D01*
X131572000Y-88138000D02*
X131572000Y-105918000D01*
X88392000Y-88138000D02*
X88392000Y-105918000D01*
X131572000Y-104648000D02*
G75*
G03X131572000Y-104648000I-1270000J0D01*
G01*
X131572000Y-89408000D02*
G75*
G03X131572000Y-89408000I-1270000J0D01*
G01*
X90932000Y-104648000D02*
G75*
G03X90932000Y-104648000I-1270000J0D01*
G01*
X90932000Y-89408000D02*
G75*
G03X90932000Y-89408000I-1270000J0D01*
G01*
X90932000Y-103378000D02*
X129032000Y-103378000D01*
X129032000Y-90678000D02*
X90932000Y-90678000D01*
X90932000Y-88138000D02*
X90932000Y-90678000D01*
X90932000Y-103378000D02*
X90932000Y-105918000D01*
X129032000Y-105918000D02*
X129032000Y-103378000D01*
X129032000Y-88138000D02*
X129032000Y-90678000D01*
D11*
G04 #@! TO.C,J2*
X63768000Y-105852000D02*
X63768000Y-99612000D01*
X63768000Y-99612000D02*
X67768000Y-99612000D01*
X67768000Y-99612000D02*
X67768000Y-99312000D01*
X67768000Y-99312000D02*
X82008000Y-99312000D01*
X82008000Y-99312000D02*
X82008000Y-107752000D01*
X82008000Y-107752000D02*
X67768000Y-107752000D01*
X67768000Y-107752000D02*
X67768000Y-105852000D01*
X67768000Y-105852000D02*
X63768000Y-105852000D01*
G04 #@! TO.C,J5*
X143196000Y-118448000D02*
X144246000Y-118448000D01*
X144246000Y-117398000D02*
X144246000Y-118448000D01*
X134846000Y-112348000D02*
X134846000Y-103548000D01*
X134846000Y-103548000D02*
X144046000Y-103548000D01*
X137546000Y-118248000D02*
X134846000Y-118248000D01*
X134846000Y-118248000D02*
X134846000Y-116348000D01*
X144046000Y-103548000D02*
X144046000Y-118248000D01*
X144046000Y-118248000D02*
X141446000Y-118248000D01*
G04 #@! TO.C,R1*
X139642000Y-87503000D02*
G75*
G03X139642000Y-87503000I-1720000J0D01*
G01*
X139642000Y-87503000D02*
X141902000Y-87503000D01*
G04 #@! TO.C,R2*
X139642000Y-92837000D02*
G75*
G03X139642000Y-92837000I-1720000J0D01*
G01*
X139642000Y-92837000D02*
X141902000Y-92837000D01*
G04 #@! TO.C,R3*
X139642000Y-98171000D02*
X141902000Y-98171000D01*
X139642000Y-98171000D02*
G75*
G03X139642000Y-98171000I-1720000J0D01*
G01*
G04 #@! TO.C,R4*
X128074000Y-85471000D02*
X125814000Y-85471000D01*
X131514000Y-85471000D02*
G75*
G03X131514000Y-85471000I-1720000J0D01*
G01*
G04 #@! TO.C,R5*
X97224000Y-73914000D02*
G75*
G03X97224000Y-73914000I-1720000J0D01*
G01*
X93784000Y-73914000D02*
X91524000Y-73914000D01*
G04 #@! TO.C,R6*
X70300000Y-84836000D02*
X72560000Y-84836000D01*
X70300000Y-84836000D02*
G75*
G03X70300000Y-84836000I-1720000J0D01*
G01*
G04 #@! TO.C,SW1*
X152848000Y-95437000D02*
X155508000Y-95437000D01*
X152848000Y-92837000D02*
X152848000Y-95437000D01*
X155508000Y-92837000D02*
X155508000Y-95437000D01*
X152848000Y-92837000D02*
X155508000Y-92837000D01*
X152848000Y-91567000D02*
X152848000Y-90237000D01*
X152848000Y-90237000D02*
X154178000Y-90237000D01*
G04 #@! TO.C,U2*
X126476000Y-71441000D02*
G75*
G02X124476000Y-71441000I-1000000J0D01*
G01*
X124476000Y-71441000D02*
X123226000Y-71441000D01*
X123226000Y-71441000D02*
X123226000Y-81721000D01*
X123226000Y-81721000D02*
X127726000Y-81721000D01*
X127726000Y-81721000D02*
X127726000Y-71441000D01*
X127726000Y-71441000D02*
X126476000Y-71441000D01*
G04 #@! TO.C,J6*
X96841000Y-108144000D02*
X96841000Y-110804000D01*
X117221000Y-108144000D02*
X96841000Y-108144000D01*
X117221000Y-110804000D02*
X96841000Y-110804000D01*
X117221000Y-108144000D02*
X117221000Y-110804000D01*
X118491000Y-108144000D02*
X119821000Y-108144000D01*
X119821000Y-108144000D02*
X119821000Y-109474000D01*
G04 #@! TO.C,J7*
X112709000Y-83372000D02*
X112709000Y-80712000D01*
X89789000Y-83372000D02*
X112709000Y-83372000D01*
X89789000Y-80712000D02*
X112709000Y-80712000D01*
X89789000Y-83372000D02*
X89789000Y-80712000D01*
X88519000Y-83372000D02*
X87189000Y-83372000D01*
X87189000Y-83372000D02*
X87189000Y-82042000D01*
G04 #@! TO.C,R7*
X86526001Y-96744001D02*
G75*
G03X86526001Y-96744001I-1720000J0D01*
G01*
X86526001Y-96744001D02*
X88786001Y-96744001D01*
G04 #@! TO.C,R8*
X86526001Y-100494001D02*
X88786001Y-100494001D01*
X86526001Y-100494001D02*
G75*
G03X86526001Y-100494001I-1720000J0D01*
G01*
G04 #@! TO.C,SW2*
X77514477Y-86415645D02*
X77514477Y-89075645D01*
X80114477Y-86415645D02*
X77514477Y-86415645D01*
X80114477Y-89075645D02*
X77514477Y-89075645D01*
X80114477Y-86415645D02*
X80114477Y-89075645D01*
X81384477Y-86415645D02*
X82714477Y-86415645D01*
X82714477Y-86415645D02*
X82714477Y-87745645D01*
G04 #@! TO.C,SW3*
X82714477Y-90065645D02*
X82714477Y-91395645D01*
X81384477Y-90065645D02*
X82714477Y-90065645D01*
X80114477Y-90065645D02*
X80114477Y-92725645D01*
X80114477Y-92725645D02*
X77514477Y-92725645D01*
X80114477Y-90065645D02*
X77514477Y-90065645D01*
X77514477Y-90065645D02*
X77514477Y-92725645D01*
G04 #@! TO.C,J8*
X150562000Y-105343000D02*
X153222000Y-105343000D01*
X150562000Y-102743000D02*
X150562000Y-105343000D01*
X153222000Y-102743000D02*
X153222000Y-105343000D01*
X150562000Y-102743000D02*
X153222000Y-102743000D01*
X150562000Y-101473000D02*
X150562000Y-100143000D01*
X150562000Y-100143000D02*
X151892000Y-100143000D01*
G04 #@! TO.C,J3*
D13*
X147832380Y-82375333D02*
X148546666Y-82375333D01*
X148689523Y-82422952D01*
X148784761Y-82518190D01*
X148832380Y-82661047D01*
X148832380Y-82756285D01*
X147832380Y-81994380D02*
X147832380Y-81375333D01*
X148213333Y-81708666D01*
X148213333Y-81565809D01*
X148260952Y-81470571D01*
X148308571Y-81422952D01*
X148403809Y-81375333D01*
X148641904Y-81375333D01*
X148737142Y-81422952D01*
X148784761Y-81470571D01*
X148832380Y-81565809D01*
X148832380Y-81851523D01*
X148784761Y-81946761D01*
X148737142Y-81994380D01*
G04 #@! TO.C,J4*
X98595380Y-74247333D02*
X99309666Y-74247333D01*
X99452523Y-74294952D01*
X99547761Y-74390190D01*
X99595380Y-74533047D01*
X99595380Y-74628285D01*
X98928714Y-73342571D02*
X99595380Y-73342571D01*
X98547761Y-73580666D02*
X99262047Y-73818761D01*
X99262047Y-73199714D01*
G04 #@! TO.C,RV5*
X87806380Y-116419238D02*
X87330190Y-116752571D01*
X87806380Y-116990666D02*
X86806380Y-116990666D01*
X86806380Y-116609714D01*
X86854000Y-116514476D01*
X86901619Y-116466857D01*
X86996857Y-116419238D01*
X87139714Y-116419238D01*
X87234952Y-116466857D01*
X87282571Y-116514476D01*
X87330190Y-116609714D01*
X87330190Y-116990666D01*
X86806380Y-116133523D02*
X87806380Y-115800190D01*
X86806380Y-115466857D01*
X86806380Y-114657333D02*
X86806380Y-115133523D01*
X87282571Y-115181142D01*
X87234952Y-115133523D01*
X87187333Y-115038285D01*
X87187333Y-114800190D01*
X87234952Y-114704952D01*
X87282571Y-114657333D01*
X87377809Y-114609714D01*
X87615904Y-114609714D01*
X87711142Y-114657333D01*
X87758761Y-114704952D01*
X87806380Y-114800190D01*
X87806380Y-115038285D01*
X87758761Y-115133523D01*
X87711142Y-115181142D01*
G04 #@! TO.C,RV4*
X124890380Y-116419238D02*
X124414190Y-116752571D01*
X124890380Y-116990666D02*
X123890380Y-116990666D01*
X123890380Y-116609714D01*
X123938000Y-116514476D01*
X123985619Y-116466857D01*
X124080857Y-116419238D01*
X124223714Y-116419238D01*
X124318952Y-116466857D01*
X124366571Y-116514476D01*
X124414190Y-116609714D01*
X124414190Y-116990666D01*
X123890380Y-116133523D02*
X124890380Y-115800190D01*
X123890380Y-115466857D01*
X124223714Y-114704952D02*
X124890380Y-114704952D01*
X123842761Y-114943047D02*
X124557047Y-115181142D01*
X124557047Y-114562095D01*
G04 #@! TO.C,RV3*
X97458380Y-116419238D02*
X96982190Y-116752571D01*
X97458380Y-116990666D02*
X96458380Y-116990666D01*
X96458380Y-116609714D01*
X96506000Y-116514476D01*
X96553619Y-116466857D01*
X96648857Y-116419238D01*
X96791714Y-116419238D01*
X96886952Y-116466857D01*
X96934571Y-116514476D01*
X96982190Y-116609714D01*
X96982190Y-116990666D01*
X96458380Y-116133523D02*
X97458380Y-115800190D01*
X96458380Y-115466857D01*
X96458380Y-115228761D02*
X96458380Y-114609714D01*
X96839333Y-114943047D01*
X96839333Y-114800190D01*
X96886952Y-114704952D01*
X96934571Y-114657333D01*
X97029809Y-114609714D01*
X97267904Y-114609714D01*
X97363142Y-114657333D01*
X97410761Y-114704952D01*
X97458380Y-114800190D01*
X97458380Y-115085904D01*
X97410761Y-115181142D01*
X97363142Y-115228761D01*
G04 #@! TO.C,RV1*
X115619380Y-116419238D02*
X115143190Y-116752571D01*
X115619380Y-116990666D02*
X114619380Y-116990666D01*
X114619380Y-116609714D01*
X114667000Y-116514476D01*
X114714619Y-116466857D01*
X114809857Y-116419238D01*
X114952714Y-116419238D01*
X115047952Y-116466857D01*
X115095571Y-116514476D01*
X115143190Y-116609714D01*
X115143190Y-116990666D01*
X114619380Y-116133523D02*
X115619380Y-115800190D01*
X114619380Y-115466857D01*
X115619380Y-114609714D02*
X115619380Y-115181142D01*
X115619380Y-114895428D02*
X114619380Y-114895428D01*
X114762238Y-114990666D01*
X114857476Y-115085904D01*
X114905095Y-115181142D01*
G04 #@! TO.C,RV2*
X106729380Y-116419238D02*
X106253190Y-116752571D01*
X106729380Y-116990666D02*
X105729380Y-116990666D01*
X105729380Y-116609714D01*
X105777000Y-116514476D01*
X105824619Y-116466857D01*
X105919857Y-116419238D01*
X106062714Y-116419238D01*
X106157952Y-116466857D01*
X106205571Y-116514476D01*
X106253190Y-116609714D01*
X106253190Y-116990666D01*
X105729380Y-116133523D02*
X106729380Y-115800190D01*
X105729380Y-115466857D01*
X105824619Y-115181142D02*
X105777000Y-115133523D01*
X105729380Y-115038285D01*
X105729380Y-114800190D01*
X105777000Y-114704952D01*
X105824619Y-114657333D01*
X105919857Y-114609714D01*
X106015095Y-114609714D01*
X106157952Y-114657333D01*
X106729380Y-115228761D01*
X106729380Y-114609714D01*
G04 #@! TO.C,C1*
X81708333Y-76883142D02*
X81660714Y-76930761D01*
X81517857Y-76978380D01*
X81422619Y-76978380D01*
X81279761Y-76930761D01*
X81184523Y-76835523D01*
X81136904Y-76740285D01*
X81089285Y-76549809D01*
X81089285Y-76406952D01*
X81136904Y-76216476D01*
X81184523Y-76121238D01*
X81279761Y-76026000D01*
X81422619Y-75978380D01*
X81517857Y-75978380D01*
X81660714Y-76026000D01*
X81708333Y-76073619D01*
X82660714Y-76978380D02*
X82089285Y-76978380D01*
X82375000Y-76978380D02*
X82375000Y-75978380D01*
X82279761Y-76121238D01*
X82184523Y-76216476D01*
X82089285Y-76264095D01*
G04 #@! TO.C,C2*
X70913333Y-88579142D02*
X70865714Y-88626761D01*
X70722857Y-88674380D01*
X70627619Y-88674380D01*
X70484761Y-88626761D01*
X70389523Y-88531523D01*
X70341904Y-88436285D01*
X70294285Y-88245809D01*
X70294285Y-88102952D01*
X70341904Y-87912476D01*
X70389523Y-87817238D01*
X70484761Y-87722000D01*
X70627619Y-87674380D01*
X70722857Y-87674380D01*
X70865714Y-87722000D01*
X70913333Y-87769619D01*
X71294285Y-87769619D02*
X71341904Y-87722000D01*
X71437142Y-87674380D01*
X71675238Y-87674380D01*
X71770476Y-87722000D01*
X71818095Y-87769619D01*
X71865714Y-87864857D01*
X71865714Y-87960095D01*
X71818095Y-88102952D01*
X71246666Y-88674380D01*
X71865714Y-88674380D01*
G04 #@! TO.C,D1*
X120174380Y-76938095D02*
X119174380Y-76938095D01*
X119174380Y-76700000D01*
X119222000Y-76557142D01*
X119317238Y-76461904D01*
X119412476Y-76414285D01*
X119602952Y-76366666D01*
X119745809Y-76366666D01*
X119936285Y-76414285D01*
X120031523Y-76461904D01*
X120126761Y-76557142D01*
X120174380Y-76700000D01*
X120174380Y-76938095D01*
X120174380Y-75414285D02*
X120174380Y-75985714D01*
X120174380Y-75700000D02*
X119174380Y-75700000D01*
X119317238Y-75795238D01*
X119412476Y-75890476D01*
X119460095Y-75985714D01*
X119854380Y-72651904D02*
X118854380Y-72651904D01*
X119854380Y-72080476D02*
X119282952Y-72509047D01*
X118854380Y-72080476D02*
X119425809Y-72651904D01*
G04 #@! TO.C,J1*
D14*
X132884333Y-92280619D02*
X132884333Y-93006333D01*
X132835952Y-93151476D01*
X132739190Y-93248238D01*
X132594047Y-93296619D01*
X132497285Y-93296619D01*
X133900333Y-93296619D02*
X133319761Y-93296619D01*
X133610047Y-93296619D02*
X133610047Y-92280619D01*
X133513285Y-92425761D01*
X133416523Y-92522523D01*
X133319761Y-92570904D01*
G04 #@! TO.C,J2*
D13*
X62090380Y-103865333D02*
X62804666Y-103865333D01*
X62947523Y-103912952D01*
X63042761Y-104008190D01*
X63090380Y-104151047D01*
X63090380Y-104246285D01*
X62185619Y-103436761D02*
X62138000Y-103389142D01*
X62090380Y-103293904D01*
X62090380Y-103055809D01*
X62138000Y-102960571D01*
X62185619Y-102912952D01*
X62280857Y-102865333D01*
X62376095Y-102865333D01*
X62518952Y-102912952D01*
X63090380Y-103484380D01*
X63090380Y-102865333D01*
G04 #@! TO.C,J5*
X133148380Y-109231333D02*
X133862666Y-109231333D01*
X134005523Y-109278952D01*
X134100761Y-109374190D01*
X134148380Y-109517047D01*
X134148380Y-109612285D01*
X133148380Y-108278952D02*
X133148380Y-108755142D01*
X133624571Y-108802761D01*
X133576952Y-108755142D01*
X133529333Y-108659904D01*
X133529333Y-108421809D01*
X133576952Y-108326571D01*
X133624571Y-108278952D01*
X133719809Y-108231333D01*
X133957904Y-108231333D01*
X134053142Y-108278952D01*
X134100761Y-108326571D01*
X134148380Y-108421809D01*
X134148380Y-108659904D01*
X134100761Y-108755142D01*
X134053142Y-108802761D01*
G04 #@! TO.C,R1*
X140295333Y-85235380D02*
X139962000Y-84759190D01*
X139723904Y-85235380D02*
X139723904Y-84235380D01*
X140104857Y-84235380D01*
X140200095Y-84283000D01*
X140247714Y-84330619D01*
X140295333Y-84425857D01*
X140295333Y-84568714D01*
X140247714Y-84663952D01*
X140200095Y-84711571D01*
X140104857Y-84759190D01*
X139723904Y-84759190D01*
X141247714Y-85235380D02*
X140676285Y-85235380D01*
X140962000Y-85235380D02*
X140962000Y-84235380D01*
X140866761Y-84378238D01*
X140771523Y-84473476D01*
X140676285Y-84521095D01*
G04 #@! TO.C,R2*
X140295333Y-90569380D02*
X139962000Y-90093190D01*
X139723904Y-90569380D02*
X139723904Y-89569380D01*
X140104857Y-89569380D01*
X140200095Y-89617000D01*
X140247714Y-89664619D01*
X140295333Y-89759857D01*
X140295333Y-89902714D01*
X140247714Y-89997952D01*
X140200095Y-90045571D01*
X140104857Y-90093190D01*
X139723904Y-90093190D01*
X140676285Y-89664619D02*
X140723904Y-89617000D01*
X140819142Y-89569380D01*
X141057238Y-89569380D01*
X141152476Y-89617000D01*
X141200095Y-89664619D01*
X141247714Y-89759857D01*
X141247714Y-89855095D01*
X141200095Y-89997952D01*
X140628666Y-90569380D01*
X141247714Y-90569380D01*
G04 #@! TO.C,R3*
X140295333Y-95903380D02*
X139962000Y-95427190D01*
X139723904Y-95903380D02*
X139723904Y-94903380D01*
X140104857Y-94903380D01*
X140200095Y-94951000D01*
X140247714Y-94998619D01*
X140295333Y-95093857D01*
X140295333Y-95236714D01*
X140247714Y-95331952D01*
X140200095Y-95379571D01*
X140104857Y-95427190D01*
X139723904Y-95427190D01*
X140628666Y-94903380D02*
X141247714Y-94903380D01*
X140914380Y-95284333D01*
X141057238Y-95284333D01*
X141152476Y-95331952D01*
X141200095Y-95379571D01*
X141247714Y-95474809D01*
X141247714Y-95712904D01*
X141200095Y-95808142D01*
X141152476Y-95855761D01*
X141057238Y-95903380D01*
X140771523Y-95903380D01*
X140676285Y-95855761D01*
X140628666Y-95808142D01*
G04 #@! TO.C,R4*
X127087333Y-88643380D02*
X126754000Y-88167190D01*
X126515904Y-88643380D02*
X126515904Y-87643380D01*
X126896857Y-87643380D01*
X126992095Y-87691000D01*
X127039714Y-87738619D01*
X127087333Y-87833857D01*
X127087333Y-87976714D01*
X127039714Y-88071952D01*
X126992095Y-88119571D01*
X126896857Y-88167190D01*
X126515904Y-88167190D01*
X127944476Y-87976714D02*
X127944476Y-88643380D01*
X127706380Y-87595761D02*
X127468285Y-88310047D01*
X128087333Y-88310047D01*
G04 #@! TO.C,R5*
X92797333Y-77086380D02*
X92464000Y-76610190D01*
X92225904Y-77086380D02*
X92225904Y-76086380D01*
X92606857Y-76086380D01*
X92702095Y-76134000D01*
X92749714Y-76181619D01*
X92797333Y-76276857D01*
X92797333Y-76419714D01*
X92749714Y-76514952D01*
X92702095Y-76562571D01*
X92606857Y-76610190D01*
X92225904Y-76610190D01*
X93702095Y-76086380D02*
X93225904Y-76086380D01*
X93178285Y-76562571D01*
X93225904Y-76514952D01*
X93321142Y-76467333D01*
X93559238Y-76467333D01*
X93654476Y-76514952D01*
X93702095Y-76562571D01*
X93749714Y-76657809D01*
X93749714Y-76895904D01*
X93702095Y-76991142D01*
X93654476Y-77038761D01*
X93559238Y-77086380D01*
X93321142Y-77086380D01*
X93225904Y-77038761D01*
X93178285Y-76991142D01*
G04 #@! TO.C,R6*
X70953333Y-82568380D02*
X70620000Y-82092190D01*
X70381904Y-82568380D02*
X70381904Y-81568380D01*
X70762857Y-81568380D01*
X70858095Y-81616000D01*
X70905714Y-81663619D01*
X70953333Y-81758857D01*
X70953333Y-81901714D01*
X70905714Y-81996952D01*
X70858095Y-82044571D01*
X70762857Y-82092190D01*
X70381904Y-82092190D01*
X71810476Y-81568380D02*
X71620000Y-81568380D01*
X71524761Y-81616000D01*
X71477142Y-81663619D01*
X71381904Y-81806476D01*
X71334285Y-81996952D01*
X71334285Y-82377904D01*
X71381904Y-82473142D01*
X71429523Y-82520761D01*
X71524761Y-82568380D01*
X71715238Y-82568380D01*
X71810476Y-82520761D01*
X71858095Y-82473142D01*
X71905714Y-82377904D01*
X71905714Y-82139809D01*
X71858095Y-82044571D01*
X71810476Y-81996952D01*
X71715238Y-81949333D01*
X71524761Y-81949333D01*
X71429523Y-81996952D01*
X71381904Y-82044571D01*
X71334285Y-82139809D01*
G04 #@! TO.C,SW1*
X152844666Y-89641761D02*
X152987523Y-89689380D01*
X153225619Y-89689380D01*
X153320857Y-89641761D01*
X153368476Y-89594142D01*
X153416095Y-89498904D01*
X153416095Y-89403666D01*
X153368476Y-89308428D01*
X153320857Y-89260809D01*
X153225619Y-89213190D01*
X153035142Y-89165571D01*
X152939904Y-89117952D01*
X152892285Y-89070333D01*
X152844666Y-88975095D01*
X152844666Y-88879857D01*
X152892285Y-88784619D01*
X152939904Y-88737000D01*
X153035142Y-88689380D01*
X153273238Y-88689380D01*
X153416095Y-88737000D01*
X153749428Y-88689380D02*
X153987523Y-89689380D01*
X154178000Y-88975095D01*
X154368476Y-89689380D01*
X154606571Y-88689380D01*
X155511333Y-89689380D02*
X154939904Y-89689380D01*
X155225619Y-89689380D02*
X155225619Y-88689380D01*
X155130380Y-88832238D01*
X155035142Y-88927476D01*
X154939904Y-88975095D01*
G04 #@! TO.C,U2*
X124714095Y-78553380D02*
X124714095Y-79362904D01*
X124761714Y-79458142D01*
X124809333Y-79505761D01*
X124904571Y-79553380D01*
X125095047Y-79553380D01*
X125190285Y-79505761D01*
X125237904Y-79458142D01*
X125285523Y-79362904D01*
X125285523Y-78553380D01*
X125714095Y-78648619D02*
X125761714Y-78601000D01*
X125856952Y-78553380D01*
X126095047Y-78553380D01*
X126190285Y-78601000D01*
X126237904Y-78648619D01*
X126285523Y-78743857D01*
X126285523Y-78839095D01*
X126237904Y-78981952D01*
X125666476Y-79553380D01*
X126285523Y-79553380D01*
G04 #@! TO.C,J6*
X120273380Y-109807333D02*
X120987666Y-109807333D01*
X121130523Y-109854952D01*
X121225761Y-109950190D01*
X121273380Y-110093047D01*
X121273380Y-110188285D01*
X120273380Y-108902571D02*
X120273380Y-109093047D01*
X120321000Y-109188285D01*
X120368619Y-109235904D01*
X120511476Y-109331142D01*
X120701952Y-109378761D01*
X121082904Y-109378761D01*
X121178142Y-109331142D01*
X121225761Y-109283523D01*
X121273380Y-109188285D01*
X121273380Y-108997809D01*
X121225761Y-108902571D01*
X121178142Y-108854952D01*
X121082904Y-108807333D01*
X120844809Y-108807333D01*
X120749571Y-108854952D01*
X120701952Y-108902571D01*
X120654333Y-108997809D01*
X120654333Y-109188285D01*
X120701952Y-109283523D01*
X120749571Y-109331142D01*
X120844809Y-109378761D01*
G04 #@! TO.C,J7*
X85641380Y-82375333D02*
X86355666Y-82375333D01*
X86498523Y-82422952D01*
X86593761Y-82518190D01*
X86641380Y-82661047D01*
X86641380Y-82756285D01*
X85641380Y-81994380D02*
X85641380Y-81327714D01*
X86641380Y-81756285D01*
G04 #@! TO.C,R7*
X87179334Y-94476381D02*
X86846001Y-94000191D01*
X86607905Y-94476381D02*
X86607905Y-93476381D01*
X86988858Y-93476381D01*
X87084096Y-93524001D01*
X87131715Y-93571620D01*
X87179334Y-93666858D01*
X87179334Y-93809715D01*
X87131715Y-93904953D01*
X87084096Y-93952572D01*
X86988858Y-94000191D01*
X86607905Y-94000191D01*
X87512667Y-93476381D02*
X88179334Y-93476381D01*
X87750762Y-94476381D01*
G04 #@! TO.C,R8*
X87179334Y-98226381D02*
X86846001Y-97750191D01*
X86607905Y-98226381D02*
X86607905Y-97226381D01*
X86988858Y-97226381D01*
X87084096Y-97274001D01*
X87131715Y-97321620D01*
X87179334Y-97416858D01*
X87179334Y-97559715D01*
X87131715Y-97654953D01*
X87084096Y-97702572D01*
X86988858Y-97750191D01*
X86607905Y-97750191D01*
X87750762Y-97654953D02*
X87655524Y-97607334D01*
X87607905Y-97559715D01*
X87560286Y-97464477D01*
X87560286Y-97416858D01*
X87607905Y-97321620D01*
X87655524Y-97274001D01*
X87750762Y-97226381D01*
X87941239Y-97226381D01*
X88036477Y-97274001D01*
X88084096Y-97321620D01*
X88131715Y-97416858D01*
X88131715Y-97464477D01*
X88084096Y-97559715D01*
X88036477Y-97607334D01*
X87941239Y-97654953D01*
X87750762Y-97654953D01*
X87655524Y-97702572D01*
X87607905Y-97750191D01*
X87560286Y-97845429D01*
X87560286Y-98035905D01*
X87607905Y-98131143D01*
X87655524Y-98178762D01*
X87750762Y-98226381D01*
X87941239Y-98226381D01*
X88036477Y-98178762D01*
X88084096Y-98131143D01*
X88131715Y-98035905D01*
X88131715Y-97845429D01*
X88084096Y-97750191D01*
X88036477Y-97702572D01*
X87941239Y-97654953D01*
G04 #@! TO.C,SW2*
X84119238Y-89078978D02*
X84166857Y-88936121D01*
X84166857Y-88698025D01*
X84119238Y-88602787D01*
X84071619Y-88555168D01*
X83976381Y-88507549D01*
X83881143Y-88507549D01*
X83785905Y-88555168D01*
X83738286Y-88602787D01*
X83690667Y-88698025D01*
X83643048Y-88888502D01*
X83595429Y-88983740D01*
X83547810Y-89031359D01*
X83452572Y-89078978D01*
X83357334Y-89078978D01*
X83262096Y-89031359D01*
X83214477Y-88983740D01*
X83166857Y-88888502D01*
X83166857Y-88650406D01*
X83214477Y-88507549D01*
X83166857Y-88174216D02*
X84166857Y-87936121D01*
X83452572Y-87745645D01*
X84166857Y-87555168D01*
X83166857Y-87317073D01*
X83262096Y-86983740D02*
X83214477Y-86936121D01*
X83166857Y-86840883D01*
X83166857Y-86602787D01*
X83214477Y-86507549D01*
X83262096Y-86459930D01*
X83357334Y-86412311D01*
X83452572Y-86412311D01*
X83595429Y-86459930D01*
X84166857Y-87031359D01*
X84166857Y-86412311D01*
G04 #@! TO.C,SW3*
X84119238Y-92728978D02*
X84166857Y-92586121D01*
X84166857Y-92348025D01*
X84119238Y-92252787D01*
X84071619Y-92205168D01*
X83976381Y-92157549D01*
X83881143Y-92157549D01*
X83785905Y-92205168D01*
X83738286Y-92252787D01*
X83690667Y-92348025D01*
X83643048Y-92538502D01*
X83595429Y-92633740D01*
X83547810Y-92681359D01*
X83452572Y-92728978D01*
X83357334Y-92728978D01*
X83262096Y-92681359D01*
X83214477Y-92633740D01*
X83166857Y-92538502D01*
X83166857Y-92300406D01*
X83214477Y-92157549D01*
X83166857Y-91824216D02*
X84166857Y-91586121D01*
X83452572Y-91395645D01*
X84166857Y-91205168D01*
X83166857Y-90967073D01*
X83166857Y-90681359D02*
X83166857Y-90062311D01*
X83547810Y-90395645D01*
X83547810Y-90252787D01*
X83595429Y-90157549D01*
X83643048Y-90109930D01*
X83738286Y-90062311D01*
X83976381Y-90062311D01*
X84071619Y-90109930D01*
X84119238Y-90157549D01*
X84166857Y-90252787D01*
X84166857Y-90538502D01*
X84119238Y-90633740D01*
X84071619Y-90681359D01*
G04 #@! TO.C,J8*
X151558666Y-98595380D02*
X151558666Y-99309666D01*
X151511047Y-99452523D01*
X151415809Y-99547761D01*
X151272952Y-99595380D01*
X151177714Y-99595380D01*
X152177714Y-99023952D02*
X152082476Y-98976333D01*
X152034857Y-98928714D01*
X151987238Y-98833476D01*
X151987238Y-98785857D01*
X152034857Y-98690619D01*
X152082476Y-98643000D01*
X152177714Y-98595380D01*
X152368190Y-98595380D01*
X152463428Y-98643000D01*
X152511047Y-98690619D01*
X152558666Y-98785857D01*
X152558666Y-98833476D01*
X152511047Y-98928714D01*
X152463428Y-98976333D01*
X152368190Y-99023952D01*
X152177714Y-99023952D01*
X152082476Y-99071571D01*
X152034857Y-99119190D01*
X151987238Y-99214428D01*
X151987238Y-99404904D01*
X152034857Y-99500142D01*
X152082476Y-99547761D01*
X152177714Y-99595380D01*
X152368190Y-99595380D01*
X152463428Y-99547761D01*
X152511047Y-99500142D01*
X152558666Y-99404904D01*
X152558666Y-99214428D01*
X152511047Y-99119190D01*
X152463428Y-99071571D01*
X152368190Y-99023952D01*
G04 #@! TD*
%LPC*%
D15*
G04 #@! TO.C,J3*
X135890000Y-82042000D03*
X138430000Y-82042000D03*
X140970000Y-82042000D03*
X143510000Y-82042000D03*
D16*
X146050000Y-82042000D03*
G04 #@! TD*
G04 #@! TO.C,J4*
X101473000Y-73914000D03*
D15*
X104013000Y-73914000D03*
X106553000Y-73914000D03*
X109093000Y-73914000D03*
X111633000Y-73914000D03*
G04 #@! TD*
D17*
G04 #@! TO.C,RV5*
X80264000Y-115824000D03*
X82804000Y-115824000D03*
X85344000Y-115824000D03*
G04 #@! TD*
G04 #@! TO.C,RV4*
X122428000Y-115824000D03*
X119888000Y-115824000D03*
X117348000Y-115824000D03*
G04 #@! TD*
G04 #@! TO.C,RV3*
X89916000Y-115824000D03*
X92456000Y-115824000D03*
X94996000Y-115824000D03*
G04 #@! TD*
G04 #@! TO.C,RV1*
X113157000Y-115824000D03*
X110617000Y-115824000D03*
X108077000Y-115824000D03*
G04 #@! TD*
G04 #@! TO.C,RV2*
X99187000Y-115824000D03*
X101727000Y-115824000D03*
X104267000Y-115824000D03*
G04 #@! TD*
D18*
G04 #@! TO.C,C1*
X79375000Y-81026000D03*
X84375000Y-81026000D03*
G04 #@! TD*
D19*
G04 #@! TO.C,C2*
X68580000Y-93472000D03*
D18*
X73580000Y-93472000D03*
G04 #@! TD*
D19*
G04 #@! TO.C,D1*
X117602000Y-72390000D03*
D20*
X117602000Y-80010000D03*
G04 #@! TD*
D21*
G04 #@! TO.C,J1*
X127762000Y-89408000D03*
X125222000Y-89408000D03*
X122682000Y-89408000D03*
X120142000Y-89408000D03*
X117602000Y-89408000D03*
X115062000Y-89408000D03*
X112522000Y-89408000D03*
X109982000Y-89408000D03*
X107442000Y-89408000D03*
X104902000Y-89408000D03*
X102362000Y-89408000D03*
X99822000Y-89408000D03*
X97282000Y-89408000D03*
X94742000Y-89408000D03*
X92202000Y-89408000D03*
X92202000Y-104648000D03*
X94742000Y-104648000D03*
X97282000Y-104648000D03*
X99822000Y-104648000D03*
D22*
X102362000Y-104648000D03*
X104902000Y-104648000D03*
X107442000Y-104648000D03*
X109982000Y-104648000D03*
X112522000Y-104648000D03*
X115062000Y-104648000D03*
X117602000Y-104648000D03*
X120142000Y-104648000D03*
X122682000Y-104648000D03*
X125222000Y-104648000D03*
X127762000Y-104648000D03*
G04 #@! TD*
D23*
G04 #@! TO.C,J2*
X69088000Y-103632000D03*
X71488000Y-101632000D03*
X76988000Y-101632000D03*
G04 #@! TD*
D24*
G04 #@! TO.C,J5*
X139446000Y-117348000D03*
D25*
G36*
X140519513Y-109851611D02*
X140592318Y-109862411D01*
X140663714Y-109880295D01*
X140733013Y-109905090D01*
X140799548Y-109936559D01*
X140862678Y-109974398D01*
X140921795Y-110018242D01*
X140976330Y-110067670D01*
X141025758Y-110122205D01*
X141069602Y-110181322D01*
X141107441Y-110244452D01*
X141138910Y-110310987D01*
X141163705Y-110380286D01*
X141181589Y-110451682D01*
X141192389Y-110524487D01*
X141196000Y-110598000D01*
X141196000Y-112098000D01*
X141192389Y-112171513D01*
X141181589Y-112244318D01*
X141163705Y-112315714D01*
X141138910Y-112385013D01*
X141107441Y-112451548D01*
X141069602Y-112514678D01*
X141025758Y-112573795D01*
X140976330Y-112628330D01*
X140921795Y-112677758D01*
X140862678Y-112721602D01*
X140799548Y-112759441D01*
X140733013Y-112790910D01*
X140663714Y-112815705D01*
X140592318Y-112833589D01*
X140519513Y-112844389D01*
X140446000Y-112848000D01*
X138446000Y-112848000D01*
X138372487Y-112844389D01*
X138299682Y-112833589D01*
X138228286Y-112815705D01*
X138158987Y-112790910D01*
X138092452Y-112759441D01*
X138029322Y-112721602D01*
X137970205Y-112677758D01*
X137915670Y-112628330D01*
X137866242Y-112573795D01*
X137822398Y-112514678D01*
X137784559Y-112451548D01*
X137753090Y-112385013D01*
X137728295Y-112315714D01*
X137710411Y-112244318D01*
X137699611Y-112171513D01*
X137696000Y-112098000D01*
X137696000Y-110598000D01*
X137699611Y-110524487D01*
X137710411Y-110451682D01*
X137728295Y-110380286D01*
X137753090Y-110310987D01*
X137784559Y-110244452D01*
X137822398Y-110181322D01*
X137866242Y-110122205D01*
X137915670Y-110067670D01*
X137970205Y-110018242D01*
X138029322Y-109974398D01*
X138092452Y-109936559D01*
X138158987Y-109905090D01*
X138228286Y-109880295D01*
X138299682Y-109862411D01*
X138372487Y-109851611D01*
X138446000Y-109848000D01*
X140446000Y-109848000D01*
X140519513Y-109851611D01*
X140519513Y-109851611D01*
G37*
D26*
X139446000Y-111348000D03*
D25*
G36*
X135706765Y-112602213D02*
X135791704Y-112614813D01*
X135874999Y-112635677D01*
X135955848Y-112664605D01*
X136033472Y-112701319D01*
X136107124Y-112745464D01*
X136176094Y-112796616D01*
X136239718Y-112854282D01*
X136297384Y-112917906D01*
X136348536Y-112986876D01*
X136392681Y-113060528D01*
X136429395Y-113138152D01*
X136458323Y-113219001D01*
X136479187Y-113302296D01*
X136491787Y-113387235D01*
X136496000Y-113473000D01*
X136496000Y-115223000D01*
X136491787Y-115308765D01*
X136479187Y-115393704D01*
X136458323Y-115476999D01*
X136429395Y-115557848D01*
X136392681Y-115635472D01*
X136348536Y-115709124D01*
X136297384Y-115778094D01*
X136239718Y-115841718D01*
X136176094Y-115899384D01*
X136107124Y-115950536D01*
X136033472Y-115994681D01*
X135955848Y-116031395D01*
X135874999Y-116060323D01*
X135791704Y-116081187D01*
X135706765Y-116093787D01*
X135621000Y-116098000D01*
X133871000Y-116098000D01*
X133785235Y-116093787D01*
X133700296Y-116081187D01*
X133617001Y-116060323D01*
X133536152Y-116031395D01*
X133458528Y-115994681D01*
X133384876Y-115950536D01*
X133315906Y-115899384D01*
X133252282Y-115841718D01*
X133194616Y-115778094D01*
X133143464Y-115709124D01*
X133099319Y-115635472D01*
X133062605Y-115557848D01*
X133033677Y-115476999D01*
X133012813Y-115393704D01*
X133000213Y-115308765D01*
X132996000Y-115223000D01*
X132996000Y-113473000D01*
X133000213Y-113387235D01*
X133012813Y-113302296D01*
X133033677Y-113219001D01*
X133062605Y-113138152D01*
X133099319Y-113060528D01*
X133143464Y-112986876D01*
X133194616Y-112917906D01*
X133252282Y-112854282D01*
X133315906Y-112796616D01*
X133384876Y-112745464D01*
X133458528Y-112701319D01*
X133536152Y-112664605D01*
X133617001Y-112635677D01*
X133700296Y-112614813D01*
X133785235Y-112602213D01*
X133871000Y-112598000D01*
X135621000Y-112598000D01*
X135706765Y-112602213D01*
X135706765Y-112602213D01*
G37*
D27*
X134746000Y-114348000D03*
G04 #@! TD*
D18*
G04 #@! TO.C,R1*
X137922000Y-87503000D03*
D20*
X143002000Y-87503000D03*
G04 #@! TD*
D18*
G04 #@! TO.C,R2*
X137922000Y-92837000D03*
D20*
X143002000Y-92837000D03*
G04 #@! TD*
G04 #@! TO.C,R3*
X143002000Y-98171000D03*
D18*
X137922000Y-98171000D03*
G04 #@! TD*
D20*
G04 #@! TO.C,R4*
X124714000Y-85471000D03*
D18*
X129794000Y-85471000D03*
G04 #@! TD*
G04 #@! TO.C,R5*
X95504000Y-73914000D03*
D20*
X90424000Y-73914000D03*
G04 #@! TD*
G04 #@! TO.C,R6*
X73660000Y-84836000D03*
D18*
X68580000Y-84836000D03*
G04 #@! TD*
D16*
G04 #@! TO.C,SW1*
X154178000Y-91567000D03*
D15*
X154178000Y-94107000D03*
G04 #@! TD*
D28*
G04 #@! TO.C,U2*
X121666000Y-72771000D03*
D29*
X129286000Y-80391000D03*
X121666000Y-75311000D03*
X129286000Y-77851000D03*
X121666000Y-77851000D03*
X129286000Y-75311000D03*
X121666000Y-80391000D03*
X129286000Y-72771000D03*
G04 #@! TD*
D30*
G04 #@! TO.C,REF\002A\002A*
X73121320Y-113878680D03*
X71000000Y-113000000D03*
X68878680Y-113878680D03*
X68000000Y-116000000D03*
X68878680Y-118121320D03*
X71000000Y-119000000D03*
X73121320Y-118121320D03*
X74000000Y-116000000D03*
D31*
X71000000Y-116000000D03*
G04 #@! TD*
D30*
G04 #@! TO.C,REF\002A\002A*
X73121320Y-73878680D03*
X71000000Y-73000000D03*
X68878680Y-73878680D03*
X68000000Y-76000000D03*
X68878680Y-78121320D03*
X71000000Y-79000000D03*
X73121320Y-78121320D03*
X74000000Y-76000000D03*
D31*
X71000000Y-76000000D03*
G04 #@! TD*
D30*
G04 #@! TO.C,REF\002A\002A*
X154121320Y-113878680D03*
X152000000Y-113000000D03*
X149878680Y-113878680D03*
X149000000Y-116000000D03*
X149878680Y-118121320D03*
X152000000Y-119000000D03*
X154121320Y-118121320D03*
X155000000Y-116000000D03*
D31*
X152000000Y-116000000D03*
G04 #@! TD*
D30*
G04 #@! TO.C,REF\002A\002A*
X154121320Y-73878680D03*
X152000000Y-73000000D03*
X149878680Y-73878680D03*
X149000000Y-76000000D03*
X149878680Y-78121320D03*
X152000000Y-79000000D03*
X154121320Y-78121320D03*
X155000000Y-76000000D03*
D31*
X152000000Y-76000000D03*
G04 #@! TD*
D16*
G04 #@! TO.C,J6*
X118491000Y-109474000D03*
D15*
X115951000Y-109474000D03*
X113411000Y-109474000D03*
X110871000Y-109474000D03*
X108331000Y-109474000D03*
X105791000Y-109474000D03*
X103251000Y-109474000D03*
X100711000Y-109474000D03*
X98171000Y-109474000D03*
G04 #@! TD*
D16*
G04 #@! TO.C,J7*
X88519000Y-82042000D03*
D15*
X91059000Y-82042000D03*
X93599000Y-82042000D03*
X96139000Y-82042000D03*
X98679000Y-82042000D03*
X101219000Y-82042000D03*
X103759000Y-82042000D03*
X106299000Y-82042000D03*
X108839000Y-82042000D03*
X111379000Y-82042000D03*
G04 #@! TD*
D18*
G04 #@! TO.C,R7*
X84806001Y-96744001D03*
D20*
X89886001Y-96744001D03*
G04 #@! TD*
G04 #@! TO.C,R8*
X89886001Y-100494001D03*
D18*
X84806001Y-100494001D03*
G04 #@! TD*
D16*
G04 #@! TO.C,SW2*
X81384477Y-87745645D03*
D15*
X78844477Y-87745645D03*
G04 #@! TD*
G04 #@! TO.C,SW3*
X78844477Y-91395645D03*
D16*
X81384477Y-91395645D03*
G04 #@! TD*
G04 #@! TO.C,J8*
X151892000Y-101473000D03*
D15*
X151892000Y-104013000D03*
G04 #@! TD*
M02*
